<svg xmlns="http://www.w3.org/2000/svg" width="40" height="40"><defs><linearGradient id="a" x1="50%" x2="50%" y1="100%" y2="0%"><stop offset="0%" stop-color="#F0CCFF"/><stop offset="100%" stop-color="#B89EFF"/></linearGradient><linearGradient id="b" x1="50%" x2="50%" y1="0%" y2="96.157%"><stop offset="0%" stop-color="#D992FB"/><stop offset="100%" stop-color="#935BFF"/></linearGradient></defs><g fill="none" fill-rule="evenodd"><ellipse cx="20" cy="36" fill="#4F00C9" opacity=".25" rx="14" ry="2.5"/><path fill="#C497FF" d="M20.64 2.879l11.666 5.646a1.5 1.5 0 01.847 1.35V28.41a1.5 1.5 0 01-.872 1.362l-11.666 5.38a1.5 1.5 0 01-1.256 0L7.692 29.77a1.5 1.5 0 01-.871-1.362V9.876c0-.576.328-1.1.846-1.35l11.666-5.647a1.5 1.5 0 011.307 0z"/><path fill="url(#a)" d="M13.987 6.128l8.16 3.507V22.97l-8.16 3.536-8.16-3.701V9.635z" transform="translate(6 2.685)"/><path fill="#E3BDFF" d="M20.225 3.076l12.477 6.066-4.133 3.26-8.344-3.845v-5.48zm8.344 9.327l4.364-3.096-.231 19.278-4.133-2.931V12.403z"/><path fill="#AE92FF" d="M7.249 9.637l4.12 2.93.334 13.21 8.363 3.927v5.051L7.249 28.956z"/><path fill="#8970FF" d="M20 34.936l-9.909-7.605-2.91-18.725v20.528z"/><path fill="url(#b)" d="M4.47 7.955l3.091 2.018 5.455-2.49 5.228 2.49v8.673l3.137 2.661V8.256l-8.425-4.079z" transform="rotate(-180 16.44 16.677)"/><path fill="#FFF" d="M20 3.16l10.002 7.684 2.452 17.718.458-19.52z"/><path fill="#EBE2FF" d="M11.546 12.218l3.091 2.49 5.455-2.49 5.228 2.49v8.673l3.137 2.104V12.519L20.03 8.44z"/><g stroke="#542799" stroke-linecap="round" stroke-width="1.5"><path stroke-linejoin="round" d="M20.629 2.867l11.666 5.527a1.5 1.5 0 01.858 1.356v18.503a1.5 1.5 0 01-.858 1.356L20.63 35.136a1.5 1.5 0 01-1.284 0L7.678 29.609a1.5 1.5 0 01-.857-1.356V9.75a1.5 1.5 0 01.857-1.356l11.667-5.527a1.5 1.5 0 011.284 0z"/><path stroke-linejoin="round" d="M19.987 8.477l8.43 3.941v13.167l-8.43 3.94-8.43-3.94V12.418z"/><path d="M19.987 3.22v5.26m0 21.042v5.26m-8.534-8.922l-4.12 3.193m4.162-16.815L7.216 9.129m21.221 16.277l4.412 3.55m-4.37-16.636l3.898-3.19"/></g><path d="M8.306 13.858c2.942-1.323 2.908-1.357 4.268-4.268 1.3 2.66 1.368 2.762 4.126 4.126-2.7 1.36-2.736 1.395-4.268 4.268-1.299-2.756-1.264-2.757-4.126-4.126z" fill="#FFF"/></g></svg>