<svg xmlns="http://www.w3.org/2000/svg" viewBox="0 0 3000 3000" xmlns:xlink="http://www.w3.org/1999/xlink"><g id="tailFur"><clipPath id="tailFurClipPath"><path d="M2843.8 1635s-3.6 27-26.7 75.5c-31.4-98.7-91-197.3-168.6-256-1.8-1.3-4.6-3.2-8.3-5.6-161.3-100.9-374.7-31.8-447.1 144.2l-6.7 16c40.7-31.8 96.3-51.8 96.3-51.8s-19.9 27.2-35.1 47.6c-47.1 63-78 149.5-54.1 228.9 7.5 24.9 26.4 49 50.3 71-121.3 19.7-207.2 143.9-207.2 143.9l-116 136.8 169.4 35.3 96.5 3.5c51.6 15.5 117.1 26.6 199.1 26.6 242.5 0 413.1-159 449.1-329.9 2.8-13.4 5.7-26.8 8.8-40.1 11.3-49.6 34.4-173.2.3-245.9z" fill="none"></path></clipPath><defs><clipPath id="tailClipPath2"><path d="M2282.7,1557.4s-19.9,27.2-35.1,47.6c-47.1,63-78,149.5-54.1,228.9,19.3,64.1,114.8,123.2,174.2,153q9.4,1.1,19.1,1.5a5,5,0,0,0-.4-1.4c-9.7-21.4,6.3-60.3,19-78,15.9-22.3,42.2-34.2,66.2-47.4s48.6-30.9,55.7-57.3l-5,57.7c37.9-18.6,69.3-49.7,89.3-86.9a198.4,198.4,0,0,0,18.5-49.1c-17.9-126-127-217.2-252.6-205.4-44.4,4.2-83.5,20.3-115.2,45.1C2274.6,1560.3,2282.7,1557.4,2282.7,1557.4Z" fill="#d1dadf"></path></clipPath></defs><g clip-path="url(#tailFurClipPath)"><path fill="#d1dadf" d="M2842.9 2245.9L1904 2245.9 1904 1357.2 2894.6 1357.2 2842.9 2245.9z"></path><path d="M2561.6 1444c-.2 4.3-.2 8.8 1.9 12.6s7 6.8 10.3 10.5 5.6 9.5 9.8 12.9c5.7 4.7 14.4 4.3 20.9.9s11.6-9.1 16.1-15 7.5-9.9 9.6-15.6 2.3-12.5-.6-17.8c-1.8-3.3-4.6-5.8-7.5-8.2-9.2-7.6-32.7-24.5-45.7-21.8S2562.2 1432.4 2561.6 1444zM2625.8 1541.4c-2.3 6.7-.5 13.7 5.3 16.5s13.7-.3 16.2-6.2-.3-13.6-6.1-16.6-12.5-1.4-15.1 5.6M2684.5 1546.5c-12 5.1-20.8 16-25.7 28.1s-6.2 25.3-6.5 38.3c-.4 16.4 1.7 34.9 14.4 45.3 8.4 6.8 19.8 8.6 30.6 8.5 8.7-.1 18.4-1.7 23.3-8.9s3.5-14.5 6-21.6c3.8-10.8 14.5-17.4 24.2-23.5s19.9-14.1 21.6-25.4C2777.4 1554 2707.2 1537 2684.5 1546.5zM2669.6 1732.1a30.4 30.4 0 0 0-3.8 33.9 16.4 16.4 0 0 0 5.8 6.5c6.8 3.9 15.4.1 23.1 1.4 9.3 1.6 16.4 10.7 25.9 11.2 6.4.3 12.4-3.6 16.2-8.7s5.9-11.3 7.9-17.4c1.4-4.5 2.9-9 3-13.7a26.2 26.2 0 0 0-14.8-24c-11.1-5.1-20.2 1.2-31 2.1C2689.3 1724.6 2679.5 1721 2669.6 1732.1zM2784.2 1788.9c-8.6 3.4-16 9.5-22.5 16.2-8.7 8.9-16.3 19.4-19.1 31.5s-.2 26.1 9 34.4c6.1 5.5 14.1 8 22 10.1 17.3 4.6 35.4 7.9 53 4.6 37.9-7.2 51.5-43.1 37-76.9C2852 1781.4 2808.3 1779.3 2784.2 1788.9zM2873.6 1953.5c-6.7-12.4-13.9-25.3-25.3-33.6-16.7-12.1-41.6-11.4-57.6 1.6-6.7 5.4-11.7 12.5-16.1 19.8-8.6 14.3-15 30.4-15.1 47a29.5 29.5 0 0 0 1.8 11.4c2.3 5.6 7.1 9.8 11.2 14.3 8.2 9.2 13.8 20.7 22.8 29.1s23.9 12.9 33.5 5.2c3-2.4 5.2-5.7 7.2-9a186.1 186.1 0 0 0 19-43M2590.2 2144.3c9.6 5.2 22.3 2.5 29.9-5.3 17.4-17.9 3.1-64.9-25.8-52.8C2574.1 2094.7 2570.6 2133.7 2590.2 2144.3zM2443.9 1975.1a19.6 19.6 0 0 0 25.6 27.8 30.9 30.9 0 0 0 7.9-6.2c3.6-3.7 6.9-7.9 8-12.9a17.7 17.7 0 0 0-6.9-17.9C2467.7 1958.2 2450.4 1964.5 2443.9 1975.1zM2224.3 2019.1a29.8 29.8 0 0 0 6.9 32.8c7.2 6.6 17.4 9.4 24 16.7s8.6 19.7 14.6 28.6c10.3 15.3 34.9 18 48.2 5.3s13.4-31.6 13.2-49c-.1-10.4-.4-21.5-6.6-29.8-10.2-13.7-36.5-20.5-52.5-24.2C2254.5 1995.3 2232 2001.2 2224.3 2019.1zM2420.5 1852.8a19 19 0 0 0-10.9 18.3c.5 6.2 4.1 11.9 4 18.1s-4.5 12.9-5.5 19.7c-1.8 11.6 8.6 23.4 20.3 23.3s19.9-9 27.3-17.2c4.4-4.9 9.1-10.3 9.8-16.8 1.1-10.8-8.2-25.3-14.1-33.9S2431.8 1847.8 2420.5 1852.8zM2144.4 2129.9c.2 9.2 2.4 18.9 9.3 25.1s19.7 7.4 30.4 7.4h8.1c10.5-.1 21.4-.2 31.1-4.5s17.8-13.7 17.2-24.2-7.8-17-15.6-22.2-16.7-8.8-23.9-14.8c-2.8-2.3-5.2-5-8.3-7C2170 2075 2144 2110.5 2144.4 2129.9zM2102.2 2225.1c3 4.8 6.9 8.9 9.6 13.9s4.6 11.9 7 17.8 6.1 11.7 11.9 14.4c7.8 3.6 17.3.3 24-5.1 11.1-8.9 17.2-23.9 14.9-37.9-3.7-22.8-22.5-30.1-42.7-32.2C2109.1 2194.1 2088.7 2204 2102.2 2225.1zM2011.3 2100.1c15.2.3 30.5 3.2 45.6 1.3a72.4 72.4 0 0 0 47.2-26.6c8-10.1 13.3-23.9 8.7-36-6.3-16.8-26.9-22.1-41.1-33.1-12.7-9.8-20.8-24.9-34.5-33.2s-27.9-8.5-41.6-4.2-25.5 13.5-34.4 24.8c-6.5 8.3-11.7 18.1-12.1 28.6-.3 7.4 1.8 14.6 3.8 21.7 4.7 16.4 7.1 43.3 16.9 57.3C1977.6 2111.6 1998.8 2099.8 2011.3 2100.1zM2032 2206.4c4.4 8.3 8.3 17.1 9.1 26.5s-2.2 19.5-9.5 25.4c-10.5 8.7-25.9 6.4-39.3 9.2-10.3 2.1-20 7.5-30.5 7.9-14 .5-27.5-8.6-33.6-21.1-13-26.6 9-67.7 33.3-81.9C1989.8 2156 2019.4 2182.9 2032 2206.4zM2644.6 2022.2c-10.1 7.6-18.5 20.1-15.4 32.4 3.6 14.2 20.3 21 26.8 34.2 3.7 7.4 3.9 16.6 9.4 22.8 8.4 9.4 23.7 6.7 35.2 1.7 13.9-6 27-14.3 36.3-26.2s14.3-27.6 11.1-42.4C2739 2002.8 2672.7 2001.1 2644.6 2022.2zM2310.6 1969.3a27.2 27.2 0 0 0 6.4-8.9c2.8-6.5 2.1-14.1-5.8-21.3C2271.4 1902.5 2264.8 2012.9 2310.6 1969.3zM2182.1 1929.3c-3.2 6.8-2 15.7 3.7 20.5a21.7 21.7 0 0 0 9.3 4.3c2.7.6 18.2 4.7 27.9-4.3a18.3 18.3 0 0 0 5.2-8.3 18.6 18.6 0 0 0-2.2-14.9C2218.1 1915 2188.4 1915.9 2182.1 1929.3zM2752.6 1661.5c-5.1 10.8-3.1 25 5.9 32.7 4.2 3.5 9.4 5.6 14.8 6.8a61.2 61.2 0 0 0 44.5-6.9c2.3-1.4 4.7-3 6-5.4s1.4-4.8 1.6-7.4c.5-8.2.6-16.7-2.7-24.2C2810.2 1628.8 2764.3 1637 2752.6 1661.5zM2594.2 1971.3a13.4 13.4 0 0 0-5.1 9.9 22 22 0 0 0 1.5 9.2c2 4.9 6.9 9 12.2 8.8a15.6 15.6 0 0 0 7.5-2.7c6.8-4.2 11.8-11.7 11.7-19.7q0-.5 0-1c-.8-10.7-13.7-15.9-22-9.1zM2456.3 2112.2a17.8 17.8 0 0 0 8.2 12.2 29.2 29.2 0 0 0 11.7 4.2c7 .8 14.8-2.2 18-8.5a20.7 20.7 0 0 0 1.7-10.5c-.6-10.6-6-21.2-15.3-26.2l-1.2-.6c-13-5.9-27.2 5.7-24.7 19.7zM2659.8 1826a11.2 11.2 0 0 0-8.3 4.2 18.4 18.4 0 0 0-3.6 7c-1.1 4.3.2 9.4 3.9 11.9a13.1 13.1 0 0 0 6.4 1.9c6.7.5 13.8-2 17.6-7.5l.5-.7c4.7-7.6-1.4-17.5-10.4-17.1zM2495.6 1890.9c1.5 5.7 0 11.6-.2 17.5-.3 15 9.8 29.6 23.9 34.6 19.8 7 41-4.1 58.3-16 8.1-5.6 16.3-11.7 21.4-20.1s6.5-19.9.9-28c-10.2-14.8-32.5-28.1-47.4-38.1-11.4-7.7-25.3-15.2-39.4-15.9-12.4-.6-22.1 4.7-26.9 16.4C2478.1 1861.3 2489.7 1873.4 2495.6 1890.9zM2388.3 2108.6a27.4 27.4 0 0 0 10.8 3.8c9.4.9 18.1-5.9 22.9-14.1s6.8-17.6 9.9-26.6 7.9-18.7 9.8-28.6.6-21.2-6.5-28.3c-5.4-5.4-13.5-7.7-21.1-7.3s-15.1 2.9-22.1 6.1C2349.8 2032.4 2346.8 2085.2 2388.3 2108.6zM2650.9 1939.5a21.4 21.4 0 0 0 6.2 6.4c6.3 3.8 14.7 2.1 20.9-2s10.8-10 16.1-15.2 11.9-10.4 16.7-16.6 7.7-14.6 5.2-22.1c-1.9-5.7-6.8-10-12.3-12.4s-11.6-3.1-17.5-3.4C2650.2 1872.8 2629.9 1908.8 2650.9 1939.5zM2714.5 1981a21.9 21.9 0 0 0 15.3-11.2 19.4 19.4 0 0 0-.7-18.8 11.5 11.5 0 0 0-5.6-4.9c-8.4-3-24.6 7.2-26.9 15.5C2693.6 1972.6 2703.7 1983 2714.5 1981zM2106.5 1947c7.2-4.6 12-12.1 16.6-19.4 5.6-9 11.4-18.3 14-28.6s2.1-18.4 1.3-27.7c-.4-4.7-1-9.6-3.6-13.5-4.6-6.9-13.9-8.7-22.2-9.8a7.9 7.9 0 0 0-8.4 2.5l-40.8 38c-9.9 9.2-26.7 20-26.7 35.2C2036.6 1952.8 2087.6 1959.1 2106.5 1947zM2511.3 2031c-10.6 18.6-8.3 43.7 5.5 60.1 3.9 4.6 9.1 8.7 15.1 8.9s12.2-4.5 16.8-9.2a182.9 182.9 0 0 0 18.8-22c8.2-11.3 15.4-25.2 11.9-38.7-2.5-9.6-10.4-17.4-19.7-20.8C2540.2 2002.2 2521 2013.8 2511.3 2031zM2134.7 2029a49.2 49.2 0 0 0 35.9 11c3.6-.3 7.2-1.1 10.3-3s6.1-6.5 8.1-10.5c4.2-8 7.9-17.3 4.7-25.7a25.2 25.2 0 0 0-5-7.6c-13.7-15.1-37.3-19.8-56-12C2110.7 1990.5 2119.5 2016.1 2134.7 2029z" fill="#4a4855"></path><path d="M2282.7,1557.4s-19.9,27.2-35.1,47.6c-47.1,63-78,149.5-54.1,228.9,19.3,64.1,114.8,123.2,174.2,153q9.4,1.1,19.1,1.5a5,5,0,0,0-.4-1.4c-9.7-21.4,6.3-60.3,19-78,15.9-22.3,42.2-34.2,66.2-47.4s48.6-30.9,55.7-57.3l-5,57.7c37.9-18.6,69.3-49.7,89.3-86.9a198.4,198.4,0,0,0,18.5-49.1c-17.9-126-127-217.2-252.6-205.4-44.4,4.2-83.5,20.3-115.2,45.1C2274.6,1560.3,2282.7,1557.4,2282.7,1557.4Z" fill="#d1dadf"></path><g clip-path="url(#tailClipPath2)" fill="#4a4855"><path d="M2552.2 1821.6c8.3 7.9 20.4 11 31.8 10.1s22.3-5.4 32.3-11 17.4-11 23.3-19.2 9.1-18.9 6.5-28.7-9.4-16.3-16.4-22.7c-29.9-27.5-60.7-29.4-98.3-15.9-18 6.5-12 19.2-4.2 32.7C2537.1 1783.8 2537.5 1807.6 2552.2 1821.6zM2231 1661.6c8.3 7.9 20.4 11 31.8 10.1s22.3-5.4 32.3-11 17.4-11 23.3-19.2 9.1-18.9 6.5-28.7-9.4-16.3-16.4-22.7c-29.9-27.5-60.7-29.4-98.3-15.9-18 6.5-12 19.2-4.2 32.7C2215.9 1623.9 2216.3 1647.6 2231 1661.6zM2436.1 1791.2c-1.5 6.7 1.1 14 5.9 18.8s11.6 7.5 18.5 8.2c4.9.5 10.2 0 14.3-2.8 8.2-5.6 8.3-18.8 1.8-26.3C2467.3 1778.2 2440.4 1772.5 2436.1 1791.2zM2309.5 1706.5c-5.6 13.3-5.5 28.3-3.2 42.6 1.4 8.7 4.4 18.4 12.5 21.8 5 2.1 10.6 1.3 16 .8a122.6 122.6 0 0 1 30.7 1c8.5 1.3 17.1 3.6 25.6 2.2a30.2 30.2 0 0 0 21.4-44.5c-2.3-4.2-5.7-7.9-7.6-12.3-3.5-8-2-17.4-5.4-25.4s-9-11.4-15.5-14.8C2358.2 1664.3 2320.6 1679.9 2309.5 1706.5zM2228.9 1714.4a12.7 12.7 0 0 0 7.7 5.7c5.9 1.6 13-1 15.8-6.4s.3-13.2-5.4-15.4a19.1 19.1 0 0 0-6.3-1 20.6 20.6 0 0 0-6.6.5C2227.8 1699.7 2226 1709.2 2228.9 1714.4zM2241.2 1863.4a36.4 36.4 0 0 0-28.5 29.4 19.7 19.7 0 0 0 .8 10.4c3.5 8.7 14.6 11.4 20.9 18.3s7.7 22.2 16.3 29.6c5.8 5 14.4 5.7 21.8 3.6s13.9-6.4 20.2-10.7c4.6-3.2 9.3-6.4 12.9-10.8a31.4 31.4 0 0 0 3.5-33.6c-6.7-13-20-13.7-30.9-20.7C2265.4 1870.7 2258.7 1860.1 2241.2 1863.4zM2369.6 1896.7c-6.8 11.2-5.3 26.9 3.6 36.6s24.4 12.5 36.2 6.5a48 48 0 0 0 12.3-9.6c5.6-5.7 10.7-12.2 12.5-20a27.5 27.5 0 0 0-10.7-27.8C2406.6 1870.5 2379.6 1880.3 2369.6 1896.7zM2437.2 1705.1a13.4 13.4 0 0 0-5.1 9.9 22 22 0 0 0 1.5 9.2c2 4.9 6.9 9 12.2 8.8a15.6 15.6 0 0 0 7.5-2.7c6.8-4.2 11.8-11.7 11.7-19.7q0-.5 0-1c-.8-10.7-13.7-15.9-22-9.1zM2231.3 1842.5a27.4 27.4 0 0 0 10.8 3.8c9.4.9 18.1-5.9 22.9-14.1s6.8-17.6 9.9-26.6 7.9-18.7 9.8-28.6.6-21.2-6.5-28.3c-5.4-5.4-13.5-7.7-21.1-7.3s-15.1 2.9-22.1 6.1C2192.8 1766.2 2189.8 1819 2231.3 1842.5zM2343.8 1797.7c-18.1 5.2-32 22.5-33.4 41.2-.4 5.3.3 11.1 4.1 14.8s10.5 4.6 16.2 4.5a160.6 160.6 0 0 0 25.3-2.3c12.1-2.1 25.1-6.4 31.3-17.1 4.3-7.6 4.2-17.3.3-25.2C2379.6 1797.3 2360.4 1792.9 2343.8 1797.7z"></path></g><path d="M2470.7 1616.8c-2.3 8.7-2.3 18.9 4 25.4s14.7 6.8 22.9 7.3l56.5 3.6a59.5 59.5 0 0 0 9.9.1 30.4 30.4 0 0 0 24.3-17.9 37.1 37.1 0 0 0 2.6-16.9 49.8 49.8 0 0 0-26.7-40.5C2529.1 1560.2 2481 1578.4 2470.7 1616.8zM2516.1 1546.1c5.6 7.1 14.6 10.9 23.6 11.9s18.1-.6 26.8-2.9c11-2.8 23-7.7 27.5-18.1 3-6.9 2-14.9-.1-22.1s-4.6-12-10.3-13.9-10.4.4-15.6 0c-8-.5-14.3-6.4-20.3-11.8s-13.1-10.7-21-9.6C2503.6 1482.6 2505.4 1532.7 2516.1 1546.1zM2612.4 1664.3a18.6 18.6 0 0 0-13.8 6.9 30.6 30.6 0 0 0-5.9 11.6c-1.8 7.2.3 15.7 6.5 19.8a21.7 21.7 0 0 0 10.6 3.2c11.1.8 22.9-3.4 29.3-12.4l.8-1.2c7.9-12.7-2.3-29-17.2-28.4zM2686.7 1477a18.6 18.6 0 0 0-13.8 6.9 30.6 30.6 0 0 0-5.9 11.6c-1.8 7.2.3 15.7 6.5 19.8a21.7 21.7 0 0 0 10.6 3.2c11.1.8 22.9-3.4 29.3-12.4l.8-1.2c7.9-12.7-2.3-29-17.2-28.4zM2240.8 1493.9c3.8 8.5 10.2 15.5 17.2 21.7 9.3 8.3 20.1 15.4 32.3 17.7s26-1 34-10.6c5.2-6.3 7.4-14.5 9.1-22.5 3.8-17.5 6.3-35.7 2.2-53.1-8.8-37.6-45.3-49.5-78.5-33.6C2230.3 1426.5 2230.1 1470.3 2240.8 1493.9zM2401.3 1397.2c-12.1 7.3-24.7 15-32.5 26.8-11.3 17.3-9.5 42 4.2 57.5 5.7 6.4 13 11.2 20.5 15.2 14.7 7.9 31 13.6 47.7 13a29.5 29.5 0 0 0 11.3-2.3c5.5-2.6 9.5-7.6 13.8-11.8 8.8-8.6 20-14.7 28-24.1s11.8-24.4 3.7-33.7c-2.5-2.9-5.9-4.9-9.3-6.8A186.1 186.1 0 0 0 2445 1414M2420.5 1637.7a21.4 21.4 0 0 0 6.1-6.5c3.6-6.5 1.4-14.8-2.9-20.8s-10.5-10.4-15.9-15.4-10.9-11.5-17.4-15.9-14.9-7-22.3-4.2c-5.6 2.2-9.7 7.2-11.9 12.8s-2.6 11.7-2.6 17.7C2354 1641.4 2390.8 1660.1 2420.5 1637.7zM2455.8 1555a21.9 21.9 0 0 0-11.9-14.8 19.4 19.4 0 0 0-18.8 1.5 11.5 11.5 0 0 0-4.6 5.8c-2.6 8.5 8.3 24.3 16.7 26.2C2448.3 1576.2 2458.3 1565.7 2455.8 1555zM2490.8 1711.7a16.9 16.9 0 0 0 3.5 6.2c4 4.2 10.8 4.6 16.4 2.8s10.3-5.4 15.4-8.3 11.2-5.5 16.1-9.3 8.9-9.6 8.5-15.8-3.1-9-6.8-12-8.2-4.8-12.7-6.2C2503.9 1660.7 2481 1683.9 2490.8 1711.7z" fill="#4a4855"></path><defs><clipPath id="tailShadowClipPath"><path d="M2843.8 1635s-3.6 27-26.7 75.5c-31.4-98.7-91-197.3-168.6-256-1.8-1.3-4.6-3.2-8.3-5.6-161.3-100.9-374.7-31.8-447.1 144.2l-6.7 16c40.7-31.8 96.3-51.8 96.3-51.8s-19.9 27.2-35.1 47.6c-47.1 63-78 149.5-54.1 228.9 7.5 24.9 26.4 49 50.3 71-121.3 19.7-207.2 143.9-207.2 143.9l-116 136.8 169.4 35.3 96.5 3.5c51.6 15.5 117.1 26.6 199.1 26.6 242.5 0 413.1-159 449.1-329.9 2.8-13.4 5.7-26.8 8.8-40.1 11.3-49.6 34.4-173.2.3-245.9z" fill="none"></path></clipPath><linearGradient id="tailShadowGradient" x1="2539.72" y1="1739.67" x2="2539.72" y2="1283.42" gradientUnits="userSpaceOnUse"><stop offset="0" stop-color="#fff" stop-opacity="0"></stop><stop offset=".72" stop-color="#fff"></stop></linearGradient><linearGradient id="tailShadowGradient2" x1="2371.12" y1="1885.86" x2="2523.5" y2="1885.86" href="#tailShadowGradient" xlink:href="#tailShadowGradient"></linearGradient><linearGradient id="tailShadowGradient3" x1="2703.65" y1="1891.5" x2="2893.32" y2="1891.5" href="#tailShadowGradient" xlink:href="#tailShadowGradient"></linearGradient><linearGradient id="tailShadowGradient4" x1="2524.03" y1="1787.87" x2="2627.37" y2="1787.87" href="#tailShadowGradient" xlink:href="#tailShadowGradient"></linearGradient></defs><g clip-path="url(#tailShadowClipPath)"><path fill="none" d="M2841.2 2267.2l-937.3-21.3 265.6-916 742.4 60-70.7 877.3z"></path></g><g clip-path="url(#tailShadowClipPath)" style="mix-blend-mode:multiply"><path d="M2010.4 2076.9s112.9-156 137.5-146.1c-100.8 117.4-26.2 185.8 23 200.3 199.6 59 530.9 111 665.9-164.6l-219 299.4-649.5-3z" fill="#7f7f7f" opacity=".25" style="mix-blend-mode:multiply"></path><path d="M2238 1890.9c-25.5 5.8-25 6.1-25 6.1 3.6 3.7 35.6 103.9 139.1 118.9a6.9 6.9 0 0 0 7.3-9.5c-2.3-5.3-4.4-13-5.7-24.1" fill="#7f7f7f" opacity=".3" style="mix-blend-mode:multiply"></path><path d="M2628.8 1731.1s-19.6 101.4-52.6 138.4a114.9 114.9 0 0 1-69.7 37.5 3.6 3.6 0 0 1-4-4.3c2.3-13-2.2-28.3-2.2-28.3s-121.7 64.6-113.7 115.6c0 0-16-71.9 67.7-119.2s69.7-65.3 69.7-65.3l-1.7 54.7c56.8-11.1 106.5-129.1 106.5-129.1z" fill="#7f7f7f" opacity=".25" style="mix-blend-mode:multiply"></path><path d="M2195.3 1591.4c1-5.3 4.5-9.8 8-13.8a191.2 191.2 0 0 1 106.3-60.8 3.6 3.6 0 0 1 2.9 6.4 173.3 173.3 0 0 0-31.4 31.3c-6.1 7.8-11.5 16.3-18.9 22.9-13.2 11.9-31.1 16.9-48.3 21.6" fill="#7f7f7f" opacity=".25" style="mix-blend-mode:multiply"></path></g><g clip-path="url(#tailShadowClipPath)" style="mix-blend-mode:overlay"><path d="M2262.3 1500s151.6-146.4 378 7.5c93 66.9 162 232.2 162 232.2l14.7-29.2-59.7-377.6-233.3-49.5-150.6 20.2z" opacity=".3" fill="url(#tailShadowGradient)" style="mix-blend-mode:overlay"></path><path d="M2374.2 1931.5c4.8-27.9 20.8-44.5 43-62s47.5-30.9 70-48c16-12.1 28.1-22.6 34.1-39.4a1.2 1.2 0 0 1 2.3.5l-.7 14.7a75.2 75.2 0 0 1-1 13.8 49.5 49.5 0 0 1-8.9 19.2c-24.8 34-74.1 40.5-103.1 71-18.7 19.7-26.5 47.5-26.4 74.2 0 4 2.9 16.3-2.6 14.8-3.7-1-8-8.8-8.7-14.2-2.1-14.8-.6-29.9 2-44.6z" opacity=".3" fill="url(#tailShadowGradient2)" style="mix-blend-mode:overlay"></path><path d="M2842.4 1647.5c5.9 118.9-1.6 137.7-27.2 261.3-20 96.7-86.2 192.2-111.5 226.7 40.5-19.6 59.6-30.7 86.7-66.6s47.7-76.5 65.6-117.8c13.7-31.6 26.1-64.1 32.6-97.9 3.9-20.2 5.7-40.9 4.2-61.4s-6.8-42.4-12-63.3l-12.9-51.9" opacity=".3" fill="url(#tailShadowGradient3)" style="mix-blend-mode:overlay"></path><path d="M2616.4 1728.1c2.5-3.2 6.3-6.7 10-5 3.4 12.3-2.5 25.1-8.3 36.4-10.6 20.5-21.6 41.3-37.9 57.6a149.8 149.8 0 0 1-30.6 23.5c-2.2 1.3-23.3 16.1-25.4 11.4-1.1-2.6 21.2-20.7 23-22.9 17.8-20.8 34.4-37.4 48.5-59.3 8-12.3 11.6-29.9 20.7-41.7z" opacity=".3" fill="url(#tailShadowGradient4)" style="mix-blend-mode:overlay"></path></g></g></g><g id="tail"><g fill="none" stroke="#31323d" stroke-linecap="round" stroke-width="12.5"><path d="M2817.2 1710.6c-31.3-98.7-91-197.4-168.7-256.1-1.8-1.3-4.6-3.2-8.3-5.6-161.3-100.9-374.7-31.8-447.1 144.2l-6.7 16c40.7-31.8 96.3-51.8 96.3-51.8s-19.9 27.2-35.1 47.6c-47.1 63-78 149.5-54.1 228.9 20.6 68.7 128.7 131.6 186.3 158.8 4.1 2 8.5-1.6 6.6-5.7-9.7-21.4 6.3-60.3 19-78 15.9-22.3 42.2-34.2 66.2-47.4s48.6-30.9 55.7-57.3l-5 57.7c37.9-18.6 69.3-49.7 89.3-86.9a198.2 198.2 0 0 0 18.9-50.6" stroke-linejoin="round"></path><path d="M2036.6 2048.8s85.9-124.2 207.2-143.9" stroke-miterlimit="10"></path><path d="M2186.4 2224.4c51.6 15.5 117.1 26.6 199.1 26.6 242.5 0 413.1-159 449.1-329.9 2.8-13.4 5.7-26.8 8.8-40.1 11.5-49.7 34.6-173.3.4-246 0 0-4.8 35.4-37.9 97.8" stroke-linejoin="round"></path></g></g><g id="bodyFur"><clipPath id="furClipPath"><path d="M1717.4,967.2a241.5,241.5,0,0,1,13.7,36.8l16.7,65.1c7.6,32.4,19.5,65.2,43.6,88.3s53.4,39.9,79.7,60.6c90,71,134.4,191.2,118.8,304.8a216.3,216.3,0,0,0-72.9-76.1,126.4,126.4,0,0,1,25.7,66.1c-17.8-23.2-42.8-40.6-70.5-49.9h0l36,117.2,29.7,96.5,88.4,287.5a248.1,248.1,0,0,1-6.4,155.8l0.8,0.3c47.5,13.8,136.8,46.1,179.8,75.5,26.1,17.8,10.1,55.9-23.2,55.3l-261.5-5.1a246.8,246.8,0,0,1-65.4,28.1h0c2.8,13.3,12.3,21,28.1,21.9,18.2,1,23.7,18.6,24.5,25.5,2.3,21.2-5.8,34.7-27.9,36.9l-91.8,3a53.5,53.5,0,0,1-22.3-4,71.6,71.6,0,0,1-43.1-54.3l-3.5-20.7H1180.9l-5,26.6a71.4,71.4,0,0,1-8.8,23.9c-13.4,22.8-38.9,35.7-65.3,34.1l-84.3-5c-21.4-1.6-31.9-18.9-27.2-40.4,2.5-11.1,15.1-20.3,30.6-21.1,23.3-1.2,30.3-20.2,29.9-43.6l-0.2-3.4q-7-3.7-13.8-7.9L770,2251c-33.3.6-49.7-38.2-23.2-55.3,54-34.9,146.4-69.2,184.5-78.3l0.6-.3a248.9,248.9,0,0,1-12.6-117.5l60-315.5,17.1-89.7,22.2-116.6h0a194.9,194.9,0,0,0-45.8,61.9,195.9,195.9,0,0,1-12.1-91.8c-29,28-43.4,70.4-37.5,110.3-24.9-52.2-30.8-112.6-20.3-169.4s36.8-110.3,72.6-155.7c27.5-34.9,58.2-64.9,83.6-101.2a279.5,279.5,0,0,0,36.4-73.3h0a294.5,294.5,0,0,0,9.2-35.4,240.6,240.6,0,0,1,11.7-40.5l-1.2-.5c-35.7-28.7-68.4-55.4-104.1-84.1-9.7-7.8-20.2-17-21.5-29.4-1.7-17.5,15.7-30.7,32.2-36.6,30.4-10.8,64.3-9.4,95.3-.4a291.9,291.9,0,0,1,85.2,40.3l0.3,0.4a240.6,240.6,0,0,1,71.6-34.3l7.7-2.8c-7.8-12.3-20.7-26.1-41.9-36,0,0,48-47.3,118.7-5,0,0-13.9-74.7-69.4-76.7,0,0,121.4-43.7,189.4,56,0,0,17-35.7,3.3-51,0,0,76.2,25.4,63.8,109.8l8.6,2.6a240.7,240.7,0,0,1,72.7,30.3l3.4-3.1a291.9,291.9,0,0,1,81.5-47.3c30.1-11.5,63.8-15.8,95-7.7,17,4.4,35.4,16.2,35.2,33.7-0.2,12.5-9.8,22.5-18.9,31.1-33.1,31.6-71.5,64-104.6,95.6Z" fill="none"></path></clipPath><g clip-path="url(#furClipPath)"><path fill="#d1dadf" d="M725.2 550.5H2234.6000000000004V2374.59H725.2z"></path><path d="M1156.9,2405.5l71.1-358.8c16.2-81.8,100.1-177.6,222.2-177.6h2.1c93.9,0,203.7,76.8,219.2,162.3l63.8,352.3Z" fill="#b8916c"></path><path d="M1677.7 1913.8c8.3 7.9 20.4 11 31.8 10.1s22.3-5.4 32.3-11 17.4-11 23.3-19.2 9.1-18.9 6.5-28.7-9.4-16.3-16.4-22.7c-29.9-27.5-60.7-29.4-98.3-15.9-18 6.5-12 19.2-4.2 32.7C1662.6 1876 1663 1899.8 1677.7 1913.8zM1635.3 1697c-2.3 8.7-2.3 18.9 4 25.4s14.7 6.8 22.9 7.3l56.5 3.6a59.5 59.5 0 0 0 9.9.1 30.4 30.4 0 0 0 24.3-17.9 37.1 37.1 0 0 0 2.6-16.9 49.8 49.8 0 0 0-26.7-40.5C1693.7 1640.3 1645.6 1658.6 1635.3 1697zM1754.8 1633.4c.4 3.4 1.1 6.9 3.2 9.6s6.4 4.4 9.5 6.8 5.7 6.7 9.4 8.8 11.8 1.4 16.5-2.1 7.8-8.7 10.6-13.9 4.5-8.7 5.4-13.5.2-10.1-2.8-13.9a23 23 0 0 0-6.9-5.4c-8.2-4.7-28.8-14.8-38.6-11S1753.7 1624.2 1754.8 1633.4zM1900.2 1565.5c-8.5-5.3-19.7-8.7-28.4-3.7s-11.3 17.3-10.8 27.7c.2 4.1.9 8.6 4.2 11.2 6.6 5.3 16.9-2.3 24.7 1 2.2.9 3.9 2.6 5.9 3.8 4.8 3.1 11.3 3.6 16.3.8s7.7-9.3 5.7-14.7M1859 1638.7c-12 5.1-20.8 16-25.7 28.1s-6.2 25.3-6.5 38.3c-.4 16.4 1.7 34.9 14.4 45.3 8.4 6.8 19.8 8.6 30.6 8.5 8.7-.1 18.4-1.7 23.3-8.9s3.5-14.5 6-21.6c3.8-10.8 14.5-17.4 24.2-23.5s19.9-14.1 21.6-25.4C1952 1646.2 1881.7 1629.2 1859 1638.7zM1399.9 1748.9a36.4 36.4 0 0 0-28.5 29.4 19.7 19.7 0 0 0 .8 10.4c3.5 8.7 14.6 11.4 20.9 18.3s7.7 22.2 16.3 29.6c5.8 5 14.4 5.7 21.8 3.6s13.9-6.4 20.2-10.7c4.6-3.2 9.3-6.4 12.9-10.8a31.4 31.4 0 0 0 3.5-33.6c-6.7-13-20-13.7-30.9-20.7C1424.1 1756.3 1417.4 1745.7 1399.9 1748.9zM1948.7 1876.1c-8.6 3.4-16 9.5-22.5 16.2-8.7 8.9-16.3 19.4-19.1 31.5s-.2 26.1 9 34.4c6.1 5.5 14.1 8 22 10.1 17.3 4.6 35.4 7.9 53 4.6 37.9-7.2 51.5-43.1 37-76.9C2016.6 1868.6 1972.8 1866.5 1948.7 1876.1zM2039.7 2061.7c-6.7-12.4-13.9-25.3-25.3-33.6-16.7-12.1-41.6-11.4-57.6 1.6-6.7 5.4-11.7 12.5-16.1 19.8-8.6 14.3-15 30.4-15.1 47a29.5 29.5 0 0 0 1.8 11.4c2.3 5.6 7.1 9.8 11.2 14.3 8.2 9.2 13.8 20.7 22.8 29.1s23.9 12.9 33.5 5.2c3-2.4 5.2-5.7 7.2-9a186.1 186.1 0 0 0 19-43M1742.7 2248.7c9.6 5.2 22.3 2.5 29.9-5.3 17.4-17.9 3.1-64.9-25.8-52.8C1726.7 2199.1 1723.1 2238.1 1742.7 2248.7zM1881.4 2086.2c-2.4-11.1-8.1-21.7-16.9-28.8s-21.1-10.2-32-6.9-19.6 13.5-20 24.8c-.2 5.2 1.4 10.5 1 15.7-.7 10.6-8.6 19.2-12.4 29.1-7.7 19.9 4.6 45.1 25.1 51.3 5.7 1.7 12 2.1 17.5-.2s9.9-7.7 9.8-13.7M1725.5 2069.8a19.6 19.6 0 0 0 25.6 27.8 30.9 30.9 0 0 0 7.9-6.2c3.6-3.7 6.9-7.9 8-12.9a17.7 17.7 0 0 0-6.9-17.9C1749.3 2052.9 1731.9 2059.2 1725.5 2069.8zM1501 1727.7c-5.6 13.3-5.5 28.3-3.2 42.6 1.4 8.7 4.4 18.4 12.5 21.8 5 2.1 10.6 1.3 16 .8a122.6 122.6 0 0 1 30.7 1c8.5 1.3 17.1 3.6 25.6 2.2a30.2 30.2 0 0 0 21.4-44.5c-2.3-4.2-5.7-7.9-7.6-12.3-3.5-8-2-17.4-5.4-25.4s-9-11.4-15.5-14.8C1549.7 1685.5 1512.1 1701.1 1501 1727.7zM1197.5 1644a29.8 29.8 0 0 0 11.1 31.7c7.9 5.7 18.4 7.1 25.9 13.5s11 18.4 18.1 26.5c12.1 13.8 36.9 13.4 48.5-.8s9.3-33 6.9-50.3c-1.4-10.3-3.2-21.3-10.4-28.8-11.9-12.3-38.8-15.7-55.1-17.4C1224.5 1616.6 1202.9 1625.3 1197.5 1644zM1471.9 915.8a29.8 29.8 0 0 0-17.1 28.8c.8 9.7 6.4 18.7 6.3 28.5s-7 20.3-8.6 30.9c-2.8 18.2 13.5 36.9 31.9 36.6s31.2-14.2 42.9-27.1c7-7.7 14.3-16.1 15.3-26.4 1.8-17-12.9-39.8-22.2-53.4S1489.6 907.9 1471.9 915.8zM1248 1824c-4.6 8.2-11.8 14.6-17.2 22.3s-8.9 17.9-4.9 26.5 11.3 11.3 19.2 12.7c16.1 2.8 32.3-3.8 46.9-11.3 11.7-6 23.2-12.9 31.7-22.9s13.6-23.7 10.7-36.5c-4.4-19.1-30.3-36-49.3-38.2C1259.2 1773.7 1257.1 1807.8 1248 1824zM1120.7 1747.8c.2 9.2 2.4 18.9 9.3 25.1s19.7 7.4 30.4 7.4h8.1c10.5-.1 21.4-.2 31.1-4.5s17.8-13.7 17.2-24.2-7.8-17-15.6-22.2-16.7-8.8-23.9-14.8c-2.8-2.3-5.2-5-8.3-7C1146.3 1693 1120.3 1728.5 1120.7 1747.8zM1788.8 1946.1c-6.4-6.5-14.8-12.1-24-11.8-10.7.3-19.4 8.2-27.1 15.6l-5.9 5.6c-7.6 7.3-15.4 14.9-19.5 24.6s-3.5 22.2 4.2 29.4 17.4 7 26.6 5.4 18.2-5.1 27.5-5.7c3.6-.2 7.3 0 10.8-.6C1808 2003.5 1802.4 1959.9 1788.8 1946.1zM1100.5 1848.1c3 4.8 6.9 8.9 9.6 13.9s4.6 11.9 7 17.8 6.1 11.7 11.9 14.4c7.8 3.6 17.3.3 24-5.1 11.1-8.9 17.2-23.9 14.9-37.9-3.7-22.8-22.5-30.1-42.7-32.2C1107.4 1817 1087 1827 1100.5 1848.1zM997.6 1718c15.2.3 30.5 3.2 45.6 1.3a72.4 72.4 0 0 0 47.2-26.6c8-10.1 13.3-23.9 8.7-36-6.3-16.8-26.9-22.1-41.1-33.1-12.7-9.8-20.8-24.9-34.5-33.2s-27.9-8.5-41.6-4.2-25.5 13.5-34.4 24.8c-6.5 8.3-11.7 18.1-12.1 28.6-.3 7.4 1.8 14.6 3.8 21.7 4.7 16.4 7.1 43.3 16.9 57.3C963.9 1729.6 985.1 1717.8 997.6 1718zM1018.3 1824.4c4.4 8.3 8.3 17.1 9.1 26.5s-2.2 19.5-9.5 25.4c-10.5 8.7-25.9 6.4-39.3 9.2-10.3 2.1-20 7.5-30.5 7.9-14 .5-27.5-8.6-33.6-21.1-13-26.6 9-67.7 33.3-81.9C976.1 1774 1005.7 1800.9 1018.3 1824.4zM1008 1969.8c-3 12.3-1.6 27.3 8.6 34.8 11.8 8.7 29.1 3.4 42.4 9.4 7.5 3.4 13.6 10.4 21.7 11.7 12.4 2 22.6-9.8 28.3-21 6.9-13.4 11.8-28.2 11.4-43.3s-6.4-30.5-18.3-39.8C1068.6 1894.9 1016.3 1935.6 1008 1969.8zM1202.6 2160.3c-7-10.9-14.1-22-24.1-30.4s-23.3-13.6-36-10.9-23.4 15.3-21.3 28.1c1.2 7.2 6 13.3 9 20 9.2 20.5 1.6 46.8 14.5 65.3a34.8 34.8 0 0 0 27.6 14.6c9 .1 19.5-5.6 19-14.6M1099.7 2256.7c8.9-3.1 11.5-15.2 7.8-23.9-6.8-16-28.9-17.7-36.6-1.1S1084.7 2262 1099.7 2256.7zM914 2054.1c11.3-7.1 26.4-6.1 38 .5s19.9 17.8 25.4 30c2.6 5.9 4.7 12 8.4 17.3 5.1 7.3 12.9 12.2 18.6 19 8.6 10.3 11.9 23.9 14 37.1 1.8 11.4 2.9 23.5-1.6 34.1s-16.3 19-27.4 15.8c-8.5-2.4-13.9-10.4-18.7-17.9l-15.7-24.6M966.3 1976.4a27.2 27.2 0 0 0 2.8-10.6c.3-7.1-3.1-14-12.9-17.9C906 1927.7 938.8 2033.4 966.3 1976.4zM1831 1952.6c-3.2 6.8-2 15.7 3.7 20.5a21.7 21.7 0 0 0 9.3 4.3 38.4 38.4 0 0 0 27.9-4.3 9.7 9.7 0 0 0 3.8-3.4 10.8 10.8 0 0 0 1-4.6c.3-5.1.4-10.5-1.7-15.2C1867.2 1932.1 1838.4 1937.2 1831 1952.6zM1933.1 1772.7c-5.1 10.8-3.1 25 5.9 32.7 4.2 3.5 9.4 5.6 14.8 6.8a61.2 61.2 0 0 0 44.5-6.9c2.3-1.4 4.7-3 6-5.4s1.4-4.8 1.6-7.4c.5-8.2.6-16.7-2.7-24.2C1990.7 1740 1944.8 1748.1 1933.1 1772.7zM1776.9 1761.5a18.6 18.6 0 0 0-13.8 6.9 30.6 30.6 0 0 0-5.9 11.6c-1.8 7.2.3 15.7 6.5 19.8a21.7 21.7 0 0 0 10.6 3.2c11.1.8 22.9-3.4 29.3-12.4l.8-1.2c7.9-12.7-2.3-29-17.2-28.4zM1380.1 965.9a28.5 28.5 0 0 0-21.2 10.6 46.9 46.9 0 0 0-9.1 17.7c-2.7 11 .5 24.1 9.9 30.4 4.8 3.2 10.6 4.4 16.3 4.9 17 1.2 35.1-5.2 45-19l1.2-1.8c12.1-19.5-3.5-44.5-26.4-43.5zM1141.4 2039a18.6 18.6 0 0 0-13.8 6.9 30.6 30.6 0 0 0-5.9 11.6c-1.8 7.2.3 15.7 6.5 19.8a21.7 21.7 0 0 0 10.6 3.2c11.1.8 22.9-3.4 29.3-12.4l.8-1.2c7.9-12.7-2.3-29-17.2-28.4zM1575.1 919.7c1.5 5.7 0 11.6-.2 17.5-.3 15 9.8 29.6 23.9 34.6 19.8 7 41-4.1 58.3-16 8.1-5.6 16.3-11.7 21.4-20.1s6.5-19.9.9-28c-10.2-14.8-32.5-28.1-47.4-38.1-11.4-7.7-25.3-15.2-39.4-15.9-12.4-.6-22.1 4.7-26.9 16.4C1557.6 890 1569.2 902.2 1575.1 919.7zM1434.3 876.5a23.1 23.1 0 0 0 14 10.4c10.8 3 23.6-1.8 28.7-11.7s.6-24.1-9.9-28.1c-3.6-1.4-7.6-1.7-11.5-1.8s-8.2-.2-12 1C1432.2 849.6 1428.9 866.9 1434.3 876.5zM1285.9 940.6a27.4 27.4 0 0 0 5 10.3c6.1 7.2 17.1 8.5 26.2 6.1s17.2-7.8 25.7-12 18.7-7.8 27-13.5 15.3-14.6 15.2-24.7c0-7.7-4.2-14.9-9.9-20.1s-12.8-8.5-20-11.2C1312.1 859.3 1272.8 894.7 1285.9 940.6zM1211 959.3c7.2-4.6 12-12.1 16.6-19.4 5.6-9 11.4-18.3 14-28.6s2.1-18.4 1.3-27.7c-.4-4.7-1-9.6-3.6-13.5-4.6-6.9-13.9-8.7-22.2-9.8a7.9 7.9 0 0 0-8.4 2.5l-40.8 38c-9.9 9.2-26.7 20-26.7 35.2C1141.1 965.1 1192.1 971.4 1211 959.3z" fill="#4a4855"></path><path d="M1716.4 2296.1c37-4.9 73.5-16.9 110.7-14.6a80.5 80.5 0 0 1 19.9 3.3c7.1 2.3 13.7 6 20.2 9.7 12.8 7.2 27 16.3 29.5 30.9 2.1 12.3-5.6 24.6-15.9 31.5s-22.9 9.5-35.2 11.5c-26.2 4.2-53.5 6.3-79-.8s-49.4-25-57.7-50.3M2020.7 2120.2L1984.1 2185.6 1915.7 2245.9 2177.3 2251 2204.2 2240.6 2212.9 2213.5 2203.3 2197.9 2125 2155.5 2020.7 2120.2zM928.3 2118.8L964.8 2184.2 1033.2 2244.4 771.6 2249.6 739.2 2239 736 2212.1 745.6 2196.5 823.9 2154.1 928.3 2118.8zM1045.3 2289.8a90.2 90.2 0 0 1 22-7.2c8.7-1.6 17.6-2 26.4-2.3 13.3-.5 26.7-1 39.9.9s26.3 6.5 36.5 15c2.6 2.2 5.2 4.9 5.8 8.3s-.3 5.3-1.2 7.8c-6 17.6-17.1 33.6-32 44.7s-33.6 17.3-52.2 16.3a149.9 149.9 0 0 1-18.5-2.6l-46.4-8.4c-8.4-1.5-16.9-3.1-24.6-7s-14.3-10.4-16.2-18.8 1.5-17.8 7.8-24 14.9-9.4 23.7-10.3" fill="#b8916c"></path><path d="M1178.5 1964.5a36.5 36.5 0 0 0 17.7 36.5c3.5 2 7.8 3.4 11.6 2s6.6-5.7 8.4-9.8a122.9 122.9 0 0 0 6.6-18.3c2.5-9.1 3.7-19.5-1.7-27.2-3.8-5.5-10.7-8.5-17.3-8.4C1189.8 1939.5 1180.5 1951.4 1178.5 1964.5zM1400.7 1681.5a20.6 20.6 0 0 0 7.4 19.4c6.2 4.9 14.5 5.7 22.4 6.4l11.7 1c7.7.6 16.5 1 22.2-4.4 4.1-3.8 5.4-9.7 6-15.2a19 19 0 0 0-.4-7.9c-1.8-5.5-7.5-8.6-12.7-11l-14.6-6.4a33.1 33.1 0 0 0-9.3-2.9C1421.2 1659.3 1402.9 1668.9 1400.7 1681.5zM1099.2 1602.8a49.2 49.2 0 0 0 35.9 11c3.6-.3 7.2-1.1 10.3-3s6.1-6.5 8.1-10.5c4.2-8 7.9-17.3 4.7-25.7a25.2 25.2 0 0 0-5-7.6c-13.7-15.1-37.3-19.8-56-12C1075.3 1564.2 1084.1 1589.9 1099.2 1602.8zM1853.4 2200.5c11.7-7.5 28.6-5.4 38.1 4.8 5.1 5.5 8.1 12.9 13.8 17.7 2.4 2 5.1 3.5 7.3 5.7s3.7 5.4 2.9 8.3-2.9 4.2-5 5.7c-15.4 11.3-31.1 22.9-49.2 28.9-4.5 1.5-10.4 2.2-13.2-1.6s-.8-8 .8-11.8M1488.8 1639.9a20.6 20.6 0 0 0 20.5 9.6c7.5-1.2 13.9-6.8 17.2-13.6s3.9-14.8 2.7-22.3c-.5-3.5-1.5-7.2-4-9.8-4-4.1-10.6-4.1-16-2.5C1494.7 1605.7 1479.7 1624.5 1488.8 1639.9zM1442.1 1620c16.9-18.1-3.2-45-21.7-24.5C1405.4 1612.2 1426.1 1637.2 1442.1 1620zM1220.9 1580.6c7.5 3.7 16.8 2.6 23.8-2s11.6-12.2 13.5-20.3a23 23 0 0 0 0-11.8c-1.2-3.8-4-7.3-7.8-8.4-5.9-1.9-12 2-17.9 3.8-9.2 2.7-25.4 2.4-25.5 15.8C1207 1565.6 1213.9 1577.1 1220.9 1580.6zM1703.5 1626.4c6.6-2.8 10.1-8.9 8.5-14.4-3.1-11-28.6-17.4-35.1-5S1687.2 1633.5 1703.5 1626.4zM1367.9 1736.8a18.1 18.1 0 0 0 8.1-18.8c-2.9-14.3-27.1-22.7-33.2-6.5C1337.2 1726.1 1352.4 1746 1367.9 1736.8zM1048.5 2097.2c2.4-6.6 8.6-11.8 15.6-12.3s14.2 4.2 16.1 10.9-.4 11.8-1.3 17.8a45.3 45.3 0 0 0 5.4 28.8c2.5 4.4 5.8 8.4 7.5 13.1s1.7 10.6-1.8 14.2-8.2 3.6-12.7 3.8-15-4.3-18.7-6.4C1043.7 2158.4 1037.9 2123.9 1048.5 2097.2zM1792.7 1574.4l13 4.1c2.8.9 5.7 1.7 8.6 1 6.3-1.6 9.1-10.5 6.8-17s-8-10.7-13.6-14c-8.1-4.7-27.3-16.4-33.2-2.9C1767.5 1561.1 1781.4 1570.9 1792.7 1574.4zM1647.5 1792.9c3.9 1.1 8 .7 12 .4l12.5-1.1 20.9-1.8c6-.5 12.9-1.7 15.7-7 15.2-29.8-57.4-38.6-71.1-16.3C1631.7 1776.3 1636.9 1790 1647.5 1792.9zM1561.8 1615.1c-3.7 8.7-2.9 20.1 4.4 26.2s17.8 5.5 23.8 12.2 6.1 17.1 13.9 19.9 12.8-2.9 17-8.2c7.8-9.7 13.5-21.7 13.4-34.1a41.6 41.6 0 0 0-16.9-33c-9.1-6.6-23.1-10.3-34.1-6.6C1574.4 1594.5 1565.4 1606.6 1561.8 1615.1zM1603.3 850.4l50.8 36.4 49.3 52.7 49.3 76.7 38.9 63.3c5.2-8.1 1193.7-742.5 1192.4-747.9-2-8.7 0-319.9 0-319.9H1959.8zM1222.2 859.5L818 11.6 18.2 11.6 18.2 914.8 1064.2 1091.3 1103 1001.3 1131.2 944.4 1156 914.8 1194.3 879.5 1222.2 859.5zM1564.9 1039.5c-13.2 7.1-22.6 22.8-18.6 37.3 3.1 11.2 13.5 19.4 24.8 22.5 16 4.4 34.7-1 44.4-14.4C1642.2 1047.4 1596.5 1022.4 1564.9 1039.5zM1272.4 999.9c10.6 2.3 18.6 10.7 25.7 18.9 11.7 13.5 23.2 28 27.4 45.4s-.8 38.2-16.2 47.3c-10.8 6.4-25.1 5.8-36.1-.3s-18.8-17.2-22.4-29.3c-3.1-10.4-3.3-21.3-5.3-32s-15.8-25.3-10.1-36.1S1262.1 997.7 1272.4 999.9zM1825.2 1834.3a30.4 30.4 0 0 0-3.8 33.9 16.4 16.4 0 0 0 5.8 6.5c6.8 3.9 15.4.1 23.1 1.4 9.3 1.6 16.4 10.7 25.9 11.2 6.4.3 12.4-3.6 16.2-8.7s5.9-11.3 7.9-17.4c1.4-4.5 2.9-9 3-13.7a26.2 26.2 0 0 0-14.8-24c-11.1-5.1-20.2 1.2-31 2.1C1844.9 1826.8 1835.1 1823.2 1825.2 1834.3zM1606.4 1859.4c1.6 4.7 2.4 10.6-1.2 13.8s-11.1 1.1-16.3-1.4a99.8 99.8 0 0 0-21.6-7.4c-12.3-2.7-29.3-5-30.7-20.7-.9-9.8 5.7-15.2 14.7-17C1575.9 1821.7 1598.5 1836.5 1606.4 1859.4zM1034.9 1778.6c1.4 9.6 9.4 17.8 18.9 19.6 19.1 3.8 42-21.7 25.1-37.6C1063.8 1746.4 1031.5 1754.8 1034.9 1778.6z" fill="#4a4855"></path></g></g><g id="shadow" style="mix-blend-mode:multiply"><defs><clipPath id="shadowClipPath"><path d="M1717.4,967.2a241.5,241.5,0,0,1,13.7,36.8l16.7,65.1c7.6,32.4,19.5,65.2,43.6,88.3s53.4,39.9,79.7,60.6c90,71,134.4,191.2,118.8,304.8a216.3,216.3,0,0,0-72.9-76.1,126.4,126.4,0,0,1,25.7,66.1c-17.8-23.2-42.8-40.6-70.5-49.9h0l36,117.2,29.7,96.5,88.4,287.5a248.1,248.1,0,0,1-6.4,155.8l0.8,0.3c47.5,13.8,136.8,46.1,179.8,75.5,26.1,17.8,10.1,55.9-23.2,55.3l-261.5-5.1a246.8,246.8,0,0,1-65.4,28.1h0c2.8,13.3,12.3,21,28.1,21.9,18.2,1,23.7,18.6,24.5,25.5,2.3,21.2-5.8,34.7-27.9,36.9l-91.8,3a53.5,53.5,0,0,1-22.3-4,71.6,71.6,0,0,1-43.1-54.3l-3.5-20.7H1180.9l-5,26.6a71.4,71.4,0,0,1-8.8,23.9c-13.4,22.8-38.9,35.7-65.3,34.1l-84.3-5c-21.4-1.6-31.9-18.9-27.2-40.4,2.5-11.1,15.1-20.3,30.6-21.1,23.3-1.2,30.3-20.2,29.9-43.6l-0.2-3.4q-7-3.7-13.8-7.9L770,2251c-33.3.6-49.7-38.2-23.2-55.3,54-34.9,146.4-69.2,184.5-78.3l0.6-.3a248.9,248.9,0,0,1-12.6-117.5l60-315.5,17.1-89.7,22.2-116.6h0a194.9,194.9,0,0,0-45.8,61.9,195.9,195.9,0,0,1-12.1-91.8c-29,28-43.4,70.4-37.5,110.3-24.9-52.2-30.8-112.6-20.3-169.4s36.8-110.3,72.6-155.7c27.5-34.9,58.2-64.9,83.6-101.2a279.5,279.5,0,0,0,36.4-73.3h0a294.5,294.5,0,0,0,9.2-35.4,240.6,240.6,0,0,1,11.7-40.5l-1.2-.5c-35.7-28.7-68.4-55.4-104.1-84.1-9.7-7.8-20.2-17-21.5-29.4-1.7-17.5,15.7-30.7,32.2-36.6,30.4-10.8,64.3-9.4,95.3-.4a291.9,291.9,0,0,1,85.2,40.3l0.3,0.4a240.6,240.6,0,0,1,71.6-34.3l7.7-2.8c-7.8-12.3-20.7-26.1-41.9-36,0,0,48-47.3,118.7-5,0,0-13.9-74.7-69.4-76.7,0,0,121.4-43.7,189.4,56,0,0,13-40.7-.7-56,0,0,80.2,30.4,67.8,114.8l8.6,2.6a240.7,240.7,0,0,1,72.7,30.3l3.4-3.1a291.9,291.9,0,0,1,81.5-47.3c30.1-11.5,63.8-15.8,95-7.7,17,4.4,35.4,16.2,35.2,33.7-0.2,12.5-9.8,22.5-18.9,31.1-33.1,31.6-71.5,64-104.6,95.6Z" fill="none"></path></clipPath><linearGradient id="shadowGradient" x1="1180.91" y1="2153.98" x2="1714.46" y2="2153.98" gradientUnits="userSpaceOnUse"><stop offset="0" stop-color="gray"></stop><stop offset=".27" stop-color="#7d7d7d"></stop><stop offset=".46" stop-color="#747474"></stop><stop offset=".64" stop-color="#646464"></stop><stop offset=".8" stop-color="#4d4d4d"></stop><stop offset=".95" stop-color="#303030"></stop><stop offset="1" stop-color="#242424"></stop></linearGradient><linearGradient id="shadowGradient2" x1="1698.67" y1="781.55" x2="1698.67" y2="918.52" gradientTransform="matrix(-.98 .19 .19 .98 2599.64 -240.56)" gradientUnits="userSpaceOnUse"><stop offset="0" stop-color="gray"></stop><stop offset=".14" stop-color="#797979"></stop><stop offset=".35" stop-color="#646464"></stop><stop offset=".6" stop-color="#434343"></stop><stop offset=".89" stop-color="#141414"></stop><stop offset="1"></stop></linearGradient><linearGradient id="shadowGradient3" x1="967.21" y1="1454.12" x2="967.21" y2="2254.41" href="#shadowGradient" xlink:href="#shadowGradient"></linearGradient><linearGradient id="shadowGradient4" x1="1971.82" y1="1970.17" x2="1971.82" y2="2305.13" href="#shadowGradient" xlink:href="#shadowGradient"></linearGradient><linearGradient id="shadowGradient5" x1="712.25" y1="955.89" x2="712.25" y2="1092.86" gradientTransform="rotate(8.1 1951.22123894 7715.31858407)" href="#shadowGradient2" xlink:href="#shadowGradient2"></linearGradient><linearGradient id="shadowGradient6" x1="1085.95" y1="963.75" x2="1293.19" y2="963.75" href="#shadowGradient" xlink:href="#shadowGradient"></linearGradient><linearGradient id="shadowGradient7" x1="969.11" y1="1470.94" x2="1062.29" y2="1470.94" href="#shadowGradient" xlink:href="#shadowGradient"></linearGradient><linearGradient id="shadowGradient8" x1="912.44" y1="1442.16" x2="989.13" y2="1442.16" href="#shadowGradient" xlink:href="#shadowGradient"></linearGradient><linearGradient id="shadowGradient9" x1="1296.49" y1="775.18" x2="1404.91" y2="775.18" href="#shadowGradient" xlink:href="#shadowGradient"></linearGradient><linearGradient id="shadowGradient10" x1="1474.19" y1="771.29" x2="1513.42" y2="771.29" href="#shadowGradient" xlink:href="#shadowGradient"></linearGradient><linearGradient id="shadowGradient11" x1="1235.56" y1="826.93" x2="1306.12" y2="826.93" href="#shadowGradient" xlink:href="#shadowGradient"></linearGradient></defs><path fill="none" d="M1.8 0H3001.8V3000H1.8z"></path><g clip-path="url(#shadowClipPath)"><path d="M1213.2,2110.7c-22.2,91.8,60.8,117.5,83.2,119.2,41.2,3.1,203.6,5.6,287.7-7.9,43.8-7,109.2-65.4,87.3-196.3l43,256.8H1180.9Z" opacity=".2" fill="url(#shadowGradient)" style="mix-blend-mode:multiply"></path><path d="M1050.7,1454.1s0.1,2.1.4,5.9a840.4,840.4,0,0,1-6.6,161.1c-17.7,128.4-31.5,243.2-39.3,305.8a909.6,909.6,0,0,0-6.8,98.4v3.4c23.5,26,47.6,88.8,52.6,176.8l1.3,49s-31.3-.8-81-0.8c-62,0-110.8-111.7-79.2-278.2,28.4-149.5,80.7-435.8,80.7-435.8S995.5,1484.1,1050.7,1454.1Z" opacity=".2" fill="url(#shadowGradient3)" style="mix-blend-mode:multiply"></path><path d="M1854.3,2157.4s29.9-91.4,66.3-124.9c-39.4,75,14.1,92.7,28.1,87.7,53.7-19.2,75-66.7,79.2-150l65.3,116.3s-55,256-204,214l-38.7-18.1Z" opacity=".2" fill="url(#shadowGradient4)" style="mix-blend-mode:multiply"></path><path d="M1173.5,887s-88.1-44.3-139.7-28.2c-25,7.8-32,21.9-30.2,37.8,10.8,12.7,29.8,13.9,40.1,29.4,25.8,26.5,71.4,56.2,71.4,56.2l23.8-47.8Z" opacity=".4" fill="url(#shadowGradient2)" style="mix-blend-mode:multiply"></path><path d="M1651.1,875.6s86-48.2,138.3-34.4c25.3,6.7,32.9,20.4,31.9,36.4-10.2,13.1-29.2,15.3-38.7,31.2-24.6,27.7-68.8,59.4-68.8,59.4l-26-46.6Z" opacity=".4" fill="url(#shadowGradient5)" style="mix-blend-mode:multiply"></path><path d="M1293.2,863.8s-138.6,62.4-207.2,228.5c0,0,22.2-217.5,195.8-257.1Z" opacity=".2" fill="url(#shadowGradient6)" style="mix-blend-mode:multiply"></path><path d="M969.1,1536.9c4.2-40.3,20.5-67.8,47.6-97.8,7.3-8,45.5-34.1,45.5-34.1s-3.4,39.7-9,47.6c-7.8,11.2-21.1,13.1-32.8,20.2s-17.7,20.8-26.3,31.3" opacity=".2" fill="url(#shadowGradient7)" style="mix-blend-mode:multiply"></path><path d="M919.5,1556.8c-7.4-38.7-10.4-78.8-2.2-117.4s39.7-89,71.8-111.9c-24.5,65.1-25.7,91.7-34.5,133.2" opacity=".2" fill="url(#shadowGradient8)" style="mix-blend-mode:multiply"></path><path d="M1296.5,714.6c31.1-.1,60.6,17.5,79.5,42.3,16.2,21.3,25.1,47.3,28.9,73.9a4.3,4.3,0,0,1-7.3,3.6c-7-7.3-14.7-14.9-23.1-21.1a97.9,97.9,0,0,1-27-30.4,2.4,2.4,0,0,0-1.9-1.3c-2.1-.1-0.2,2.8.2,1.5" opacity=".2" fill="url(#shadowGradient9)" style="mix-blend-mode:multiply"></path><path d="M1474.2,743.5a212.7,212.7,0,0,1,7.4,81.7,3.3,3.3,0,0,0,6.1,2.2c7-10.6,13.8-20.8,19.4-32.2a59.9,59.9,0,0,0-29.2-81.4" opacity=".2" fill="url(#shadowGradient10)" style="mix-blend-mode:multiply"></path><path d="M1235.6,789.8c18.1-4,38.2-.6,52.6,11.1s21.8,32.2,16.1,49.8c-2.1,6.6-6.6,13.1-13.3,14.9-7.4-16.8-11-37.8-27.4-46.2" opacity=".2" fill="url(#shadowGradient11)" style="mix-blend-mode:multiply"></path></g></g><g id="highlight" style="mix-blend-mode:overlay"><defs><clipPath id="highlightClipPath"><path d="M1717.4,967.2a241.5,241.5,0,0,1,13.7,36.8l16.7,65.1c7.6,32.4,19.5,65.2,43.6,88.3s53.4,39.9,79.7,60.6c90,71,134.4,191.2,118.8,304.8a216.3,216.3,0,0,0-72.9-76.1,126.4,126.4,0,0,1,25.7,66.1c-17.8-23.2-42.8-40.6-70.5-49.9h0l36,117.2,29.7,96.5,88.4,287.5a248.1,248.1,0,0,1-6.4,155.8l0.8,0.3c47.5,13.8,136.8,46.1,179.8,75.5,26.1,17.8,10.1,55.9-23.2,55.3l-261.5-5.1a246.8,246.8,0,0,1-65.4,28.1h0c2.8,13.3,12.3,21,28.1,21.9,18.2,1,23.7,18.6,24.5,25.5,2.3,21.2-5.8,34.7-27.9,36.9l-91.8,3a53.5,53.5,0,0,1-22.3-4,71.6,71.6,0,0,1-43.1-54.3l-3.5-20.7H1180.9l-5,26.6a71.4,71.4,0,0,1-8.8,23.9c-13.4,22.8-38.9,35.7-65.3,34.1l-84.3-5c-21.4-1.6-31.9-18.9-27.2-40.4,2.5-11.1,15.1-20.3,30.6-21.1,23.3-1.2,30.3-20.2,29.9-43.6l-0.2-3.4q-7-3.7-13.8-7.9L770,2251c-33.3.6-49.7-38.2-23.2-55.3,54-34.9,146.4-69.2,184.5-78.3l0.6-.3a248.9,248.9,0,0,1-12.6-117.5l60-315.5,17.1-89.7,22.2-116.6h0a194.9,194.9,0,0,0-45.8,61.9,195.9,195.9,0,0,1-12.1-91.8c-29,28-43.4,70.4-37.5,110.3-24.9-52.2-30.8-112.6-20.3-169.4s36.8-110.3,72.6-155.7c27.5-34.9,58.2-64.9,83.6-101.2a279.5,279.5,0,0,0,36.4-73.3h0a294.5,294.5,0,0,0,9.2-35.4,240.6,240.6,0,0,1,11.7-40.5l-1.2-.5c-35.7-28.7-68.4-55.4-104.1-84.1-9.7-7.8-20.2-17-21.5-29.4-1.7-17.5,15.7-30.7,32.2-36.6,30.4-10.8,64.3-9.4,95.3-.4a291.9,291.9,0,0,1,85.2,40.3l0.3,0.4a240.6,240.6,0,0,1,71.6-34.3l7.7-2.8c-7.8-12.3-20.7-26.1-41.9-36,0,0,48-47.3,118.7-5,0,0-13.9-74.7-69.4-76.7,0,0,121.4-43.7,189.4,56,0,0,13-40.7-.7-56,0,0,80.2,30.4,67.8,114.8l8.6,2.6a240.7,240.7,0,0,1,72.7,30.3l3.4-3.1a291.9,291.9,0,0,1,81.5-47.3c30.1-11.5,63.8-15.8,95-7.7,17,4.4,35.4,16.2,35.2,33.7-0.2,12.5-9.8,22.5-18.9,31.1-33.1,31.6-71.5,64-104.6,95.6Z" fill="none"></path></clipPath><linearGradient id="highlightGradient" x1="1982.83" y1="2256.39" x2="1982.83" y2="1456.14" gradientUnits="userSpaceOnUse"><stop offset="0" stop-color="#fff" stop-opacity="0"></stop><stop offset=".72" stop-color="#fff"></stop></linearGradient><linearGradient id="highlightGradient2" x1="1676.83" y1="1173.88" x2="1676.83" y2="834.22" href="#highlightGradient" xlink:href="#highlightGradient"></linearGradient><linearGradient id="highlightGradient3" x1="908.88" y1="1853.92" x2="1039" y2="1853.92" href="#highlightGradient" xlink:href="#highlightGradient"></linearGradient><linearGradient id="highlightGradient4" x1="2116.32" y1="2248.97" x2="2116.32" y2="2113.28" href="#highlightGradient" xlink:href="#highlightGradient"></linearGradient><linearGradient id="highlightGradient5" x1="1044.74" y1="2253.08" x2="1044.74" y2="2117.39" gradientTransform="matrix(-1 0 0 1 1878.82 0)" href="#highlightGradient" xlink:href="#highlightGradient"></linearGradient><linearGradient id="highlightGradient6" x1="1793.84" y1="905.71" x2="1793.84" y2="719.86" gradientTransform="rotate(-43.1 1804.48754992 883.27524864)" href="#highlightGradient" xlink:href="#highlightGradient"></linearGradient><linearGradient id="highlightGradient7" x1="1388.35" y1="547.46" x2="1388.35" y2="361.61" gradientTransform="matrix(-.7 -.71 -.71 .7 2379.32 1527.44)" href="#highlightGradient" xlink:href="#highlightGradient"></linearGradient><linearGradient id="highlightGradient8" x1="1791.24" y1="1299.2" x2="2064.4" y2="1299.2" href="#highlightGradient" xlink:href="#highlightGradient"></linearGradient><linearGradient id="highlightGradient9" x1="1854.92" y1="1450.16" x2="1941.81" y2="1450.16" href="#highlightGradient" xlink:href="#highlightGradient"></linearGradient></defs><g clip-path="url(#highlightClipPath)" opacity=".3"><path d="M1886.6,1468.5c56.9,249.1,235.5,405.7,252.9,497.1,21.8,114.7-96.5,75.8-117.2,147.7-9.5,32.9-72.5,107.6-72.5,107.6l-61.1,35.5s127.4-81.3,81.2-286c-19.5-86.7-79-277.4-111.6-379.9q-18.6-58.4-31.3-118.3-1.6-7.5-3.5-16" fill="url(#highlightGradient)" style="mix-blend-mode:overlay"></path><path d="M1682.7,915.9c-20.7-36.8-78.6-66.4-129.5-81.7l-9,14.9s58.8,19.7,82.5,49.4l4.1,5c7.9,9.3,40.8,52.9,96.8,193.7,12.2,30.8,56.9,51.2,79.7,75.2C1828,1194.5,1701.7,949.7,1682.7,915.9Z" fill="url(#highlightGradient2)"></path><path d="M1039,1462.1l-12.2,8.1-25,16.7s-141,524.6-75.7,624c0,0,42.1,98.3,110.7,134.9-66.7-90.9-116.7-144.9-96.7-256.9S1039,1462.1,1039,1462.1Z" fill="url(#highlightGradient3)"></path><path d="M1999.2,2162.4s113.2,21.1,98.4,83.6l92.6,3,43.3-6.5-4.3-68.5-206.8-60.7Z" fill="url(#highlightGradient4)"></path><path d="M951.2,2166.5s-113.2,21.1-98.4,83.6l-92.6,3-43.3-6.5,4.3-68.5,206.8-60.7Z" opacity=".7" fill="url(#highlightGradient5)"></path><path d="M1632.5,868.9s75-44.5,115.2-47c43.6-2.6,70.4-2,85.9,39,11.7,31,36.1-11.5,36.1-11.5l-52.5-90-204,80Z" fill="url(#highlightGradient6)"></path><path d="M1187.5,883.7s-61-40.2-101-44.3c-43.4-4.5-70.2-5-87.5,35.3-13,30.4-35.6-13.1-35.6-13.1l56.3-87.7,200.4,88.7Z" fill="url(#highlightGradient7)"></path><path d="M1791.2,1167.2c106.3,83.4,177.8,209.7,194.8,343.8,1,8.1,3.2,17.8,10.9,20.2s14.1-3.7,18.9-9.4c19.4-23.4,30-52.9,37.1-82.4,16.5-68.3,16-141.6-8-207.7s-72.5-124.2-136.4-153.5c-19.8-9.1-42.7-15.4-63.2-8" fill="url(#highlightGradient8)" style="mix-blend-mode:overlay"></path><path d="M1855.7,1407.2a2.5,2.5,0,0,1,3.2-3.9c5,3.3,9.9,6.6,15,9.6,17.1,10.2,34.6,20.6,47.5,35.8,5,5.9,28.5,42.7,17.5,48.1s-29.3-32.2-34.7-37.6C1888.1,1443.3,1872.8,1423.7,1855.7,1407.2Z" fill="url(#highlightGradient9)" style="mix-blend-mode:overlay"></path></g></g><g id="bodyMask"><path d="M1717.4,967.2a241.5,241.5,0,0,1,13.7,36.8l16.7,65.1c7.6,32.4,19.5,65.2,43.6,88.3s53.4,39.9,79.7,60.6c90,71,134.4,191.2,118.8,304.8a216.3,216.3,0,0,0-72.9-76.1,126.4,126.4,0,0,1,25.7,66.1c-17.8-23.2-42.8-40.6-70.5-49.9h0l36,117.2,29.7,96.5,88.4,287.5a248.1,248.1,0,0,1-6.4,155.8l0.8,0.3c47.5,13.8,136.8,46.1,179.8,75.5,26.1,17.8,10.1,55.9-23.2,55.3l-261.5-5.1a246.8,246.8,0,0,1-65.4,28.1h0c2.8,13.3,12.3,21,28.1,21.9,18.2,1,23.7,18.6,24.5,25.5,2.3,21.2-5.8,34.7-27.9,36.9l-91.8,3a53.5,53.5,0,0,1-22.3-4,71.6,71.6,0,0,1-43.1-54.3l-3.5-20.7H1180.9l-5,26.6a71.4,71.4,0,0,1-8.8,23.9c-13.4,22.8-38.9,35.7-65.3,34.1l-84.3-5c-21.4-1.6-31.9-18.9-27.2-40.4,2.5-11.1,15.1-20.3,30.6-21.1,23.3-1.2,30.3-20.2,29.9-43.6l-0.2-3.4q-7-3.7-13.8-7.9L770,2251c-33.3.6-49.7-38.2-23.2-55.3,54-34.9,146.4-69.2,184.5-78.3l0.6-.3a248.9,248.9,0,0,1-12.6-117.5l60-315.5,17.1-89.7,22.2-116.6h0a194.9,194.9,0,0,0-45.8,61.9,195.9,195.9,0,0,1-12.1-91.8c-29,28-43.4,70.4-37.5,110.3-24.9-52.2-30.8-112.6-20.3-169.4s36.8-110.3,72.6-155.7c27.5-34.9,58.2-64.9,83.6-101.2a279.5,279.5,0,0,0,36.4-73.3h0a294.5,294.5,0,0,0,9.2-35.4,240.6,240.6,0,0,1,11.7-40.5l-1.2-.5c-35.7-28.7-68.4-55.4-104.1-84.1-9.7-7.8-20.2-17-21.5-29.4-1.7-17.5,15.7-30.7,32.2-36.6,30.4-10.8,64.3-9.4,95.3-.4a291.9,291.9,0,0,1,85.2,40.3l0.3,0.4a240.6,240.6,0,0,1,71.6-34.3l7.7-2.8c-7.8-12.3-20.7-26.1-41.9-36,0,0,48-47.3,118.7-5,0,0-13.9-74.7-69.4-76.7,0,0,121.4-43.7,189.4,56,0,0,17-35.7,3.3-51,0,0,76.2,25.4,63.8,109.8l8.6,2.6a240.7,240.7,0,0,1,72.7,30.3l3.4-3.1a291.9,291.9,0,0,1,81.5-47.3c30.1-11.5,63.8-15.8,95-7.7,17,4.4,35.4,16.2,35.2,33.7-0.2,12.5-9.8,22.5-18.9,31.1-33.1,31.6-71.5,64-104.6,95.6Z" fill="none"></path></g><g id="body"><path d="M1850.5 2273.9c130.6-34.8 214.8-171.9 175.8-309.9l-153.4-498.9M1180.9 2282.4L1714.5 2282.4M1016.8 1486.8l-97.5 512.7c-14.2 107.9 42.3 207 131.5 254.1M1018.5 1477.8L1016.8 1486.8" fill="none" stroke="#31323d" stroke-linecap="round" stroke-miterlimit="10" stroke-width="12.5"></path><path d="M1228.6,2040.8c-1.7,15.3-3.8,30.4-6,45.6l-3.5,22.7-3.8,22.6c-2.6,15.1-5.4,30.1-8.1,45.2l-8.3,45.1-16.6,90.3a76.3,76.3,0,0,1-3.5,12.1,77.5,77.5,0,0,1-5.4,11.4,75.5,75.5,0,0,1-16,19.4,78.7,78.7,0,0,1-45.9,18.8l-6.3.2h-6.1l-11.5-.7-22.9-1.3-45.8-2.8h-4.7l-1.8-.3a44.1,44.1,0,0,1-6.7-1.7,35.7,35.7,0,0,1-12.3-7.3,34.7,34.7,0,0,1-8.3-11.7,40.4,40.4,0,0,1-3.1-13.5,50.7,50.7,0,0,1,1-13.2l0.2-.8v-1.7l0.3-1.1a26.9,26.9,0,0,1,1.5-3.6,30.2,30.2,0,0,1,4.1-6.2,37.9,37.9,0,0,1,11-8.8,45.9,45.9,0,0,1,12.7-4.5,49,49,0,0,1,6.6-.9l2.7-.2,2.1-.3a22,22,0,0,0,4.3-1.2,18.5,18.5,0,0,0,3.8-1.9c4.6-3,7.7-8.4,9.4-14.8a70.5,70.5,0,0,0,1.8-20.8l-0.9-22.9-1.9-45.9c-0.6-15.3-1.3-30.6-1.8-45.9v0.5c-0.6-5-1.3-9.9-2-14.9-0.4-2.5-.8-4.9-1.2-7.4s-0.9-4.9-1.4-7.3-1-4.9-1.6-7.3-1.2-4.8-1.8-7.2q-1.9-7.2-4.4-14.2c-0.8-2.3-1.7-4.6-2.6-6.9s-1.8-4.6-2.9-6.8l-1.5-3.4-1.6-3.3-1.7-3.3-1.8-3.3-1.8-3.2-1.9-3.2-4-6.3c-1.4-2.1-2.8-4.1-4.3-6.2l-2.2-3-2.3-3h0a2.2,2.2,0,0,1,3.4-2.9l5.4,5.6q2.6,2.9,5.1,5.9c1.7,2,3.3,4,4.8,6.1l2.3,3.2,2.2,3.2c1.5,2.2,2.9,4.3,4.2,6.6l2,3.4,1.9,3.4q1.9,3.4,3.5,7c1.1,2.4,2.2,4.7,3.2,7.2q3,7.2,5.4,14.7c1.6,5,3,10,4.2,15q0.9,3.8,1.7,7.6c0.5,2.5,1.1,5.1,1.5,7.6,0.9,5.1,1.7,10.2,2.4,15.3v0.5c0.9,15.3,1.6,30.6,2.4,45.8l2.3,45.8,1.1,22.9a94.4,94.4,0,0,1-.1,12.3,71.8,71.8,0,0,1-1.9,12.5,54.5,54.5,0,0,1-2,6.3,42.8,42.8,0,0,1-3.1,6.2,33.3,33.3,0,0,1-9.8,10.4,35.1,35.1,0,0,1-13.2,5.3l-3.5.5-3,.2a35,35,0,0,0-4.7.6,31.9,31.9,0,0,0-8.8,3.2,23.9,23.9,0,0,0-6.9,5.5,16.1,16.1,0,0,0-2.2,3.3,13,13,0,0,0-1.2,3.7,36.6,36.6,0,0,0-.7,9.6,26.2,26.2,0,0,0,2,8.7,20.4,20.4,0,0,0,4.9,6.9,21.4,21.4,0,0,0,7.3,4.3,30.1,30.1,0,0,0,4.4,1.1l1,0.2h3.9l45.8,2.7,22.9,1.4,11.5,0.7h10.5a64.5,64.5,0,0,0,37.6-15.2,61.4,61.4,0,0,0,13.1-15.7,65,65,0,0,0,7.4-19.2l17.4-90.1,8.7-45.1c2.9-15,5.8-30,8.8-45l4.7-22.5,5-22.4c3.4-14.9,7-29.8,11-44.6A2.2,2.2,0,0,1,1228.6,2040.8Z" fill="#31323d"></path><path d="M1095.2 2319.6h-.5l-1.7.2a18.6 18.6 0 0 0-5.8 2 22.5 22.5 0 0 0-6.7 5.5 30.2 30.2 0 0 0-2.9 4 38.9 38.9 0 0 0-2.4 4.6l-.5 1.2-.5 1.2-.5 1.2-.4 1.3c-.5 1.7-.9 3.4-1.3 5l-.5 2.4c-.2.8-.3 1.6-.4 2.4s-.4 3-.6 4.4-.2 2.6-.3 3.7-.1 2.1-.2 2.9v2.7a6.3 6.3 0 1 1-12.5-.6 6.9 6.9 0 0 1 .1-.8l.5-2.7c.2-.9.3-1.9.6-3.1s.5-2.6.9-4.1.8-3.1 1.3-4.8l.8-2.6.9-2.7c.7-1.8 1.4-3.7 2.3-5.5l.6-1.4.7-1.4.7-1.4.8-1.4a46.9 46.9 0 0 1 3.6-5.2 37.5 37.5 0 0 1 4.2-4.5 28.8 28.8 0 0 1 9.4-5.8 23.9 23.9 0 0 1 7.7-1.5h3.1A2.2 2.2 0 1 1 1095.2 2319.6zM1052.7 2314.9h-.6l-1.6.4-2.5.9-.7.3-.8.4-1.6.9-1.7 1.1-1.7 1.3-.9.7-.8.8-1.6 1.7-1.5 2-.7 1-.6 1.1-1.3 2.2-1.1 2.4c-.3.8-.7 1.6-1 2.4l-.8 2.5-.8 2.4-.6 2.5a42.3 42.3 0 0 0-1 4.7l-.6 4.3a35.4 35.4 0 0 0-.3 3.7l-.2 2.8-.2 2.5v.4a6.3 6.3 0 1 1-12.5-.8 6.9 6.9 0 0 1 .1-.8l.5-2.7.6-3.1c.3-1.2.4-2.5.9-4l1.3-4.7a51.3 51.3 0 0 1 1.8-5.2l1-2.7 1.3-2.7 1.3-2.7c.5-.9 1.1-1.8 1.6-2.7l1.7-2.6 1.9-2.4.9-1.2 1.1-1.1 2.1-2.1 2.2-1.8 1.1-.9 1.2-.7 2.2-1.4 2.2-1.1 2.1-.8 1-.4 1-.3a26.5 26.5 0 0 1 3.2-.7l2.2-.2h.8A2.2 2.2 0 1 1 1052.7 2314.9zM1673.7 2025.2l2.2 9.4c1.4 6.1 3.4 15.1 5.8 26.6 1.2 5.7 2.5 12.1 3.9 19l4.4 22.5 4.8 25.6 5 28.4 23.3 135.3c1.1 6.1 2 12.8 3.6 17.8a63.3 63.3 0 0 0 7.2 15.7 65.1 65.1 0 0 0 25.9 23.4l4.1 1.9 1.1.4 1 .4 2 .7a45.4 45.4 0 0 0 8.4 1.7l4.3.3h4.6l10-.3 40.1-1.4 39.4-1.2 2.5-.3 1.2-.2.9-.2 1.9-.4 1.9-.6a21.7 21.7 0 0 0 6.5-3.5 17 17 0 0 0 4.3-5.4c.2-.6.6-1.1.7-1.7l.6-1.8a30.4 30.4 0 0 0 .8-3.9 37.8 37.8 0 0 0 .4-4.1c0-.7 0-1.4 0-2.1s0-1.4-.1-2.2l-.2-2.2v-.3a.3.3 0 1 1 0-.1v-1.6l-.2-.8-.2-.9c-.1-.6-.4-1.3-.6-1.9-1.7-5-4.7-9.3-8.4-11.7a17.3 17.3 0 0 0-6.4-2.3l-1.8-.2-2.6-.2h-1.2l-1.5-.2-2.9-.5a39.5 39.5 0 0 1-10.9-4.2 30.1 30.1 0 0 1-9.1-8 34 34 0 0 1-5.3-10.4 47.2 47.2 0 0 1-1.9-10.7c-.1-.9-.1-1.7-.1-2.6s0-1.8 0-2.6v-4.6l.2-9.1.8-35.4.2-8.6v-3.7c0-.8 0-.4 0-.6v-.3l.3-4.2.3-4.2c.1-1.4.2-2.7.4-4.2l1-8.4a250.4 250.4 0 0 1 6.4-31.5 277 277 0 0 1 9.1-28l2.7-6.4c.9-2.1 1.7-4.2 2.7-6.2l2.8-5.9c.9-1.9 1.8-3.9 2.8-5.7l2.9-5.4 1.4-2.6 1.5-2.5 2.9-4.9c.9-1.6 1.8-3.2 2.8-4.7l5.6-8.7 5.4-7.7 2.6-3.5 2.5-3.2c1.6-2.1 3.1-4.1 4.6-5.8l4.1-4.9 3.5-4 6.6-7.1a2.2 2.2 0 0 1 3.4 2.8h0l-5.6 7.8c-3.6 5.1-8.8 12.6-14.9 22.5l-4.7 7.8-4.8 8.8c-.9 1.5-1.7 3.1-2.5 4.7l-2.5 4.9-1.3 2.5-1.2 2.6-2.5 5.4a290.9 290.9 0 0 0-17.7 50.6l-.9 3.6-.4 1.8-.4 1.8-1.5 7.4-.4 1.9-.3 1.9-.6 3.8-.6 3.9-.3 1.9-.2 1.9-.9 7.8c-.2 1.3-.2 2.7-.3 4.1l-.3 4.2-.3 4.2v.3c0-.1 0 .5 0-.1v12.3l-.5 35.4v13.7c0 .8 0 1.4 0 2.1s0 1.4.1 2a33.7 33.7 0 0 0 1.4 7.5 20.3 20.3 0 0 0 3.2 6.2c2.7 3.6 6.9 5.8 12 6.9l1.8.3.9.2h1.2l2.2.2 3 .3a31.3 31.3 0 0 1 11.7 4.2 31.8 31.8 0 0 1 9 8.5 40.3 40.3 0 0 1 5.4 10.5c.3.9.6 1.8.8 2.8l.4 1.4.3 1.6v2.9l.2 2.7c.1.9.1 1.8.1 2.8s.1 1.8 0 2.8a52 52 0 0 1-.5 5.7 44.4 44.4 0 0 1-1.2 5.8l-1 2.9c-.3 1-.8 1.9-1.3 2.9a31.3 31.3 0 0 1-7.9 10.1 35.8 35.8 0 0 1-10.9 6l-2.8.9-3 .7-1.5.3-1.3.2-2.5.3h-5.7l-5 .2-10 .4-20.1.7-40.1 1.3-10 .3h-5.4l-5.6-.4a59.7 59.7 0 0 1-11-2.3l-2.7-.9-1.4-.5-1.2-.5-4.9-2.3a79.2 79.2 0 0 1-31.4-28.6 77.2 77.2 0 0 1-8.7-19.2l-.7-2.6-.3-1.3c-.1-.4-.2-.9-.3-1.3l-.5-2.3-.2-1.2v-1.4l-1.5-9.3-22-135.6-4.5-28.5-3.8-25.7-3.2-22.7c-1-7-1.8-13.4-2.5-19.3-1.5-11.6-2.5-20.8-3.2-27.1l-1-9.6A2.2 2.2 0 0 1 1673.7 2025.2z" fill="#31323d"></path><path d="M1783.2 2307.4h3.2a34.8 34.8 0 0 1 8 1.7 33.5 33.5 0 0 1 5.1 2.1 34.2 34.2 0 0 1 5.3 3.3 37.9 37.9 0 0 1 5 4.5c.7.9 1.5 1.7 2.2 2.7l1 1.4 1 1.5a46.8 46.8 0 0 1 3.3 6.1 56.5 56.5 0 0 1 2.4 6.2c.4 1 .6 2 .9 3s.5 2 .7 2.9l.6 2.8.4 2.6c.3 1.7.4 3.2.6 4.6s.3 2.5.3 3.5l.2 3.1a6.3 6.3 0 0 1-12.5.8 6.4 6.4 0 0 1 0-.7v-.3l.2-2.7c.1-.9.1-1.9.1-3.1s.1-2.6 0-4v-2.3l-.2-2.4c-.1-.8-.2-1.7-.3-2.5s-.2-1.8-.4-2.6a47.1 47.1 0 0 0-1.3-5.3 38.1 38.1 0 0 0-2.1-5.2l-.6-1.3-.7-1.2c-.4-.8-1-1.6-1.5-2.3a30.5 30.5 0 0 0-3.5-4.1 29.3 29.3 0 0 0-8-5.5 29.5 29.5 0 0 0-6.6-2.2l-1.9-.3h-.7A2.2 2.2 0 0 1 1783.2 2307.4zM1833.8 2304.2h3.2a34.8 34.8 0 0 1 8 1.7 33.5 33.5 0 0 1 5.1 2.1 34.2 34.2 0 0 1 5.3 3.3 37.9 37.9 0 0 1 5 4.5c.7.9 1.5 1.7 2.2 2.7l1 1.4 1 1.5a46.8 46.8 0 0 1 3.3 6.1 56.6 56.6 0 0 1 2.4 6.2c.4 1 .6 2 .9 3s.5 2 .7 2.9l.6 2.8.4 2.6c.3 1.7.4 3.2.6 4.6s.3 2.5.3 3.5l.2 3.1a6.3 6.3 0 1 1-12.5.1v-.3l.2-2.7c.1-.9.1-1.9.1-3.1s.1-2.6 0-4v-2.3l-.2-2.4c-.1-.8-.2-1.7-.3-2.5s-.2-1.8-.4-2.6a47.1 47.1 0 0 0-1.3-5.3 38 38 0 0 0-2.1-5.2l-.6-1.3-.7-1.2c-.4-.8-1-1.6-1.5-2.3a30.5 30.5 0 0 0-3.5-4.1 29.3 29.3 0 0 0-8-5.5 29.5 29.5 0 0 0-6.6-2.2l-1.9-.3h-.7A2.2 2.2 0 0 1 1833.8 2304.2z" fill="#31323d"></path><path d="M931.3,2117.4c-38.1,9.1-130.4,43.4-184.5,78.3-26.5,17.1-10.1,55.9,23.2,55.3l280.4-5.5" fill="none" stroke="#31323d" stroke-linecap="round" stroke-miterlimit="10" stroke-width="12.5"></path><path d="M840.5 2200.1l-.7.2-2 .6-3.1 1-4 1.5-4.5 2.1a49.4 49.4 0 0 0-4.7 2.8 36 36 0 0 0-4.4 3.5 26.3 26.3 0 0 0-3.7 4.2l-.8 1.1-.7 1.2a21.4 21.4 0 0 0-1.1 2.4c-.2.4-.3.8-.4 1.2a8.9 8.9 0 0 0-.3 1.2 18.1 18.1 0 0 0-.4 2.4v1.2c0 .4 0 .8 0 1.2v1.2c0 .4.1.8.1 1.2a15.6 15.6 0 0 0 .3 2.2c.2.7.3 1.4.5 2.1a36.6 36.6 0 0 0 1.2 3.6 29.8 29.8 0 0 0 1.2 2.8l1.2 2.4.2.3a6.3 6.3 0 0 1-11.3 5.5l-.3-.7-1.1-3.1c-.4-1-.7-2.2-1.1-3.7a48 48 0 0 1-1-4.9c-.1-.9-.2-1.9-.3-2.9a24.9 24.9 0 0 1-.1-3.2c0-.5 0-1.1 0-1.7l.2-1.7c.1-.6.1-1.2.2-1.7l.4-1.8a27.7 27.7 0 0 1 1-3.5 16.1 16.1 0 0 1 .7-1.7l.8-1.7a30.5 30.5 0 0 1 2-3.2l1.1-1.5 1.2-1.4a34.5 34.5 0 0 1 5.4-4.9 43.4 43.4 0 0 1 5.8-3.6 56.1 56.1 0 0 1 5.7-2.6l5.2-1.8 4.4-1.2 3.5-.7 2.3-.3h.8a2.2 2.2 0 0 1 .8 4.4h-.1zM793 2202.1h-.6l-1.7.5a38.1 38.1 0 0 0-5.9 2.5 32.6 32.6 0 0 0-3.6 2.2 29.2 29.2 0 0 0-3.5 2.9 23.5 23.5 0 0 0-2.9 3.7 18.7 18.7 0 0 0-2 4.2 21.2 21.2 0 0 0-.6 2.2c-.1.8-.3 1.5-.3 2.3a24.7 24.7 0 0 0 .1 4.6 34.5 34.5 0 0 0 .8 4.3c.4 1.4.7 2.7 1.2 3.9l.6 1.7.7 1.5.6 1.3.6 1.1 1.1 2.1v.2a6.3 6.3 0 0 1-11.2 5.6l-.3-.8-.9-2.7-.5-1.4-.5-1.7-.5-1.9c-.2-.7-.3-1.4-.5-2.2s-.6-3.3-.8-5.1a44.7 44.7 0 0 1-.2-5.9 34.2 34.2 0 0 1 .8-6.3c.2-1.1.6-2.1.9-3.2a29.7 29.7 0 0 1 1.3-3.1 26.9 26.9 0 0 1 3.6-5.6 31 31 0 0 1 4.5-4.3 35.8 35.8 0 0 1 4.8-3 38.6 38.6 0 0 1 4.6-2 43.3 43.3 0 0 1 7.1-2l2-.3h.8a2.2 2.2 0 0 1 .8 4.4H793z" fill="#31323d"></path><path d="M2020.7,2120.2c47.5,13.8,136.8,46.1,179.8,75.5,26.1,17.8,10.1,55.9-23.2,55.3l-261.6-5.1" fill="none" stroke="#31323d" stroke-linecap="round" stroke-miterlimit="10" stroke-width="12.5"></path><path d="M2107.6 2193.7h.8l2.3.4 3.5.8 4.5 1.4 5.2 2a58.4 58.4 0 0 1 5.6 2.8 45.8 45.8 0 0 1 5.7 3.8 36.7 36.7 0 0 1 5.3 5.1l1.2 1.5 1.1 1.6a31 31 0 0 1 1.9 3.3c.3.6.5 1.2.8 1.7s.5 1.2.7 1.8l.6 1.8.3.9.2.9a26.4 26.4 0 0 1 .6 3.5 25.1 25.1 0 0 1 .2 3.4 42.1 42.1 0 0 1-.4 6.2 50.3 50.3 0 0 1-1 5c-.4 1.5-.7 2.8-1.1 3.7l-1.1 3.2a6.3 6.3 0 0 1-11.8-4.1l.3-.7.2-.3 1.2-2.4c.4-.8.7-1.7 1.2-2.8s.8-2.3 1.2-3.7a31.5 31.5 0 0 0 .8-4.4 15.7 15.7 0 0 0 .1-2.4 16.7 16.7 0 0 0-.1-2.5V2224l-.2-1.3c-.1-.4-.2-.8-.4-1.3a12.8 12.8 0 0 0-.4-1.3 21.8 21.8 0 0 0-1.1-2.5l-.7-1.2-.8-1.2a28.5 28.5 0 0 0-3.7-4.4 38.4 38.4 0 0 0-4.4-3.8 51.5 51.5 0 0 0-4.7-3l-4.5-2.3a66.6 66.6 0 0 0-7.1-2.9l-2-.6-.7-.2h-.1A2.2 2.2 0 0 1 2107.6 2193.7zM2155.1 2195.7h.8l2.1.4a44.7 44.7 0 0 1 7.1 2.4 40.4 40.4 0 0 1 4.5 2.3 38.2 38.2 0 0 1 4.7 3.3 33.1 33.1 0 0 1 4.4 4.5 30 30 0 0 1 4.8 8.8c.4 1.1.6 2.2.9 3.2s.4 2.2.6 3.3.3 2.2.2 3.2.1 2.1 0 3.1l-.2 2.9c-.3 1.8-.5 3.6-.8 5.2l-.5 2.3-.6 2-.5 1.8-.5 1.4-.9 2.7a6.3 6.3 0 0 1-11.8-4.1l.3-.7v-.3l1.1-2.2.6-1.2.6-1.4.7-1.6.6-1.7c.5-1.2.8-2.6 1.2-4l.4-2.2c.2-.7.2-1.5.3-2.3s.1-1.5.1-2.3-.1-1.6-.1-2.4-.2-1.6-.3-2.4a20.2 20.2 0 0 0-.6-2.3 20.6 20.6 0 0 0-2-4.4 25.7 25.7 0 0 0-2.9-3.9 31.5 31.5 0 0 0-3.5-3.2 34.4 34.4 0 0 0-3.6-2.4 39.4 39.4 0 0 0-5.9-2.9l-1.7-.6-.6-.2H2154A2.2 2.2 0 0 1 2155.1 2195.7zM1288.7 864.1l-1.9-4.8-1-2.4-1-2.3-2.3-4.6-2.4-4.4-1.3-2.2-1.3-2.1-1.3-2.1-1.4-2.1c-.9-1.4-1.9-2.7-2.9-4s-2.1-2.6-3.2-3.8l-1.6-1.9-1.7-1.8-3.6-3.5-3.7-3.3-3.9-3.1-2-1.5-2.1-1.4-4.2-2.8-2.1-1.3-2.2-1.3-4.4-2.5-.8-.5a6.1 6.1 0 0 1-2.1-8.3 6.3 6.3 0 0 1 1.1-1.4h0l.9-.9.8-.7 1.7-1.4 3.4-2.6q3.5-2.5 7.1-4.7a101.1 101.1 0 0 1 15.3-7.4 98.2 98.2 0 0 1 33.2-6.6 106 106 0 0 1 33.4 4.7q4 1.2 7.9 2.7t7.7 3.2c2.5 1.1 5 2.4 7.5 3.7l3.6 2 3.6 2.1-9.4 6.5-.3-1.5-.4-1.6-.8-3.2q-.9-3.2-1.9-6.4c-1.4-4.2-2.9-8.4-4.7-12.5a106.9 106.9 0 0 0-13.1-22.8 64.2 64.2 0 0 0-18.7-16.9 50.6 50.6 0 0 0-23.6-6.7h0a6.2 6.2 0 0 1-1.8-12.1l3.4-1.1 3.3-1 6.6-1.7q6.7-1.6 13.4-2.8a217.1 217.1 0 0 1 27.2-3 195.4 195.4 0 0 1 27.4.6 170.2 170.2 0 0 1 27.1 4.7q6.7 1.7 13.2 4c4.3 1.5 8.6 3.3 12.8 5.2s8.3 4 12.3 6.4 7.9 4.8 11.6 7.5c1.9 1.3 3.7 2.8 5.5 4.2s3.6 2.9 5.3 4.4c3.5 3 6.8 6.3 10 9.5s6.2 6.8 9.1 10.4 5.6 7.3 8.2 11.1l-10.8.8 1.2-2.8 1.2-2.9c.8-2 1.4-4 2.1-6a83.6 83.6 0 0 0 2.9-12.1 42.4 42.4 0 0 0 .4-11.6 20.8 20.8 0 0 0-1.2-5 13 13 0 0 0-2.3-3.8h0a6.2 6.2 0 0 1 6.6-10.1h.1l1.5.5 1.3.5 2.6 1 5 2.2c3.3 1.6 6.5 3.3 9.6 5.1a113.6 113.6 0 0 1 17.5 12.9q4.1 3.7 7.8 7.8a95.7 95.7 0 0 1 6.9 8.6 94.1 94.1 0 0 1 10.7 19.3 100.9 100.9 0 0 1 3.5 10.5 98.6 98.6 0 0 1 2.3 10.8 104.1 104.1 0 0 1 1.1 10.9c.2 3.6.1 7.3 0 10.9s-.5 7.2-1 10.8c-.3 1.8-.5 3.6-.9 5.3s-.8 3.5-1.2 5.2a81.7 81.7 0 0 1-3.5 10.1c-.7 1.6-1.5 3.2-2.3 4.8s-1.7 3.1-2.7 4.6a2.6 2.6 0 0 1-4.7-1.5h0c0-1.8.2-3.5.4-5.2s.3-3.4.5-5.1l1.1-9.9c.2-1.6.4-3.3.5-4.9s.2-1.6.3-2.4l.2-2.4c.3-3.2.5-6.5.5-9.7s-.1-6.4-.3-9.6a93.1 93.1 0 0 0-1.3-9.5 84.7 84.7 0 0 0-2.2-9.2 86.9 86.9 0 0 0-3.2-8.9 94 94 0 0 0-4.2-8.5 84.6 84.6 0 0 0-5.1-8 93.8 93.8 0 0 0-5.9-7.4q-3.2-3.6-6.7-6.8c-2.3-2.2-4.8-4.2-7.3-6.2s-5.2-3.8-7.9-5.6-5.5-3.4-8.3-5l-4.3-2.2-2.2-1-1.1-.5-.9-.4 6.7-10.1h0a25.5 25.5 0 0 1 4.6 7.6 33.2 33.2 0 0 1 2 8 54.6 54.6 0 0 1-.5 15.1 96 96 0 0 1-3.4 13.9q-1.1 3.4-2.3 6.7l-1.3 3.3-1.5 3.4a6.2 6.2 0 0 1-10.7 1h-.1c-2.4-3.5-4.9-7-7.6-10.3s-5.5-6.5-8.4-9.6-6-6-9.2-8.8c-1.6-1.4-3.2-2.7-4.9-4.1s-3.3-2.6-5.1-3.8a136.2 136.2 0 0 0-45.8-21.2 157.7 157.7 0 0 0-25.2-4.3 182.9 182.9 0 0 0-25.7-.5 204.7 204.7 0 0 0-25.6 2.9q-6.4 1.1-12.6 2.6l-6.2 1.6-3 .9-2.9.9-1.9-12.1a69.4 69.4 0 0 1 7.7.7 61.3 61.3 0 0 1 7.6 1.6 59.6 59.6 0 0 1 7.3 2.6 61.6 61.6 0 0 1 6.9 3.4 70.1 70.1 0 0 1 12.3 9 85.8 85.8 0 0 1 10.1 11.1 119.3 119.3 0 0 1 14.6 25.4q2.9 6.7 5.1 13.6 1.1 3.5 2.1 7l.9 3.5.4 1.8.4 1.9a6.2 6.2 0 0 1-9.2 6.6h-.1l-3.3-1.9-3.3-1.8-6.8-3.4-7-2.9-7.1-2.5a93.5 93.5 0 0 0-29.5-4.2 85.7 85.7 0 0 0-29 5.8 88.7 88.7 0 0 0-13.4 6.5c-2.1 1.3-4.2 2.6-6.2 4.1l-2.9 2.2-1.4 1.1-.6.6-.5.5-1.8-10.1 5.2 2.3c1.7.9 3.4 1.7 5.1 2.6s3.3 1.9 4.9 3l2.4 1.6 2.3 1.7c1.6 1.1 3 2.4 4.5 3.6s2.9 2.5 4.3 3.9 2.7 2.8 4 4.2l1.9 2.2 1.8 2.3c1.2 1.5 2.3 3.1 3.4 4.7s2.1 3.3 3 4.9l1.4 2.5 1.3 2.6c.8 1.7 1.6 3.5 2.2 5.3s1.2 3.6 1.7 5.5a55.7 55.7 0 0 1 1.2 5.6c.1 1 .3 1.9.4 2.8s.2 1.9.2 2.9a36 36 0 0 1-.1 5.9 2.5 2.5 0 0 1-4.9.6v-.2z" fill="#31323d"></path><path d="M1202.2 872a291.9 291.9 0 0 0-85.2-40.3c-31-9-64.9-10.4-95.3.4-16.5 5.9-33.9 19.1-32.2 36.6 1.2 12.4 11.7 21.6 21.5 29.4 35.7 28.7 68.4 55.4 104.1 84.1M1630.4 862.1a291.9 291.9 0 0 1 81.5-47.3c30.1-11.5 63.8-15.8 95-7.7 17 4.4 35.4 16.2 35.2 33.7-.2 12.5-9.8 22.5-18.9 31.1-33.1 31.6-71.5 64-104.6 95.6" fill="none" stroke="#31323d" stroke-linecap="round" stroke-linejoin="round" stroke-width="12.5"></path><path d="M1054.6 1454.8l-6 4.6-5.8 4.6-5.7 4.7-5.5 4.9-5.4 5-5.2 5.1-5.1 5.2-4.9 5.4-4.7 5.6-4.6 5.7-4.3 5.8-4.2 6-4 6.1-3.8 6.2-3.6 6.3-3.5 6.4-1.3 2.3a5.5 5.5 0 0 1-10.2-2.7h0l-2.1-5.7-1.9-5.7-1.8-5.8-1.6-5.8-1.4-5.9-1.2-5.9-1.1-5.9-.9-6-.7-6-.5-6-.3-6-.2-6v-6l.2-6 .4-6 .6-6 10.6 5.2-5 5.1-4.7 5.4-4.3 5.7-4 6-3.6 6.2-3.3 6.4-2.9 6.6-2.5 6.7-2.1 6.9-1.7 7-1.3 7.1-.9 7.1-.5 7.2v7.2l.4 7.2.8 7.1v.2a6.2 6.2 0 0 1-11.9 3.4 271.4 271.4 0 0 1-18.2-51.9 294.6 294.6 0 0 1-7.4-54.4 309.9 309.9 0 0 1 2.8-54.8c.3-2.3.7-4.5 1.1-6.8l.6-3.4.3-1.7v-.9l.2-.8c.9-4.4 1.7-8.7 2.8-13.3l1.6-6.7 1.8-6.6c1.1-4.4 2.6-8.8 3.9-13.1a359.1 359.1 0 0 1 20.9-50.6 389.7 389.7 0 0 1 28-46.9c1.3-1.9 2.6-3.7 4-5.6l4-5.5c2.8-3.6 5.5-7.3 8.4-10.8l8.6-10.5 8.7-10.3c11.7-13.7 23.7-27 35.2-40.6q8.7-10.2 16.8-20.7c5.4-7 10.7-14.1 15.6-21.4s9.4-14.8 13.4-22.5 7.9-15.7 11.2-23.8 6.3-16.4 9-24.7 4.8-16.9 6.6-25.5l.7-3.2.3-1.7.4-1.6 1.4-6.6c1.1-4.5 2.2-9.1 3.5-13.4a238.3 238.3 0 0 1 9.2-26 259.7 259.7 0 0 1 12-24.8 256.9 256.9 0 0 1 14.8-23.3 235.7 235.7 0 0 1 17.3-21.5A248 248 0 0 1 1272.4 832a6.2 6.2 0 0 1 3.5 12h-.1a234.8 234.8 0 0 0-109.5 68.8 223.3 223.3 0 0 0-16.4 20.4 244.5 244.5 0 0 0-14 22.1 247.1 247.1 0 0 0-11.4 23.6 225.8 225.8 0 0 0-8.7 24.7c-1.3 4.2-2.3 8.4-3.3 12.6l-1.4 6.6-.4 1.6-.3 1.6-.7 3.4c-1.9 8.9-4.2 17.8-6.9 26.6s-5.8 17.4-9.4 25.8-7.4 16.8-11.7 24.9-9 15.9-14.1 23.7-10.5 14.9-16.1 22.1-11.3 14.2-17.1 21.1c-11.7 13.8-23.7 27.1-35.3 40.7l-8.6 10.2-8.4 10.3c-2.8 3.4-5.4 7-8.1 10.5l-3.9 5.4c-1.3 1.8-2.6 3.6-3.8 5.4a377.3 377.3 0 0 0-27.1 45.4 346.6 346.6 0 0 0-20.1 48.8c-1.3 4.2-2.7 8.4-3.8 12.6l-1.7 6.4-1.5 6.3c-1.1 4.2-1.9 8.7-2.8 13l-.2.8v.4h0v.2l-.3 1.6L908 1395c-.3 2.2-.8 4.3-1 6.5a297.4 297.4 0 0 0-2.7 52.5 282.2 282.2 0 0 0 7.1 52 259 259 0 0 0 17.3 49.5l-11.8 3.6-.9-7.9-.4-7.9v-7.9l.5-7.9 1-7.9 1.5-7.8 1.9-7.7 2.3-7.6 2.8-7.4 3.2-7.2 3.6-7.1 4-6.8 4.4-6.6 4.8-6.3 5.2-6 5.5-5.7a6.2 6.2 0 0 1 10.6 4.9v.3l-.5 5.6-.4 5.6-.2 5.6v5.7l.2 5.7.3 5.6.5 5.6.7 5.6.8 5.6 1 5.6 1.2 5.5 1.3 5.5 1.5 5.5 1.6 5.4 1.8 5.4 2 5.3L967 1537l3.2-7.1 3.6-6.9 3.9-6.8 4.2-6.6 4.5-6.4 4.8-6.1 5-5.9 5.3-5.7 5.5-5.5 5.8-5.2 6-4.9 6.2-4.6 6.5-4.3 6.7-3.9 6.9-3.6 7-3A2.5 2.5 0 0 1 1054.6 1454.8zM1555.8 828.9l6.6 1.7 3.3.9 3.4 1 6.7 2.1 3.3 1.1 3.3 1.2a236.4 236.4 0 0 1 25.6 10.8 246.5 246.5 0 0 1 46.7 29.8 242.7 242.7 0 0 1 38.9 39.4 245.1 245.1 0 0 1 39.6 72.8c.7 2.2 1.5 4.4 2.2 6.6l1 3.3.5 1.7.3.8v1l3.4 13.1 13.4 52.5c.5 2.2 1 4.4 1.6 6.5s1.1 4.2 1.7 6.4 1.2 4.3 1.8 6.4 1.3 4.2 2 6.3a193.5 193.5 0 0 0 9.8 24.3 132.6 132.6 0 0 0 13.5 22 113.4 113.4 0 0 0 8.3 9.7l2.2 2.3.6.6h.2l.3.3 1.2 1.2 2.5 2.3 2.4 2.2c6.5 5.8 13.5 11.3 20.6 16.6s14.5 10.4 21.9 15.6 14.8 10.4 22.1 15.9l5.5 4.2 2.8 2.2 2.6 2.1 5.2 4.3 5.2 4.6a308.5 308.5 0 0 1 37.8 40.2 327.3 327.3 0 0 1 30.4 46c1.1 2 2.2 4 3.2 6.1l3.2 6.1 3 6.2 1.5 3.1 1.4 3.2 2.8 6.3 2.6 6.4c1.8 4.2 3.3 8.6 4.9 12.9a351 351 0 0 1 20 107.9 351.4 351.4 0 0 1-3 55 6.2 6.2 0 0 1-11.5 2.4h-.1l-3.3-5.6-3.4-5.5-3.6-5.4-3.8-5.2-3.9-5.1-4.1-5-4.3-4.9-4.4-4.7-4.5-4.6-4.7-4.5-4.8-4.3-4.9-4.2-5.1-4-5.2-3.8-5.3-3.7-5.4-3.5 8.3-9.1 2.8 3.8 2.7 3.9 2.5 4 2.4 4.1 2.2 4.1 2.1 4.2 1.9 4.3 1.8 4.4 1.6 4.4 1.5 4.5 1.3 4.5 1.2 4.6 1 4.6.8 4.6.7 4.7.5 4.7h0a6.2 6.2 0 0 1-10.8 4.8l-.4-.5-5.4-6.2-5.7-5.9-6-5.6-6.3-5.3-6.5-5-6.8-4.6-7-4.3-7.2-3.9-7.5-3.5-7.6-3.2-7.8-2.8-7.9-2.4-8.1-2.1-8.2-1.7-8.3-1.3-8.4-1h-.2a2.5 2.5 0 0 1 .1-5l8.8-.9h8.9l8.9.5 8.8 1.2 8.8 1.8 8.6 2.4 8.5 3 8.3 3.5 8.1 4 7.8 4.5 7.5 4.9 7.2 5.4 6.8 5.9 6.4 6.3 6 6.7 5.5 7.2-11.2 4.3h0l-.4-4.2-.6-4.2-.7-4.2-.9-4.2-1-4.1-1.2-4.1-1.3-4.1-1.5-4-1.6-4-1.8-3.9-1.9-3.8-2-3.8-2.2-3.7-2.3-3.6-2.4-3.5-2.5-3.4v-.2a6.2 6.2 0 0 1 8.4-8.9l5.7 3.7 5.6 3.9 5.5 4.1 5.4 4.2 5.2 4.4 5.1 4.6 5 4.7 4.8 4.9 4.7 5 4.5 5.2 4.3 5.3 4.2 5.4 4 5.6 3.8 5.7 3.7 5.8 3.5 5.9-11.6 2.2a338.9 338.9 0 0 0 2.9-53 338.5 338.5 0 0 0-19.3-104c-1.5-4.2-3-8.3-4.7-12.4l-2.5-6.2-2.7-6.1-1.3-3-1.4-3-2.9-6-3-5.9c-1-2-2-3.9-3.1-5.9a314.8 314.8 0 0 0-29.2-44.2l-4.1-5.2-4.3-5c-2.8-3.4-5.9-6.6-8.9-9.9-1.5-1.6-3.1-3.2-4.6-4.8s-3.1-3.2-4.7-4.7c-3.2-3-6.4-6.2-9.7-9l-4.9-4.3-5.2-4.3-2.6-2.1-2.5-2-5.3-4c-7.1-5.3-14.4-10.5-21.8-15.7-14.8-10.4-29.7-20.8-43.7-33.1l-2.6-2.3-2.5-2.3-1.2-1.2-.7-.6-.6-.6-2.5-2.5a125.9 125.9 0 0 1-9.3-10.8 145.1 145.1 0 0 1-14.7-24.1c-8.3-16.8-13.7-34.6-17.9-52.4l-13.4-52.3-3.4-13.1-1.8-6.2c-.6-2.1-1.4-4.2-2.1-6.3a232.6 232.6 0 0 0-37.6-69.1 230.2 230.2 0 0 0-37-37.4 234 234 0 0 0-44.4-28.3 223.9 223.9 0 0 0-24.3-10.2l-3.1-1.1-3.1-1-6.3-1.9-3.1-.9-3.2-.9-6.6-1.7A6.2 6.2 0 0 1 1555.8 828.9z" fill="#31323d"></path></g><g id="eye"><defs><clipPath id="eyeClipPath"><circle cx="1696" cy="1101.3" r="129.7" transform="rotate(-68.1 1696.37388916 1101.3227275)" fill="#fff" stroke="#31323d" stroke-linecap="round" stroke-miterlimit="10" stroke-width="10"></circle></clipPath><clipPath id="eyeClipPath2"><circle cx="1168.9" cy="1127" r="129.7" transform="rotate(-23.1 1170.57230332 1127.99609272)" fill="#fff" stroke="#31323d" stroke-linecap="round" stroke-miterlimit="10" stroke-width="10"></circle></clipPath></defs><path fill="none" d="M3000 3010L0 3000 0 0 3000 10 3000 3010z"></path><circle cx="1696" cy="1101.3" r="129.7" transform="rotate(-68.1 1696.37388916 1101.3227275)" fill="#fff"></circle><g clip-path="url(#eyeClipPath)"><circle cx="1686.2" cy="1102.4" r="105.1" transform="rotate(-83.2 1685.61181377 1102.48410147)" fill="#Ff9088"></circle><circle cx="1682.8" cy="1103.5" r="83" transform="rotate(-83.2 1682.21022125 1103.59307204)" fill="#31323d"></circle><circle cx="1738.2" cy="1045.5" r="44.2" transform="rotate(-83.2 1737.6065591 1045.62246994)" fill="#fff"></circle></g><circle cx="1696" cy="1101.3" r="129.7" transform="rotate(-68.1 1696.37388916 1101.3227275)" fill="none" stroke="#31323d" stroke-linecap="round" stroke-miterlimit="10" stroke-width="10"></circle><path d="M1763.9 938.4c-69.4-36-117.5-25.9-164.1 24M1109.8 968.4c69.4-36 117.5-25.9 164.1 24" fill="none" stroke="#31323d" stroke-linecap="round" stroke-miterlimit="10" stroke-width="30"></path><circle cx="1168.9" cy="1127" r="129.7" transform="rotate(-23.1 1170.57230332 1127.99609272)" fill="#fff"></circle><g clip-path="url(#eyeClipPath2)"><circle cx="1180.2" cy="1126.6" r="105.1" transform="rotate(-7.5 1185.37964878 1131.12230357)" fill="#Ff9088"></circle><circle cx="1177.2" cy="1128.5" r="83" transform="rotate(-7.5 1182.94109102 1133.26086132)" fill="#31323d"></circle><circle cx="1216.4" cy="1058.6" r="44.2" transform="rotate(-7.5 1222.01945732 1063.0398658)" fill="#fff"></circle></g><circle cx="1168.9" cy="1127" r="129.7" transform="rotate(-23.1 1170.57230332 1127.99609272)" fill="none" stroke="#31323d" stroke-linecap="round" stroke-miterlimit="10" stroke-width="10"></circle><path d="M1795.8 1183.6a129.4 129.4 0 0 1-207-9.8s38.7-10.9 103.5-7.4S1795.8 1183.6 1795.8 1183.6zM1068.9 1209.7a129.4 129.4 0 0 0 207-9.8s-38.7-10.9-103.5-7.4S1068.9 1209.7 1068.9 1209.7z" fill="#d1dadf"></path><path d="M1795.8 1183.6a129.4 129.4 0 0 1-207-9.8s38.7-10.9 103.5-7.4S1795.8 1183.6 1795.8 1183.6zM1068.9 1209.7a129.4 129.4 0 0 0 207-9.8s-38.7-10.9-103.5-7.4S1068.9 1209.7 1068.9 1209.7z" fill="none" stroke="#31323d" stroke-linecap="round" stroke-miterlimit="10" stroke-width="10"></path></g><g id="mouth"><path d="M1376.1,1398.1s3.7,72.6,64.6,70.2c58.9-2.3,65.5-70.3,65.5-70.3s-21.2,30.3-59.3,30.7S1376.1,1398.1,1376.1,1398.1Z" fill="#595959" opacity=".2" style="mix-blend-mode:multiply"></path><path d="M1441.1,1206.7l0.7,4.9c0.2,1.5.5,3.5,0.8,5.6l1.2,7.1,1.5,8.4c0.6,3,1.2,6.1,1.9,9.3l1.1,4.9,0.6,2.5,0.6,2.5,1.3,5.1,1.4,5.1c0.5,1.7,1,3.4,1.5,5.1s1,3.4,1.6,5l1.7,4.9,1.8,4.7c0.6,1.6,1.2,3,1.8,4.5s1.2,2.9,1.8,4.3l1.8,4,1.8,3.7c1.1,2.4,2.4,4.5,3.4,6.4l2.8,4.8,2.6,4.1h0a1.5,1.5,0,0,1-2.4,1.7l-3.1-3.9-3.4-4.6c-1.2-1.8-2.7-3.9-4.1-6.2l-2.3-3.6-2.3-3.9c-0.8-1.3-1.5-2.8-2.3-4.2s-1.6-2.9-2.3-4.4l-2.3-4.7-2.2-4.8c-0.8-1.6-1.5-3.3-2.2-4.9s-1.5-3.3-2.1-5l-2-5.1-1.9-5.1-0.9-2.5-0.9-2.5-1.7-4.9c-1-3.2-2.1-6.4-3-9.4l-2.5-8.5-2-7.2c-0.6-2.2-1-4-1.4-5.5l-1.2-4.8a7.5,7.5,0,1,1,14.6-3.7Z" fill="#31323d"></path><path d="M1395,1323.2l0.9-1.2,2.5-3.5,1.6-2.5c0.6-.9,1.3-1.9,1.9-3l2-3.5c0.7-1.2,1.3-2.6,2-4l1.1-2.1,1-2.3c0.7-1.5,1.4-3.1,2.1-4.8l2-5.1c0.6-1.8,1.2-3.6,1.9-5.4s1.2-3.8,1.7-5.7,1.2-3.9,1.6-5.9l1.5-6,1.3-6.1c0.5-2,.8-4.1,1.2-6.1s0.7-4.1,1.1-6.1l0.9-6,0.4-3,0.3-2.9c0.4-3.9.9-7.6,1.2-11.2s0.6-7,.8-10.1l0.5-8.5,0.2-6.6,0.2-5.7v-0.2a7.5,7.5,0,0,1,15,.5c0,0.2,0,.4-0.1.7l-0.7,5.9-0.8,6.7-1.3,8.7c-0.4,3.2-1.1,6.6-1.7,10.3s-1.4,7.5-2.2,11.4l-0.6,3-0.7,3-1.4,6.1c-0.5,2.1-1.1,4.1-1.6,6.2s-1.1,4.2-1.8,6.2l-1.9,6.2-2.1,6.1c-0.7,2-1.5,4-2.2,5.9s-1.5,3.9-2.3,5.7l-2.4,5.5-2.5,5.1c-0.8,1.7-1.8,3.2-2.6,4.8l-1.2,2.3-1.3,2.1c-0.9,1.4-1.6,2.7-2.5,3.9l-2.4,3.4c-0.7,1.1-1.5,2.1-2.2,3l-1.9,2.5-2.8,3.2-1,1.1A1.5,1.5,0,0,1,1395,1323.2Z" fill="#31323d"></path><path d="M1368.2,1174.4a15,15,0,0,1,3.6-15.9c9-8.8,28.2-21.6,63.8-21.8s52.5,12.2,60.5,21a14.9,14.9,0,0,1,2.5,16.1h0a20.8,20.8,0,0,1-18.3,12.3c-10,.3-23.9,3.3-32.7,15.8a13.2,13.2,0,0,1-1.9,2.2l-0.3.3a17.7,17.7,0,0,1-25.3-1.5h0s-7.3-12.5-34.1-14.6a20.7,20.7,0,0,1-17.7-13.5v-0.3Z" fill="#31323d"></path><path d="M1509.9,1395l-0.5,1.8c-0.2.6-.3,1.3-0.6,2.1l-1.1,3-1.6,3.6c-0.7,1.3-1.3,2.7-2.2,4a56.1,56.1,0,0,1-6.6,9,63,63,0,0,1-9.9,8.9l-3,2-3.2,1.9c-2.2,1.2-4.4,2.4-6.8,3.4s-4.8,1.9-7.4,2.7l-3.9,1.1-3.9.9a77.5,77.5,0,0,1-16.3,1.3,81.8,81.8,0,0,1-16.2-2,83.6,83.6,0,0,1-14.9-4.9l-0.9-.4-0.4-.2h-0.5l-1.6-.8-3.3-1.7c-2.2-1.2-4.2-2.4-6.1-3.7a76.6,76.6,0,0,1-10.2-8.1,75.2,75.2,0,0,1-7.4-8,71.1,71.1,0,0,1-4.7-6.9c-0.6-1-1.1-1.9-1.5-2.7l-1-2-0.8-1.7a2.5,2.5,0,0,1,4.1-2.8h0.1l1.2,1.3,3.4,3.6c1.5,1.5,3.4,3.2,5.6,5.1s4.8,3.8,7.7,5.8a91.1,91.1,0,0,0,9.8,5.7l2.7,1.3,2.8,1.2,3,1.2,1.6,0.6,1.4,0.5a85.9,85.9,0,0,0,12.8,3.3,81.6,81.6,0,0,0,13.5,1.3,80.6,80.6,0,0,0,13.5-1l3.3-.6,3.2-.7c2.1-.5,4.2-1.1,6.2-1.8s3.9-1.4,5.8-2.3l2.7-1.3,2.6-1.4a65.7,65.7,0,0,0,9.2-6.1,60.7,60.7,0,0,0,7-6.4,72.2,72.2,0,0,0,4.8-5.6l1.6-2.2c0.5-.6.9-1.3,1.2-1.8l1-1.5A2.5,2.5,0,0,1,1509.9,1395Z" fill="#31323d"></path><path d="M1486.7,1248.7l4.1,0.2,11.6,0.7c10,0.7,24.2,2,41.1,4.6a545.1,545.1,0,0,1,57.2,11.7c10.3,2.7,20.9,5.8,31.6,9.4s21.3,7.6,31.7,12.1,20.7,9.5,30.5,14.9a301.1,301.1,0,0,1,27.9,17.4,260,260,0,0,1,24,19.2,220.6,220.6,0,0,1,19.2,19.7,202.8,202.8,0,0,1,14.1,18.4l2.7,4.2,2.5,4,2.2,3.7,1.9,3.4c1.2,2.1,2.2,4.1,3.1,5.8s1.6,3.2,2.2,4.4l1.7,3.7-1.8-3.6c-0.6-1.2-1.3-2.6-2.3-4.3s-2-3.6-3.2-5.7l-2-3.4-2.3-3.6-2.6-3.9-2.8-4.1a201.6,201.6,0,0,0-14.5-17.9,218.6,218.6,0,0,0-19.6-19,257.2,257.2,0,0,0-24.2-18.3,297.5,297.5,0,0,0-28-16.4c-9.8-5.1-20.1-9.7-30.5-13.9s-21.1-7.8-31.6-11.1-21.1-6-31.4-8.4a537.4,537.4,0,0,0-56.7-9.9c-16.7-2-30.7-3-40.5-3.4l-11.3-.4h-4.1a5,5,0,1,1,.1-10h0.1Z" fill="#31323D"></path><path d="M1654.6,1234.4l-1.5-1.1-4.3-2.9-6.8-4.2c-2.7-1.6-5.7-3.2-9.2-4.9l-5.4-2.5-2.9-1.3-3-1.2-3.1-1.2-3.2-1.1-3.3-1.1-3.4-1c-2.3-.7-4.6-1.2-7-1.8s-4.8-1-7.2-1.5-4.9-.7-7.4-1.1-5-.5-7.5-0.7-5-.2-7.5-0.3h-7.5l-3.7.2-3.6.3c-2.4.3-4.8,0.5-7,.9-4.6.7-9,1.7-13.2,2.7s-8,2.2-11.5,3.5l-5,1.8-4.4,1.8-7.1,3.3-4.4,2.3-1.5.9h-0.1a5,5,0,1,1-4.8-8.8h0.3l1.7-.8,4.9-2.2,7.7-3,4.8-1.7,5.4-1.6c3.8-1.1,7.9-2,12.4-2.9s9.1-1.6,14-1.9c2.4-.3,4.9-0.3,7.4-0.5h11.4l3.9,0.3c2.6,0.2,5.2.3,7.7,0.8s5.2,0.6,7.7,1.2,5.1,0.9,7.5,1.6,4.9,1.2,7.3,2,4.7,1.4,7,2.3l3.4,1.2,3.3,1.3,3.2,1.3,3,1.4,3,1.4,2.8,1.4,5.3,2.9c3.3,1.9,6.3,3.8,8.9,5.5s4.8,3.3,6.6,4.7l4.1,3.2Z" fill="#31323D"></path><path d="M1494.6,1274.5l7.8,0.7,4.3,0.7,5.1,0.9c3.5,0.9,7.5,1.7,11.7,3.1l3.2,1,3.3,1.3,3.4,1.3,3.4,1.5,3.5,1.6c1.2,0.5,2.3,1.2,3.5,1.8l3.5,1.9,3.5,2.1,3.5,2.2,3.4,2.4,3.4,2.5,3.4,2.6,1.7,1.3,1.6,1.4,3.3,2.8c2.2,1.9,4.2,3.9,6.3,5.9,4.1,4.1,8.1,8.2,11.7,12.5s7.1,8.6,10.3,12.9,6.1,8.6,8.8,12.7,5,8.1,7.2,11.8,4,7.2,5.5,10.2,2.9,5.8,4,8.1c2.1,4.5,3.1,7.2,3.1,7.2s-1.2-2.6-3.5-7c-1.2-2.2-2.6-4.8-4.4-7.8s-3.8-6.3-6.1-9.9-4.9-7.4-7.8-11.3-6-8-9.3-12.1-7-8.2-10.8-12.1-7.9-7.8-12.1-11.6l-6.5-5.3-3.3-2.5-1.7-1.2-1.7-1.2-3.4-2.3-3.4-2.2-3.4-2.1-3.4-1.9-3.4-1.8-3.4-1.6c-1.1-.5-2.2-1.1-3.4-1.5l-3.3-1.3-3.3-1.3-3.2-1.1-3.1-1-3-.8c-3.9-1.1-7.7-1.7-10.9-2.3l-4.5-.5-3.8-.4-7.8-.3a5,5,0,0,1,.4-10h0.3Z" fill="#31323D"></path><path d="M1378.3,1255.9h-15.8c-10,0-24.3,0-41.3.6-8.5.3-17.8,0.7-27.5,1.4s-20,1.6-30.6,2.8-21.5,2.8-32.5,4.8-22.1,4.4-33.1,7.3a334.8,334.8,0,0,0-32.3,10.3c-5.2,1.9-10.4,4.1-15.4,6.3s-9.9,4.6-14.6,7.1a200.5,200.5,0,0,0-47.2,33.9,165.1,165.1,0,0,0-15.5,17.4c-1.1,1.3-2,2.7-3,4l-2.7,3.8-2.4,3.6-2.1,3.4c-1.3,2.1-2.4,4.1-3.4,5.8l-1.3,2.4-1,2-1.9,3.7,1.8-3.7,1-2,1.2-2.4c0.9-1.7,1.9-3.7,3.2-5.9l2-3.4,2.3-3.7c0.8-1.3,1.7-2.6,2.6-3.9s1.8-2.8,2.9-4.1a166.3,166.3,0,0,1,15.1-18,202.9,202.9,0,0,1,46.8-35.6c4.7-2.7,9.6-5.2,14.6-7.6s10.1-4.7,15.4-6.8a339.3,339.3,0,0,1,32.4-11.3c11-3.3,22.2-6,33.3-8.4s22.1-4.2,32.8-5.8,21-2.7,30.9-3.7,19.2-1.6,27.8-2.1c17.2-1,31.6-1.4,41.6-1.7l15.7-.4h0a5,5,0,0,1,.3,10h-0.1Z" fill="#31323D"></path><path d="M1203.3,1240.3l1.5-1.2,4.3-3.4,3.2-2.3,1.8-1.3,2-1.3c2.7-1.9,5.9-3.8,9.5-5.8l5.6-3,6.1-3c4.3-1.9,8.9-3.8,13.7-5.4l3.7-1.2,3.8-1.1,3.8-1.1,3.9-.9,4-.9,4-.7,4.1-.6,4.1-.5,2.1-.2h2.1l4-.2h8.2l8.1,0.3,7.9,0.7c2.6,0.4,5.1.6,7.6,1.1l3.7,0.6,3.5,0.8c4.7,1,9,2.2,13,3.4s7.6,2.6,10.7,3.8l4.4,1.8,3.7,1.7,5.1,2.5,1.8,0.9a5,5,0,1,1-4.6,8.9h-0.3l-1.6-1-4.6-2.6-3.4-1.8-4-2c-2.9-1.4-6.2-2.8-9.9-4.2s-7.7-2.8-12.1-4l-3.3-.9-3.4-.8c-2.3-.6-4.7-1-7.1-1.5l-7.5-1.1-7.7-.7-3.9-.2h-11.9l-4,.2-4,.4-3.9.4-3.9.6-3.9.6-3.8.8-3.7.8-3.7,1c-4.8,1.3-9.4,2.9-13.7,4.5l-6.2,2.6-5.7,2.7c-3.6,1.8-6.9,3.5-9.7,5.2l-2.1,1.2-1.9,1.2-3.3,2.1-4.5,3.1Z" fill="#31323D"></path><path d="M1370.4,1281.7l-7.8-.3-3.8.2h-3.3l-1.2.2-5.2.7-5.7,1.2-1.5.3-1.5.4-3.1.9c-2.2.5-4.3,1.4-6.5,2.2s-4.4,1.9-6.7,2.9l-1.7.8-1.7.9-3.4,1.8-3.4,2-3.4,2.1-6.7,4.6a163.1,163.1,0,0,0-13,10.6l-3.1,2.9-3,3c-2,1.9-3.9,4-5.9,6l-5.5,6.2c-1.7,2.1-3.5,4.1-5.2,6.2l-2.5,3.1-2.4,3.1c-1.6,2-3,4.1-4.4,6.1l-4.1,5.9-3.6,5.6c-2.3,3.6-4.3,7-6.1,10s-3.2,5.7-4.4,7.9c-2.4,4.4-3.6,7-3.6,7s1.1-2.7,3.2-7.2c1.1-2.3,2.4-5,4-8.1s3.4-6.6,5.6-10.3l3.4-5.8,3.8-6.1c1.3-2.1,2.7-4.2,4.1-6.4l2.2-3.3,2.3-3.3c1.5-2.2,3.2-4.4,4.9-6.6l5.3-6.6c1.9-2.1,3.7-4.4,5.6-6.5l2.9-3.2,3-3.1a168.4,168.4,0,0,1,12.8-11.7l6.8-5.2,3.5-2.4c1.2-.8,2.3-1.6,3.5-2.3l3.5-2.1,1.7-1,1.8-.9c2.4-1.2,4.6-2.5,7-3.5s4.6-2.1,6.9-2.8l3.4-1.2,1.6-.6,1.6-.4,6.2-1.6,5.7-1,1.3-.2h1.3l2.5-.2,4.5-.4h7.9a5,5,0,0,1,.1,10h-0.3Z" fill="#31323D"></path></g></svg>