<svg xmlns="http://www.w3.org/2000/svg" viewBox="0 0 3000 3000" xmlns:xlink="http://www.w3.org/1999/xlink"><g clip-path="url(#kittyClipPath)"></g><g id="wild"><defs><clipPath id="wild__c"><path fill="#ecd1eb" d="M1899.4 1794.9v413.6h243.5s414.3 146 602.3-153c0 0 47-64 47-172s-53-304-270-304c-94 0-145.6 46.6-169.3 100-14.3-79-66.7-93-76.7 63-9.8 152.8 33 147 33 147 84 24 187-154 181-185-4.9-25.2-90 3-90 3s27.3-70.1 126-62c110 9 208 233 46 376 0 0-257.7 222-620.3-229z"></path></clipPath><linearGradient id="wild__d" x1="1830.15" x2="2842.15" y1="1926.85" y2="1926.85" gradientUnits="userSpaceOnUse"><stop offset="0" stop-color="#fff"></stop><stop offset=".09" stop-color="#f8f8f8"></stop><stop offset=".22" stop-color="#e3e3e3"></stop><stop offset=".37" stop-color="#c1c1c1"></stop><stop offset=".55" stop-color="#939393"></stop><stop offset=".75" stop-color="#575757"></stop><stop offset=".96" stop-color="#0f0f0f"></stop><stop offset="1"></stop></linearGradient><linearGradient id="wild__a" x1="2210.33" x2="2423.79" y1="1849.86" y2="1554.23" gradientTransform="matrix(1.24, 0.48, -0.24, 0.61, -98.81, -448.1)" gradientUnits="userSpaceOnUse"><stop offset="0" stop-color="#fff" stop-opacity="0"></stop><stop offset=".42" stop-color="#fff"></stop></linearGradient><linearGradient id="wild__e" x1="2039.31" x2="2544.47" y1="2011.68" y2="1759.1" gradientTransform="matrix(1, 0, 0, 1, 0, 0)" href="#wild__a" xlink:href="#wild__a"></linearGradient><clipPath id="wild__f"><path fill="#4a4855" d="M2352.8 1679.4s-90.6 24.3-72.6 168.5v-.4c-4.8-21.8-7.2-54.9-4-105.1 10-156 62.4-142.1 76.7-63"></path></clipPath><linearGradient id="wild__b" x1="2322.97" x2="2282.72" y1="1690.74" y2="1641.99" gradientUnits="userSpaceOnUse"><stop offset="0" stop-color="#fff" stop-opacity="0"></stop><stop offset=".72" stop-color="#fff"></stop></linearGradient><clipPath id="wild__g"><path fill="#4a4855" d="M2400.2 1707.5s-14 140.5-105 174.8h.1a39.9 39.9 0 0 0 13.9 7.1c84 24 187-154 181-185-4.9-25.2-90 3-90 3"></path></clipPath><linearGradient id="wild__h" x1="2354.41" x2="2379.41" y1="1871.21" y2="1777.71" gradientUnits="userSpaceOnUse"><stop offset="0" stop-color="#fff" stop-opacity="0"></stop><stop offset=".35" stop-color="#fff"></stop></linearGradient><clipPath id="wild__i"><path fill="#ffad97" d="M2792.2 1884.4a392.2 392.2 0 0 0-19.9-121.2c50.9 326.4-243.1 422.2-455.1 410.2s-344-168.3-344-168.3-47-50.3-73.8-83.1v287.4h243.5s414.3 146 602.3-153c0 0 47-64 47-172z"></path></clipPath><linearGradient id="wild__j" x1="1946.04" x2="2754.5" y1="2212.32" y2="1708.34" href="#wild__b" xlink:href="#wild__b"></linearGradient><clipPath id="wild__k"><path fill="#4a4855" d="M2703.2 1718.9s-40-70-46-30 32 155 56 159c0 0 25-61-10-129z"></path></clipPath><linearGradient id="wild__l" x1="2701.78" x2="2661.46" y1="1830.96" y2="1731.62" href="#wild__b" xlink:href="#wild__b"></linearGradient><clipPath id="wild__m"><path fill="#4a4855" d="M1980.4 1882.4s36.8 6 89.8 0 54.9 121 54.9 121-61.5 17-144.7-121z"></path></clipPath><linearGradient id="wild__n" x1="1999.41" x2="2158.41" y1="1849.31" y2="1961.31" href="#wild__b" xlink:href="#wild__b"></linearGradient><clipPath id="wild__o"><path fill="#4a4855" d="M2159.5 2029.4s81.1-28 94.3-33.5 30.5 13.1 67.6 92.6c0-.1-94.3 6.5-161.9-59.1z"></path></clipPath><linearGradient id="wild__p" x1="2168.55" x2="2320.27" y1="2083.53" y2="1988.96" href="#wild__b" xlink:href="#wild__b"></linearGradient><clipPath id="wild__q"><path fill="#4a4855" d="M2379.2 2102.8s52-61.7 79-71.7 57.4 29 89.4 38c0 0-24.4 44.7-168.4 33.7z"></path></clipPath><linearGradient id="wild__r" x1="2340.04" x2="2502.07" y1="2099.54" y2="1998.54" href="#wild__b" xlink:href="#wild__b"></linearGradient><clipPath id="wild__s"><path fill="#4a4855" d="M2610 2030c2.6-14.2 15.4-87.1 13.6-107-2-22 32-40.8 79-30.9 0 0 18.8 54.4-89.9 141.4"></path></clipPath><linearGradient id="wild__t" x1="2540.67" x2="2717.28" y1="1990.82" y2="1880.72" href="#wild__b" xlink:href="#wild__b"></linearGradient><clipPath id="wild__u"><path fill="#4a4855" d="M2538.7 1592.2c24.9 31.2 90.2 54.7 101.5 36.3 0 0-13.6-55.2-78.2-61.3 0 0-24.1 0-27.9 10.6-1.3 3.5-.3 8.2 4.6 14.4z"></path></clipPath><linearGradient id="wild__v" x1="2601.45" x2="2578.13" y1="1649.45" y2="1591.97" href="#wild__b" xlink:href="#wild__b"></linearGradient><clipPath id="wild__w"><path fill="#4a4855" d="M2388.3 1673.5s-4.4-121.1 99.3-88.4c0 0 11.1 16.5-27.4 34.4s-53.7 39.5-69.7 57.2"></path></clipPath><linearGradient id="wild__x" x1="2449.42" x2="2430.75" y1="1637.69" y2="1591.69" href="#wild__b" xlink:href="#wild__b"></linearGradient></defs><g><path fill="none" d="M0 0h3000v3000H0z"></path><g><path fill="#ecd1eb" d="M1899.4 1794.9v413.6h243.5s414.3 146 602.3-153c0 0 47-64 47-172s-53-304-270-304c-94 0-145.6 46.6-169.3 100-14.3-79-66.7-93-76.7 63-9.8 152.8 33 147 33 147 84 24 187-154 181-185-4.9-25.2-90 3-90 3s27.3-70.1 126-62c110 9 208 233 46 376 0 0-257.7 222-620.3-229z"></path><g clip-path="url(#wild__c)" style="mix-blend-mode:multiply"><path fill="url(#wild__d)" d="M2406.3 1535.8c275.1 0 342.3 182.8 342.3 283.6s-63.1 188.1-63.1 188.1c-208.6 244-560.5 90.5-665.6 16.4h-189.7v299.6h1012v-793.3H2404z" opacity=".2"></path></g><g clip-path="url(#wild__c)" style="mix-blend-mode:overlay"><path fill="url(#wild__a)" d="M2286.1 1867.3c15.2 5.9 35.3-21.3 61.5-57.8 13.6-18.9 35.5-69.3 30-100.3 0 0 10.1-15.7 38.1-43.7s154-100.7 288-34c0 0-7.6-98.6-189.6-98.6 0 0-255.7 100.2-254.7 232.7.3 24.6-10.1 91.6 26.7 101.7z" opacity=".2"></path><path fill="url(#wild__e)" d="M2564.2 1669s50.7 13.1 69.7 45.5 106.7 192-46.9 334-608.6-11-687.6-284.8l94.8-8.2s217.4 229.6 394.1 232c149.3 2 216.9-48.9 227.9-161s-52-157.5-52-157.5z" opacity=".2"></path></g><path fill="#4a4855" d="M2352.8 1679.4s-90.6 24.3-72.6 168.5v-.4c-4.8-21.8-7.2-54.9-4-105.1 10-156 62.4-142.1 76.7-63"></path><g clip-path="url(#wild__f)" style="mix-blend-mode:overlay"><path fill="url(#wild__b)" d="M2357.2 1656s-62-12.5-78.4 77.2c0 0-5.6-121.6 45.1-121.7 30.9 0 33.3 44.5 33.3 44.5z" opacity=".2"></path></g><path fill="#4a4855" d="M2400.2 1707.5s-14 140.5-105 174.8h.1a39.9 39.9 0 0 0 13.9 7.1c84 24 187-154 181-185-4.9-25.2-90 3-90 3"></path><g clip-path="url(#wild__g)" style="mix-blend-mode:overlay"><path fill="url(#wild__h)" d="M2441.5 1679.4s-15.3 175-127.7 193.8l72.4-185.8z" opacity=".2"></path></g><path fill="#ffad97" d="M2792.2 1884.4a392.2 392.2 0 0 0-19.9-121.2c50.9 326.4-243.1 422.2-455.1 410.2s-344-168.3-344-168.3-47-50.3-73.8-83.1v287.4h243.5s414.3 146 602.3-153c0 0 47-64 47-172z"></path><g clip-path="url(#wild__i)" style="mix-blend-mode:overlay"><path fill="url(#wild__j)" d="M2771.8 1753.1s36.9 163-36.4 272.8l15.8 17.8-6 11.8-17.8-19.4s-32.7 45.5-76.7 71.4c0 0 15.5 21.9 17 41l-10.8 8.5s-8.7-29.9-19.8-41.8c0 0-49.5 31.3-82.5 43.8 0 0 12.7 35.7 5.6 51.4l-12.6 4.8s7.8-20.5-11.2-51c0 0-61.3 26.1-110.8 26.6 0 0-7.9 16.8 7.1 51.2l-11.2.9s-16.5-19.2-17.5-48.7c0 0-67.3 8.1-105.8 1.7 0 0-11.5 32-3.6 44.2l-14.9-1.7s-13.3-23.6-2.5-43.5c0 0-163.5-22.1-267-90.2S1854.4 1959 1854.4 1959l22.7-91.5s179 278 453 292c0 0 477.4 47.3 441.7-406.4z" opacity=".3"></path></g><path fill="none" stroke="#31323d" stroke-linecap="round" stroke-linejoin="round" stroke-width="12.5" d="M1899.4 1794.9v413.6h243.5s414.3 146 602.3-153c0 0 47-64 47-172s-53-304-270-304c-94 0-145.6 46.6-169.3 100-14.3-79-66.7-93-76.7 63-9.8 152.8 33 147 33 147 84 24 187-154 181-185-4.9-25.2-90 3-90 3s27.3-70.1 126-62c110 9 208 233 46 376 0 0-257.7 222-620.3-229z"></path><path fill="#4a4855" d="M2703.2 1718.9s-40-70-46-30 32 155 56 159c0 0 25-61-10-129z"></path><g clip-path="url(#wild__k)" style="mix-blend-mode:overlay"><path fill="url(#wild__l)" d="M2656.5 1659.5s47.3 72 36.3 182c0 0-52.6-48-52.6-136.7 0-55.9 16.3-45.3 16.3-45.3z" opacity=".4"></path></g><path fill="none" stroke="#31323d" stroke-linecap="round" stroke-linejoin="round" stroke-width="12.5" d="M2703.2 1718.9s-40-70-46-30 32 155 56 159c0 0 25-61-10-129z"></path><path fill="#4a4855" d="M1980.4 1882.4s36.8 6 89.8 0 54.9 121 54.9 121-61.5 17-144.7-121z"></path><g clip-path="url(#wild__m)" style="mix-blend-mode:overlay"><path fill="url(#wild__n)" d="M1958.1 1866.5s24.3 37 77.8 31.5 75.6 35.5 82.1 63.5c0 0 34.2-80.5-24.3-91s-135.6-4-135.6-4z" opacity=".4"></path></g><path fill="#4a4855" d="M2159.5 2029.4s81.1-28 94.3-33.5 30.5 13.1 67.6 92.6c0-.1-94.3 6.5-161.9-59.1z"></path><g clip-path="url(#wild__o)" style="mix-blend-mode:overlay"><path fill="url(#wild__p)" d="M2306.7 2067s-34.2-50.8-58.2-50.8-51.6 25.2-99.2 16.5l5.3-24.2 102.5-40.6 73 40.1 2.5 57z" opacity=".4"></path></g><path fill="#4a4855" d="M2379.2 2102.8s52-61.7 79-71.7 57.4 29 89.4 38c0 0-24.4 44.7-168.4 33.7z"></path><g clip-path="url(#wild__q)" style="mix-blend-mode:overlay"><path fill="url(#wild__r)" d="M2356.5 2104.6s43.7 2.9 76.7-33.6c28.2-31.2 66.7-30.2 78.2-15.5v-38.7h-139.2z" opacity=".4"></path></g><path fill="#4a4855" d="M2610 2030c2.6-14.2 15.4-87.1 13.6-107-2-22 32-40.8 79-30.9 0 0 18.8 54.4-89.9 141.4"></path><g clip-path="url(#wild__s)" style="mix-blend-mode:overlay"><path fill="url(#wild__t)" d="M2721.8 1891.7s-79.5-.5-80.5 41.8-30.3 121.6-54.4 108.3l15.2-176.3 107 6z" opacity=".4"></path></g><path fill="#4a4855" d="M2538.7 1592.2c24.9 31.2 90.2 54.7 101.5 36.3 0 0-13.6-55.2-78.2-61.3 0 0-24.1 0-27.9 10.6-1.3 3.5-.3 8.2 4.6 14.4z"></path><g clip-path="url(#wild__u)" style="mix-blend-mode:overlay"><path fill="url(#wild__v)" d="M2523.5 1601.1s46.3-55.1 123.3 33.9c0 0 2-50.6-41.3-70.7-58.3-27-84 12.8-82 36.8z" opacity=".4"></path></g><path fill="#4a4855" d="M2388.3 1673.5s-4.4-121.1 99.3-88.4c0 0 11.1 16.5-27.4 34.4s-53.7 39.5-69.7 57.2"></path><g clip-path="url(#wild__w)" style="mix-blend-mode:overlay"><path fill="url(#wild__x)" d="M2494.7 1569.2v18s-72.9-4.2-106.2 78.4c0 0-31.8-52.4 11.7-91.9s94.5-4.5 94.5-4.5z" opacity=".4"></path></g><path fill="none" stroke="#31323d" stroke-linecap="round" stroke-linejoin="round" stroke-width="12.5" d="M2772.3 1762.3c50.9 326.4-243.1 422.2-455.1 410.2s-344-168.3-344-168.3-45.6-48.7-72.6-81.6"></path><path fill="#31323d" d="M2294.1 2177.4v.2l-.2.4-1.1 1.7-1.7 2.7-2.1 3.6-2.3 4.3-1.2 2.4-1.2 2.5-1.1 2.6-1.1 2.7-1 2.8-.9 2.8c-.6 2-.9 3.7-1.3 5.7a50.9 50.9 0 0 0-.7 5.6c-.1 1.8-.1 3.6 0 5.2s.3 3.3.6 4.7.3 1.4.4 2.1.3 1.3.5 1.9.7 2.2 1 3.1l.7 2 .3.7v.2a2.5 2.5 0 0 1-4.2 2.6l-.6-.6c-.3-.4-.9-1-1.5-1.8l-1-1.4-1.1-1.7a33.5 33.5 0 0 1-2.3-4.4 37.8 37.8 0 0 1-2-5.6 42.1 42.1 0 0 1-1.3-6.5 48.7 48.7 0 0 1-.3-7.1 59.2 59.2 0 0 1 .7-7.2l.7-3.6.9-3.5 1.1-3.3 1.2-3.2 1.3-3 1.4-2.8 1.4-2.6 1.4-2.4 1.3-2.1 1.3-1.9 2.2-3 1.6-1.9.5-.5h.1a6.3 6.3 0 0 1 9.7 7.9z"></path><path fill="#31323d" d="M2164.1 2144.9v.2l-.2.4-1.1 1.7-1.7 2.7-2.1 3.6-2.3 4.3-1.2 2.4-1.2 2.5-1.1 2.6-1.1 2.7-1 2.8-.9 2.8c-.6 2-.9 3.7-1.3 5.7a50.9 50.9 0 0 0-.7 5.6c-.1 1.8-.1 3.6 0 5.2s.3 3.3.6 4.7.3 1.4.4 2.1.3 1.3.5 1.9.7 2.2 1 3.1l.7 2 .3.7v.2a2.5 2.5 0 0 1-4.2 2.6l-.6-.6c-.3-.4-.9-1-1.5-1.8l-1-1.4-1.1-1.7a33.5 33.5 0 0 1-2.3-4.4 37.8 37.8 0 0 1-2-5.6 42.1 42.1 0 0 1-1.3-6.5 48.7 48.7 0 0 1-.3-7.1 59.2 59.2 0 0 1 .7-7.2l.7-3.6.9-3.5 1.1-3.3 1.2-3.2 1.3-3 1.4-2.8 1.4-2.6 1.4-2.4 1.3-2.1 1.3-1.9 2.2-3 1.6-1.9.5-.5h.1a6.3 6.3 0 0 1 9.7 7.9z"></path><path fill="#31323d" d="M2085.2 2102.5l-.2.2-.4.7-1.7 2.8-2.6 4.5c-1 1.7-2.1 3.7-3.2 5.9l-1.6 3.4c-.5 1.2-1.1 2.4-1.6 3.7l-.8 2-.7 2c-.3.7-.4 1.4-.7 2.1s-.4 1.4-.6 2.2c-.8 3.2-1.6 6.5-2.3 9.8s-1.3 6.7-1.9 10.1a161.3 161.3 0 0 0-2.2 20c-.1 3.2-.1 6.3 0 9.1a73.3 73.3 0 0 0 .9 8.1 44.5 44.5 0 0 0 3.4 11.4 32.3 32.3 0 0 0 1.5 2.9l.6 1h.1a2.5 2.5 0 0 1-4 3l-.9-1a37.7 37.7 0 0 1-2.3-3.1 41.7 41.7 0 0 1-2.9-5.3 53.3 53.3 0 0 1-2.7-7.3 69.1 69.1 0 0 1-2-8.9 89.7 89.7 0 0 1-1.1-10c-.2-3.5-.3-7-.1-10.6s.3-7.3.7-10.9.8-7.2 1.4-10.8 1.2-7 1.8-10.3l.5-2.6c.2-.9.3-1.8.6-2.6l.7-2.5.8-2.4a69.2 69.2 0 0 1 3.5-8.6c.6-1.3 1.3-2.5 1.9-3.7l1.9-3.2c1.2-2 2.4-3.6 3.4-5l2.5-3.1.7-.8.2-.3a6.3 6.3 0 0 1 9.8 7.7v.2z"></path><path fill="#31323d" d="M2412.2 2175v.8l-.3 1.9-.4 3.3c-.1 1.3-.3 2.7-.4 4.3v2.5c0 .9-.2 1.7-.1 2.6v2.8c0 .9-.1 1.9 0 2.9s.1 4 .3 6.1l.3 3.1.3 3 .6 3.4c.2 1.1.4 2 .6 3s.4 2 .7 2.9.5 2 .8 2.9l.9 2.8c.3.9.7 1.8 1 2.6s1.4 3.3 2 4.8l.5 1.1.5 1 1 1.9.9 1.7.8 1.4 1.5 2.7v.2a2.5 2.5 0 0 1-3.8 3.1l-2.5-2.2-1.3-1.2-1.4-1.5a43 43 0 0 1-3.2-3.8 47.6 47.6 0 0 1-3.4-4.8c-.5-.9-1.2-1.8-1.7-2.8l-1.6-3c-.6-1-1-2.1-1.5-3.2a34.8 34.8 0 0 1-1.4-3.4c-.4-1.2-.9-2.4-1.2-3.5l-.9-3.3v-1.1l-.2-.9-.4-1.8-.7-3.6a34.1 34.1 0 0 1-.4-3.6l-.3-3.5c-.2-2.3-.1-4.5-.1-6.6s.2-4.1.4-5.9.5-3.5.7-5 .6-2.8.8-3.8.5-2 .7-2.6l.3-.8a6.3 6.3 0 0 1 12.1 3z"></path><path fill="#31323d" d="M2545.1 2215.1s-.2-1.1-.6-3-.8-4.6-1.4-7.8c-.3-1.6-.7-3.3-1.1-5s-.9-3.6-1.5-5.5-1.2-3.8-1.9-5.7l-1.1-2.8-1.2-2.9-1.2-2.9-1.3-2.9c-.8-1.9-1.7-3.8-2.6-5.6l-2.5-5.2-2.3-4.6-4.9-9.4v-.2a6.3 6.3 0 0 1 10.6-6.6l.5.7 1.3 2c1.1 1.7 2.7 4.1 4.3 7.1s1.7 3.1 2.6 4.9 1.8 3.6 2.6 5.6 1.7 4 2.5 6.2l1.2 3.3c.4 1.1.8 2.2 1.1 3.3l.5 1.6.3.9.2.9c.3 1.2.6 2.3.8 3.5s.4 2.3.7 3.4.3 2.3.4 3.4.4 4.3.4 6.4 0 3.9-.1 5.7a78.8 78.8 0 0 1-.9 8.3c-.1 1-.3 1.8-.4 2.3v.8a2.5 2.5 0 0 1-5 .1z"></path><path fill="#31323d" d="M2631.3 2100l.5.4 1.4 1.2 2.3 2.1c.9.8 1.8 1.8 2.7 2.8l3 3.4c1 1.3 2 2.7 3 4.1l1.5 2.2.8 1.1.4.6h.2l.2.3c.9 1.5 1.8 3 2.7 4.8s.9 1.7 1.3 2.6l1.2 2.6c.4.8.8 1.7 1.1 2.6l1 2.5c.6 1.7 1.1 3.4 1.5 4.9l1 4.5.5 3.9a11.5 11.5 0 0 1 .1 1.6v4a2.5 2.5 0 0 1-4.9.9v-.1l-.8-2.2a26.3 26.3 0 0 0-.9-2.5l-1.4-3.2-1.8-3.6-2.2-3.9c-.9-1.3-1.6-2.7-2.6-4l-1.4-2-1.5-2c-.9-1.3-2.1-2.7-3.2-4.1l-3.1-3.6-2.9-3.5-2.7-3-2.2-2.5-1.7-1.9-1.2-1.3-.4-.5a6.3 6.3 0 0 1 8.5-9.2z"></path><path fill="#31323d" d="M2715.8 2022.3h2l1.1.3 2.5 1 1.4.7 1.4.8a29.1 29.1 0 0 1 2.9 2.1l1.5 1.2 1.4 1.3.9.8.6.7 1.3 1.4 1.3 1.4 1.3 1.6 2.6 3.2c.9 1.1 1.5 2.1 2.2 3.2l2 3c.6.9 1.2 1.9 1.7 2.7l2.4 4.2.8 1.6a2.5 2.5 0 0 1-3.8 3.2h-.1l-1.4-1.1-3.5-3-2.3-2-2.6-2.2-2.8-2.3-2.8-2.2-1.4-1.1-1.5-1.1-1.5-1.1-.7-.5h-.2l-.3-.2-2.6-1.7-2.2-1.4-.9-.6-.8-.5-1.2-.7-.3-.2c.3 0-.1-.1 0-.1a6.2 6.2 0 1 1 1.6-12.4z"></path><path fill="#31323d" d="M2755.7 1950.1h2.2l2.1.4 2.5.7 2.7 1.1 2.8 1.5 2.7 1.9a32.2 32.2 0 0 1 2.5 2.1 29.7 29.7 0 0 1 2.3 2.3c.7.8 1.4 1.5 2 2.3l1.7 2.2 1.4 2.1 1.1 1.8.8 1.4.7 1.2a2.5 2.5 0 0 1-4 3h-.1l-.9-.9-1-1.1-1.3-1.3-1.6-1.5-1.9-1.5-2.1-1.5-2.2-1.3-2.2-1.1-2.2-.8-2-.5-1.7-.3h-2.7a6.3 6.3 0 0 1-1.6-12.2z"></path><path fill="#31323d" d="M2354.6 1685.5h-.5l-1.3.4c-1.2.4-3 1.1-5.3 2.1a89.7 89.7 0 0 0-8.1 4.1 99.8 99.8 0 0 0-9.9 6.6 103.1 103.1 0 0 0-10.7 9.4 104.5 104.5 0 0 0-10.3 12.2l-1.2 1.7-1.2 1.8-2.3 3.6-2.2 3.7c-.7 1.3-1.5 2.5-2.1 3.8l-2 3.9c-.7 1.3-1.2 2.7-1.8 4.1s-1.2 2.7-1.8 4.1l-1.6 4.2a153.1 153.1 0 0 0-5.1 17.2c-1.3 5.8-2.4 11.6-3.2 17.2-.2 1.4-.5 2.8-.6 4.2l-.4 4.1c-.2 2.7-.6 5.4-.6 8l-.4 7.6c-.1 2.5 0 4.9 0 7.2v3.4c0 1.1 0 2.2.1 3.2l.3 5.9.2 5.2.4 4.4.7 8.4a2.5 2.5 0 0 1-5 .5l-1.1-8.5-.6-4.5-.4-5.3-.5-6.1c-.1-1.1-.2-2.2-.2-3.3v-3.4c-.1-2.3-.2-4.8-.2-7.3v-7.9c0-2.7.2-5.5.3-8.3l.2-4.3c.1-1.4.3-2.9.4-4.4.5-5.9 1.4-12 2.6-18.1a161.9 161.9 0 0 1 4.7-18.4l1.5-4.5c.5-1.5 1.1-3 1.7-4.5s1.1-3 1.8-4.4l2-4.3c.6-1.5 1.4-2.8 2.1-4.2l2.2-4.1 2.4-4 1.2-2 1.3-1.9a114.1 114.1 0 0 1 22.2-24.6 111.5 111.5 0 0 1 10.9-7.8 101.2 101.2 0 0 1 9.1-5.1c2.6-1.3 4.8-2.1 6.3-2.7l1.9-.7.6-.2a6.3 6.3 0 1 1 3.8 11.9h-.4z"></path><path fill="#31323d" d="M2406.4 1708.1l-.3 2.5c-.2 1.6-.6 3.9-1.1 6.9s-1.2 6.5-2 10.5-1.9 8.6-3.1 13.5-2.7 10.3-4.4 15.8l-1.3 4.2-1.4 4.3c-.9 2.9-2 5.9-3 8.9s-2.3 6-3.4 9.1-2.5 6.1-3.8 9.2-2.7 6.1-4.2 9.2l-2.2 4.6-2.4 4.5c-1.5 3-3.3 5.9-5 8.9s-3.6 5.7-5.4 8.6-3.8 5.5-5.8 8.1l-3 3.9-1.5 1.9-1.6 1.8c-2.1 2.4-4.1 4.9-6.3 7.1s-4.2 4.4-6.4 6.4-4.2 4-6.4 5.7l-3.2 2.6-1.5 1.2-1.6 1.1-6 4.2-5.7 3.4c-1.8 1.1-3.6 1.9-5.2 2.7l-4.4 2.2-8.7 3.5a2.5 2.5 0 0 1-2-4.6h.2l8.2-3.7 4.1-2.3c1.5-.8 3.2-1.6 4.8-2.8l5.3-3.4 5.6-4.2 1.5-1.1 1.4-1.2 2.9-2.5c2-1.7 3.9-3.7 5.9-5.6s3.9-4.1 5.9-6.3 3.8-4.6 5.7-6.9l1.4-1.8 1.4-1.9 2.7-3.8c1.8-2.6 3.5-5.3 5.2-8s3.3-5.5 4.9-8.4 3.1-5.7 4.5-8.7l2.1-4.4 2-4.5c1.4-3 2.6-6 3.8-9s2.3-6 3.4-9 2.1-5.9 3-8.9 1.9-5.8 2.6-8.7l1.2-4.2 1.1-4.1c1.4-5.5 2.6-10.7 3.7-15.5s1.9-9.2 2.5-13.2 1.2-7.4 1.6-10.2.7-5.1.8-6.5l.2-2.3a6.3 6.3 0 1 1 12.4 1.2v.2z"></path><path fill="#31323d" d="M1980.8 1880c4.7.6 9.6 1 14.5 1.3s9.7.5 14.6.6q14.6.3 29.2-.5l7.3-.5 7.3-.6 7.3-.7 7.2-.9 1.9-.2h6.2a31.7 31.7 0 0 1 8.3 1.6 36.7 36.7 0 0 1 14 8.8 61.1 61.1 0 0 1 9.7 12.5 103.1 103.1 0 0 1 6.8 13.8 185.9 185.9 0 0 1 8.8 28.9c2.2 9.8 3.8 19.6 5.1 29.5q.9 7.4 1.6 14.9c.4 5 .8 9.9 1 15a6.1 6.1 0 0 1-4.4 6.1h-.1l-.7.2h-.5l-1 .2-1.9.2h-4a58.2 58.2 0 0 1-6.9-.4 75 75 0 0 1-13.1-2.9 109 109 0 0 1-23.6-10.8 162.2 162.2 0 0 1-20.7-14.8c-3.2-2.7-6.4-5.5-9.4-8.4s-6-5.8-8.9-8.8-5.7-6.1-8.5-9.2-5.4-6.3-8-9.5-5.2-6.5-7.7-9.8-5-6.7-7.4-10l-7.1-10.2q-3.5-5.2-6.8-10.4l-3.3-5.2-3.2-5.3-6.3-10.7a2.5 2.5 0 0 1 2.5-3.8zm4.7 5.7l3.7 5.8 3.4 5.1 3.5 5.1q3.5 5.1 7.1 10l7.3 9.8q3.7 4.8 7.6 9.6c2.6 3.1 5.2 6.3 7.9 9.3s5.4 6.1 8.2 9 5.6 5.8 8.5 8.6 5.9 5.5 8.9 8.2 6.1 5.2 9.3 7.7a152.1 152.1 0 0 0 19.9 13.2 98 98 0 0 0 21.5 8.9 63.3 63.3 0 0 0 11.1 2 46 46 0 0 0 5.4.1l2.6-.2 1.2-.2h.8l-4.6 6.1c0-4.7-.2-9.6-.5-14.4s-.6-9.6-1.1-14.4c-.9-9.6-2.2-19.2-4-28.6a175.9 175.9 0 0 0-7.4-27.6 93.8 93.8 0 0 0-5.8-12.7 52.3 52.3 0 0 0-7.9-11 28.2 28.2 0 0 0-10.5-7.1 23.5 23.5 0 0 0-6.1-1.4h-6.6l-7.4.6-7.4.5-7.4.4-7.4.2q-14.8.4-29.7-.4c-4.9-.2-9.9-.6-14.8-1.1z"></path><path fill="#31323d" d="M2158.2 2025.7l51.8-18.7 25.8-9.5 12.8-4.9 3.1-1.2.9-.4.6-.2.7-.2 2.4-.5a17.5 17.5 0 0 1 9.4 1.5 30.2 30.2 0 0 1 7 4.5 55.9 55.9 0 0 1 5.5 5.3 113.5 113.5 0 0 1 9 11.3c5.4 7.8 10.2 15.8 14.8 23.9s8.9 16.3 13.1 24.5 8.2 16.5 12.2 24.8a6.2 6.2 0 0 1-5.1 8.9h-11.7l-11.3-.6q-11.3-.9-22.4-2.8a252.6 252.6 0 0 1-43.7-11.5 219.6 219.6 0 0 1-40.7-19.6 200.8 200.8 0 0 1-18.5-12.9c-3-2.3-5.9-4.7-8.7-7.2s-5.6-5.1-8.2-7.7a4 4 0 0 1 1.4-6.6zm9.1 5.4l3.1 2.7c2.7 2.3 5.6 4.6 8.5 6.7a192 192 0 0 0 18 11.9 209.9 209.9 0 0 0 39.3 17.7 241.7 241.7 0 0 0 42 9.9c7.1 1 14.3 1.7 21.5 2.1l10.8.3h10.5l-5.2 8.9q-5.7-12.5-11.6-24.8c-4-8.2-8-16.3-12.3-24.3s-8.8-15.8-13.7-23.2a103.2 103.2 0 0 0-7.9-10.4 45.7 45.7 0 0 0-4.3-4.4 20.2 20.2 0 0 0-4.5-3.1 7.3 7.3 0 0 0-3.9-.8l-.9.2h-.4l-.7.3-3.3 1.3-13 4.7-26.1 9z"></path><path fill="#31323d" d="M2376.1 2100.3c2.7-3.4 5.5-6.8 8.3-10.1l8.5-9.9q8.6-9.8 17.7-19.2c3.1-3.1 6.1-6.2 9.3-9.2s6.4-6 9.8-8.9 6.8-5.7 10.4-8.4a85.7 85.7 0 0 1 11.8-7.4c1-.6 2.3-1 3.4-1.6l.4-.2h.7l.8-.2 1.5-.5 2.1-.5 2.1-.4a30 30 0 0 1 4-.3 42.8 42.8 0 0 1 14.8 2.6 84.3 84.3 0 0 1 12.8 5.8c4 2.2 7.8 4.5 11.5 6.9 7.4 4.8 14.4 9.7 21.5 14.1 3.5 2.2 7.1 4.3 10.7 6.1a72.7 72.7 0 0 0 10.9 4.4l.5.2a6 6 0 0 1 3.8 7.6 6.3 6.3 0 0 1-.6 1.2l-.7 1-.5.7-1.1 1.4-2.2 2.4a51.7 51.7 0 0 1-4.7 4.1l-2.4 1.9-2.5 1.7-2.5 1.6-1.3.8-1.3.7-5.2 2.8-5.3 2.4-2.7 1.2-1.3.6-1.4.5-5.4 1.9c-3.6 1.4-7.3 2.2-11 3.2l-2.8.7-2.8.7-5.6 1.1c-3.7.7-7.4 1.6-11.1 2l-11.2 1.5-1.4.2h-1.4l-2.8.2-5.6.4-5.6.4-2.8.2h-2.8l-11.2.3H2423l-11.2-.3c-3.7-.1-7.4-.1-11.2-.4l-22.2-1.5a4 4 0 0 1-2.9-6.4h.1zm11.9-1l13.4.6c3.7.2 7.3.1 11 .1h16.5l5.5-.3 10.9-.5h2.7l2.7-.3 5.4-.6 5.4-.5 2.7-.3h1.4l1.3-.2 10.7-1.7c3.6-.5 7.1-1.4 10.6-2.2l5.3-1.2 2.6-.7 2.6-.8c3.4-1.1 6.9-1.9 10.2-3.3l5-1.9 1.2-.5 1.2-.6 2.4-1.1 4.7-2.3 4.5-2.6 1.1-.6 1.1-.7 2.1-1.4 2.1-1.5 1.9-1.6a39.6 39.6 0 0 0 3.5-3.3l1.5-1.7.6-.8.3-.4h.1l3.8 9a75.7 75.7 0 0 1-13.2-4.9c-4.2-2-8.1-4.2-11.9-6.5-7.6-4.6-14.7-9.6-21.8-14.2-3.6-2.3-7.1-4.5-10.6-6.5a71.8 71.8 0 0 0-10.7-5.1 30.3 30.3 0 0 0-10.5-2.1h-2.5l-1.1.2-1 .2-1.5.5-.8.2h-.4l-2.5 1.1a73.9 73.9 0 0 0-10.2 6.1c-3.4 2.3-6.7 4.9-9.9 7.5s-6.5 5.4-9.6 8.2l-9.4 8.6-9.2 8.9-9 9.1-8.9 9.3z"></path><path fill="#31323d" d="M2603.8 2029c3-16.7 5.7-33.4 8.2-50.1 1.2-8.4 2.4-16.7 3.4-25.1.5-4.2.9-8.3 1.3-12.5s.7-8.3.7-12.3v-2.9c0-.9 0-1-.1-1.4v-3.6c0-.7 0-1.4.1-2.1a25.2 25.2 0 0 1 .7-4.1 31.1 31.1 0 0 1 7.7-13.8 46.5 46.5 0 0 1 11.7-8.9 66.3 66.3 0 0 1 13-5.4 94.9 94.9 0 0 1 26.9-3.7 127.6 127.6 0 0 1 26.6 2.8h.2a6 6 0 0 1 4.5 4.1 20.2 20.2 0 0 1 .5 2l.3 1.6c.2 1.1.3 2.1.3 3.2a55.1 55.1 0 0 1 .1 6.1 75.5 75.5 0 0 1-1.5 11.7 99.6 99.6 0 0 1-3 11.2c-.6 1.8-1.3 3.6-1.9 5.4l-2.2 5.2-2.4 5.1-2.6 5-2.8 4.9-2.9 4.8c-1 1.6-2 3.1-3.1 4.7s-2.1 3.1-3.2 4.6l-3.3 4.5-3.4 4.4-1.7 2.2-1.8 2.1-3.6 4.2c-2.5 2.7-4.9 5.5-7.4 8.2l-3.8 4-1.9 2-2 1.9c-2.6 2.6-5.2 5.2-7.9 7.7s-5.3 5-8.1 7.4-5.4 4.9-8.3 7.2l-8.4 7-8.5 6.8a4 4 0 0 1-5.1-6.2h.1l8.2-6.9c2.7-2.3 5.4-4.7 8.1-7.1s5.3-4.8 7.9-7.3 5.2-5 7.7-7.5 5-5.1 7.5-7.7l1.9-1.9 1.8-2 3.6-4c2.4-2.7 4.6-5.4 6.9-8.1l3.3-4.2 1.7-2.1 1.6-2.1 3.2-4.3 3-4.4c1-1.4 2-2.9 2.9-4.4s1.9-2.9 2.8-4.5l2.6-4.5 2.5-4.6 2.3-4.7 2.1-4.7 1.9-4.8c.5-1.6 1.1-3.2 1.6-4.9a87.9 87.9 0 0 0 2.4-9.8 63.5 63.5 0 0 0 1-9.8 42.7 42.7 0 0 0-.2-4.7c-.1-.8-.2-1.5-.3-2.2l-.2-1-.2-.6 4.6 4.1a115.2 115.2 0 0 0-24-2.6 82.6 82.6 0 0 0-23.4 3.2 53.9 53.9 0 0 0-10.5 4.3 34.2 34.2 0 0 0-8.5 6.5 18.7 18.7 0 0 0-4.7 8.2 12.8 12.8 0 0 0-.4 2.2c0 .4 0 .8-.1 1.1v2.7c0 .6.1 1.2.1 1.8v3.4c-.1 4.5-.4 8.8-.8 13.2s-.8 8.6-1.3 12.9c-1 8.5-2.2 17-3.4 25.4q-3.8 25.3-8.3 50.5a6.3 6.3 0 0 1-12.3-2.2z"></path><path fill="#31323d" d="M2541.8 1589.8l1.1 1.3 1.1 1.2 2.4 2.5c1.6 1.6 3.4 3.2 5.1 4.7a114.7 114.7 0 0 0 11.2 8.3 149.4 149.4 0 0 0 24.9 13 118.3 118.3 0 0 0 26.5 7.7 62 62 0 0 0 6.6.6 37.5 37.5 0 0 0 6.2-.2l2.8-.5 2.3-.8a5.4 5.4 0 0 0 2.5-2.2l-.8 5-.3-1.2-.4-1.4-1-2.8c-.7-1.9-1.5-3.8-2.4-5.6s-1.8-3.7-2.8-5.5-2.1-3.6-3.2-5.3-2.3-3.4-3.6-5-2.6-3.2-3.9-4.7l-2.1-2.2-2.2-2.2-2.3-2.1-1.2-1-1.2-1c-1.6-1.3-3.3-2.5-4.9-3.7s-3.4-2.3-5.2-3.3l-2.7-1.5-2.8-1.4-2.8-1.3-2.9-1.2c-1.9-.7-3.9-1.5-5.9-2l-3-.9-3-.8-1.5-.4-1.5-.3-3.1-.6-6.3-.9h-2.3l-2.8.2-5.5.7a44 44 0 0 0-5.2 1.2l-2.4.8-2.2 1-1.8 1.2a6.4 6.4 0 0 0-1.2 1.3l-.2.3-.2.4V1580.1a2.4 2.4 0 0 0 0 .4 4.7 4.7 0 0 0 0 .9 10.6 10.6 0 0 0 1.4 4.1 24.3 24.3 0 0 0 1.3 2.2zm-6.3 4.9l-1.9-2.6a32.1 32.1 0 0 1-1.7-2.9 26.4 26.4 0 0 1-1.4-3.3 16.3 16.3 0 0 1-.9-3.7 12.5 12.5 0 0 1-.1-2.1 9.1 9.1 0 0 1 .1-1.1v-2l.2-.5.2-.5.4-1 .5-.9a14.4 14.4 0 0 1 2.6-3.1 19.2 19.2 0 0 1 3-2.2l3.1-1.6 3.1-1.2a52.4 52.4 0 0 1 6.2-1.7c2.1-.4 4.1-.7 6.2-1l3.1-.3 3.2-.2h.4l6.8.7 3.4.5 1.7.3 1.7.4 3.4.7 3.4.9c2.2.6 4.4 1.3 6.6 2l3.3 1.2 3.2 1.3 3.2 1.5 3.1 1.6c2.1 1 4.1 2.3 6.1 3.5s3.9 2.6 5.8 4l1.4 1.1 1.4 1.1 2.7 2.3 2.6 2.4 2.5 2.5 2.4 2.6 2.3 2.7q2.3 2.7 4.3 5.6c1.4 1.9 2.7 3.9 3.9 5.9s2.4 4.1 3.4 6.2 2.1 4.2 3 6.4l1.3 3.4.6 1.7.6 1.9a6.1 6.1 0 0 1-.8 4.9 17.2 17.2 0 0 1-3.9 4.3 20.2 20.2 0 0 1-4.6 2.7 29.5 29.5 0 0 1-8.9 2.1 49.6 49.6 0 0 1-8.3-.1 73.8 73.8 0 0 1-7.8-1.1 129.4 129.4 0 0 1-28.7-9.6 159.1 159.1 0 0 1-25.9-14.9 123.7 123.7 0 0 1-11.7-9.4c-1.9-1.7-3.7-3.5-5.4-5.3l-2.5-2.8-1.3-1.5-1.1-1.4h-.1z"></path><path fill="#31323d" d="M2382.1 1673.8c-.1-1.9 0-3.7 0-5.4s.1-3.5.2-5.3c.2-3.5.5-7 1-10.5a150.6 150.6 0 0 1 4-20.8 111.1 111.1 0 0 1 7.5-20.2 76.9 76.9 0 0 1 12.4-18.3 60.8 60.8 0 0 1 18-13.5 63.1 63.1 0 0 1 10.6-4 67.1 67.1 0 0 1 11-2 81.5 81.5 0 0 1 11-.4l5.4.4 2.7.3 2.7.4c3.6.5 7.1 1.2 10.5 2l5.2 1.3 5.1 1.5h.1a5.8 5.8 0 0 1 3.2 2.4l.2.3h.1v.3l.2.5.4.8.6 1.6a18.1 18.1 0 0 1 .7 3.2 19.8 19.8 0 0 1-.2 6.3 25.6 25.6 0 0 1-4.7 10.3 41.7 41.7 0 0 1-7 7.3 71.1 71.1 0 0 1-7.8 5.5c-2.7 1.6-5.4 3.1-8.1 4.5l-4.1 2-3.9 1.8-3.9 1.9-3.7 1.9c-2.5 1.2-4.9 2.7-7.4 4.1l-3.6 2.2-3.6 2.3-3.5 2.4-3.4 2.5-1.7 1.3-1.6 1.3-3.3 2.7-3.2 2.8-3.1 2.9-3.1 3-3 3-5.9 6.3-5.8 6.4-5.9 6.5a4 4 0 0 1-6-5.3l5.6-6.6 5.7-6.7 5.9-6.6 3-3.3 3.1-3.2 3.2-3.1 3.3-3.1 3.4-3 1.7-1.5 1.8-1.4 3.5-2.8 3.6-2.7 3.7-2.6 3.8-2.5c2.6-1.6 5.1-3.2 7.8-4.6l4-2.2 3.9-2 4-2 3.7-1.9c2.5-1.3 4.8-2.7 7.1-4.2a59.7 59.7 0 0 0 6.3-4.8 30 30 0 0 0 4.9-5.4 13.6 13.6 0 0 0 2.4-5.5 7.5 7.5 0 0 0 0-2.4 5.6 5.6 0 0 0-.3-1.1l-.2-.4h-.1v.2l3.3 2.5-4.7-1.4-4.7-1.2c-3.1-.7-6.3-1.4-9.4-1.8l-2.4-.3-2.4-.2-4.7-.3a69 69 0 0 0-9.3.3 54.6 54.6 0 0 0-9 1.7 50.6 50.6 0 0 0-8.4 3.2 45.3 45.3 0 0 0-7.6 4.7 50.7 50.7 0 0 0-6.7 6.1 64.4 64.4 0 0 0-10.4 15.3 98.7 98.7 0 0 0-6.7 17.9 138.2 138.2 0 0 0-3.7 19.1c-.4 3.2-.7 6.5-.9 9.7-.1 1.6-.2 3.3-.2 4.9s-.1 3.3 0 4.7a6.2 6.2 0 0 1-12.5.3z"></path></g></g></g><g clip-path="url(#kittyClipPath)"><g id="bodyFur"><clipPath id="furClipPath"><path d="M1211.5 866.4a240.2 240.2 0 0 1 129.5-37.8h158.2A240.5 240.5 0 0 1 1607 854c24.5-19.2 89.4-68.2 129.3-66.3a15 15 0 0 1 12.1 22.9L1684 914.8a240.5 240.5 0 0 1 47.2 89.2l295.1 960.1a248.1 248.1 0 0 1-6.4 155.9l.8.3c47.5 13.8 136.8 46.1 179.8 75.5 26.1 17.8 10.1 55.9-23.2 55.3l-261.6-5a246.8 246.8 0 0 1-65.3 28c2.8 13.3 12.3 21 28.1 21.9 18.2 1 23.7 18.6 24.5 25.5 2.3 21.2-5.8 34.7-27.9 36.9l-91.8 3a53.5 53.5 0 0 1-22.3-4 71.6 71.6 0 0 1-43.1-54.3l-3.5-20.7h-533.5l-5 26.6a71.4 71.4 0 0 1-8.8 23.9c-13.4 22.8-38.9 35.7-65.3 34.1l-84.3-5c-21.4-1.6-31.9-18.9-27.2-40.4 2.5-11.1 15.1-20.3 30.6-21.1 23.3-1.2 30.3-20.2 29.9-43.6v-3.3q-7.1-3.7-13.9-7.9L770 2251c-33.3.6-49.7-38.2-23.2-55.3 54-34.9 146.4-69.2 184.5-78.3l.6-.2a248.9 248.9 0 0 1-12.6-117.6l182.9-961.4a240.3 240.3 0 0 1 33-93.8l-60.5-108.1a15 15 0 0 1 .9-16c24.9-34.9 89.3 8.5 130.8 42.6z" fill="none"></path></clipPath><g clip-path="url(#furClipPath)"><path fill="#ecd1eb" d="M724.1 562.8h1509.4v1824.09H724.1z"></path><path fill="#ffad97" d="M1181.5 2294.7c-5.6-14.6 3.2-56.8 20.7-141.2 10.4-50.5 18.8-83.5 24-105 23.2-97.1 54-233.8 68-286 8-30 31.6-49 72.1-49.1 18.5-.1 46.5 11.1 60.5 25.8a15.7 15.7 0 0 0 23.2-.4c22.8-25 67.4-37.7 98.2-28.1 59.3 18.5 89.2 134.4 122.3 320 6.9 38.6 13.7 77.2 20.7 115.8 4 22.6 7.9 45.3 12 68 9.4 53.2 9.6 54.1 9.3 56.2-9.7 78.5-486.6 140.6-531 24z"></path><path fill="#4a4855" d="M1167.1 2332.9l-28.1 27.9-44.1 5.8-105.8-10.6v-43.4c32.6-15.1 63.1-58.2 63.1-58.2 37.6-20 50.5-79.6 56.8-133.2a3.6 3.6 0 0 1 7.1.1c5.4 65.1 25.3 144.3 66.4 152.6 4 17.1-15.4 59-15.4 59zM1848.8 2257.5c42.5 28.3 56.7 55.1 56.7 55.1v43.4l-105.7 10.6-44.2-5.8-28-27.9s-7.7-43-13.1-75.4c57.5 1.4 68.4-87.2 69.6-142.4a3.4 3.4 0 0 1 6.8-.6c10 48.6 29.7 124.2 57.9 143z"></path><path fill="#4a4855" d="M931.3 2117.4s33.5 95.1 119.1 136.1l-297.7-2.5-22-32.7 8.5-23.6c56.8-29.8 121.7-55.1 192.1-77.3zM2029.3 2100.7s-28 105.8-132.6 155.8l333.5 4v-80zM1603.3 850.4l50.9 36.4 49.3 52.7 49.3 76.6 38.9 63.3c5.2-8.1 1193.7-742.5 1192.5-747.9-2-8.7 0-319.9 0-319.9H1959.8zM1222.2 859.5L818 11.6H18.2v903.2l1046 176.5 38.8-90 28.2-56.9 24.8-29.6 38.3-35.3 27.9-20z"></path></g></g><g id="shadow" style="mix-blend-mode:multiply"><defs><clipPath id="shadowClipPath"><path d="M1211.5 866.4a240.2 240.2 0 0 1 129.5-37.8h158.2A240.5 240.5 0 0 1 1607 854c24.5-19.2 89.4-68.2 129.3-66.3a15 15 0 0 1 12.1 22.9L1684 914.8a240.5 240.5 0 0 1 47.2 89.2l295.1 960.1a248.1 248.1 0 0 1-6.4 155.9l.8.3c47.5 13.8 136.8 46.1 179.8 75.5 26.1 17.8 10.1 55.9-23.2 55.3l-261.6-5a246.8 246.8 0 0 1-65.3 28c2.8 13.3 12.3 21 28.1 21.9 18.2 1 23.7 18.6 24.5 25.5 2.3 21.2-5.8 34.7-27.9 36.9l-91.8 3a53.5 53.5 0 0 1-22.3-4 71.6 71.6 0 0 1-43.1-54.3l-3.5-20.7h-533.5l-5 26.6a71.4 71.4 0 0 1-8.8 23.9c-13.4 22.8-38.9 35.7-65.3 34.1l-84.3-5c-21.4-1.6-31.9-18.9-27.2-40.4 2.5-11.1 15.1-20.3 30.6-21.1 23.3-1.2 30.3-20.2 29.9-43.6v-3.3q-7.1-3.7-13.9-7.9L770 2251c-33.3.6-49.7-38.2-23.2-55.3 54-34.9 146.4-69.2 184.5-78.3l.6-.2a248.9 248.9 0 0 1-12.6-117.6l182.9-961.4a240.3 240.3 0 0 1 33-93.8l-60.5-108.1a15 15 0 0 1 .9-16c24.9-34.9 89.3 8.5 130.8 42.6z" fill="none"></path></clipPath><linearGradient id="shadowGradient" x1="1180.91" y1="2153.98" x2="1714.46" y2="2153.98" gradientUnits="userSpaceOnUse"><stop offset="0" stop-color="gray"></stop><stop offset=".27" stop-color="#7d7d7d"></stop><stop offset=".46" stop-color="#747474"></stop><stop offset=".64" stop-color="#646464"></stop><stop offset=".8" stop-color="#4d4d4d"></stop><stop offset=".95" stop-color="#303030"></stop><stop offset="1" stop-color="#242424"></stop></linearGradient><linearGradient id="shadowGradient2" x1="1713.27" y1="794.55" x2="1713.27" y2="927.94" gradientUnits="userSpaceOnUse"><stop offset="0" stop-color="gray"></stop><stop offset=".14" stop-color="#797979"></stop><stop offset=".35" stop-color="#646464"></stop><stop offset=".6" stop-color="#434343"></stop><stop offset=".89" stop-color="#141414"></stop><stop offset="1"></stop></linearGradient><linearGradient id="shadowGradient3" x1="1028.58" y1="855.47" x2="1028.58" y2="2254.41" href="#shadowGradient" xlink:href="#shadowGradient"></linearGradient><linearGradient id="shadowGradient4" x1="1971.82" y1="1970.17" x2="1971.82" y2="2305.13" href="#shadowGradient" xlink:href="#shadowGradient"></linearGradient><linearGradient id="shadowGradient5" x1="1041.15" y1="888.73" x2="1175.15" y2="888.73" href="#shadowGradient2" xlink:href="#shadowGradient2"></linearGradient></defs><g clip-path="url(#shadowClipPath)"><path d="M1213.2 2110.7c-22.2 91.8 60.8 117.5 83.2 119.2 41.2 3.1 203.6 5.6 287.7-7.9 43.8-7 109.2-65.4 87.3-196.3l43 256.8h-533.5z" opacity=".2" fill="url(#shadowGradient)"></path><path d="M1233.2 855.5c-66 66-73.4 124.2-101.7 248-48.7 214.1-107.5 671.9-126.3 823.4a910.2 910.2 0 0 0-6.8 98.4v3.4c23.5 26 47.6 88.8 52.6 176.8l1.3 49s-31.3-.8-81-.8c-62 0-110.8-111.7-79.2-278.2 28.4-149.5-68-915.5-68-915.5l282.1-44.3s16-102.2 127-160.2z" opacity=".2" fill="url(#shadowGradient3)"></path><path d="M1854.3 2157.4s29.9-91.4 66.3-124.9c-39.4 75 14.1 92.7 28.1 87.7 53.7-19.2 75-66.7 79.2-150l65.3 116.3s-55 256-204 214l-38.7-18.1z" opacity=".2" fill="url(#shadowGradient4)"></path><path d="M1781.2 799.5s-38-26-102 41.5l-33.7 40.5 56.1 46.5z" opacity=".4" fill="url(#shadowGradient2)" style="mix-blend-mode:multiply"></path><path d="M1041.2 839.5s27.5-18.9 71.6-.8a122.7 122.7 0 0 1 47.5 35.2l14.9 17.9-37.7 54.9z" opacity=".4" fill="url(#shadowGradient5)" style="mix-blend-mode:multiply"></path></g></g><g id="highlight" style="mix-blend-mode:overlay"><defs><clipPath id="highlightClipPath"><path d="M1211.5 866.4a240.2 240.2 0 0 1 129.5-37.8h158.2A240.5 240.5 0 0 1 1607 854c24.5-19.2 89.4-68.2 129.3-66.3a15 15 0 0 1 12.1 22.9L1684 914.8a240.5 240.5 0 0 1 47.2 89.2l295.1 960.1a248.1 248.1 0 0 1-6.4 155.9l.8.3c47.5 13.8 136.8 46.1 179.8 75.5 26.1 17.8 10.1 55.9-23.2 55.3l-261.6-5a246.8 246.8 0 0 1-65.3 28c2.8 13.3 12.3 21 28.1 21.9 18.2 1 23.7 18.6 24.5 25.5 2.3 21.2-5.8 34.7-27.9 36.9l-91.8 3a53.5 53.5 0 0 1-22.3-4 71.6 71.6 0 0 1-43.1-54.3l-3.5-20.7h-533.5l-5 26.6a71.4 71.4 0 0 1-8.8 23.9c-13.4 22.8-38.9 35.7-65.3 34.1l-84.3-5c-21.4-1.6-31.9-18.9-27.2-40.4 2.5-11.1 15.1-20.3 30.6-21.1 23.3-1.2 30.3-20.2 29.9-43.6v-3.3q-7.1-3.7-13.9-7.9L770 2251c-33.3.6-49.7-38.2-23.2-55.3 54-34.9 146.4-69.2 184.5-78.3l.6-.2a248.9 248.9 0 0 1-12.6-117.6l182.9-961.4a240.3 240.3 0 0 1 33-93.8l-60.5-108.1a15 15 0 0 1 .9-16c24.9-34.9 89.3 8.5 130.8 42.6z" fill="none"></path></clipPath><linearGradient id="highlightGradient" x1="1844.99" y1="2256.39" x2="1844.99" y2="835.98" gradientUnits="userSpaceOnUse"><stop offset="0" stop-color="#fff" stop-opacity="0"></stop><stop offset=".72" stop-color="#fff"></stop></linearGradient><linearGradient id="highlightGradient2" x1="2116.32" y1="2248.97" x2="2116.32" y2="2113.28" href="#highlightGradient" xlink:href="#highlightGradient"></linearGradient><linearGradient id="highlightGradient3" x1="1044.74" y1="2253.08" x2="1044.74" y2="2117.39" gradientTransform="matrix(-1 0 0 1 1878.82 0)" href="#highlightGradient" xlink:href="#highlightGradient"></linearGradient><linearGradient id="highlightGradient4" x1="916.62" y1="1544.97" x2="1280" y2="1544.97" href="#highlightGradient" xlink:href="#highlightGradient"></linearGradient></defs><g clip-path="url(#highlightClipPath)" opacity=".3"><path d="M1547.8 836.6s70.1 33.5 92.1 64.8 44.1 86.3 65.6 181c58.9 258.7 229.4 683.2 275.5 888s-92.3 286-92.3 286l61.1-35.5s63-74.8 72.5-107.6c20.8-71.9 139-33 117.2-147.7-31.7-166.5-305.7-970.5-305.7-970.5s-123.4-29.9-151.2-79.3c-20.7-36.8-73.2-64.7-124.1-79.9z" fill="url(#highlightGradient)"></path><path d="M1999.2 2162.4s113.2 21.1 98.4 83.6l92.6 3 43.3-6.5-4.3-68.5-206.8-60.7z" fill="url(#highlightGradient2)"></path><path d="M951.2 2166.5s-113.2 21.1-98.4 83.6l-92.6 3-43.3-6.5 4.3-68.5 206.8-60.7z" opacity=".7" fill="url(#highlightGradient3)"></path><path d="M1124.3 1019.4l-176.1 935.1s-53.5 175 102.2 279l.3 20.2s-124.5-57.2-133.5-215.2 100-604 100-604l81.8-433s88.4-169.6 181-165c0-.1-140.8 103.5-155.7 182.9z" fill="url(#highlightGradient4)" style="mix-blend-mode:overlay"></path></g></g><g id="bodyMask"><path d="M1211.5 866.4a240.2 240.2 0 0 1 129.5-37.8h158.2A240.5 240.5 0 0 1 1607 854c24.5-19.2 89.4-68.2 129.3-66.3a15 15 0 0 1 12.1 22.9L1684 914.8a240.5 240.5 0 0 1 47.2 89.2l295.1 960.1a248.1 248.1 0 0 1-6.4 155.9l.8.3c47.5 13.8 136.8 46.1 179.8 75.5 26.1 17.8 10.1 55.9-23.2 55.3l-261.6-5a246.8 246.8 0 0 1-65.3 28c2.8 13.3 12.3 21 28.1 21.9 18.2 1 23.7 18.6 24.5 25.5 2.3 21.2-5.8 34.7-27.9 36.9l-91.8 3a53.5 53.5 0 0 1-22.3-4 71.6 71.6 0 0 1-43.1-54.3l-3.5-20.7h-533.5l-5 26.6a71.4 71.4 0 0 1-8.8 23.9c-13.4 22.8-38.9 35.7-65.3 34.1l-84.3-5c-21.4-1.6-31.9-18.9-27.2-40.4 2.5-11.1 15.1-20.3 30.6-21.1 23.3-1.2 30.3-20.2 29.9-43.6v-3.3q-7.1-3.7-13.9-7.9L770 2251c-33.3.6-49.7-38.2-23.2-55.3 54-34.9 146.4-69.2 184.5-78.3l.6-.2a248.9 248.9 0 0 1-12.6-117.6l182.9-961.4a240.3 240.3 0 0 1 33-93.8l-60.5-108.1a15 15 0 0 1 .9-16c24.9-34.9 89.3 8.5 130.8 42.6z" fill="none"></path></g><g id="body"><path fill="none" stroke="#31323D" stroke-width="12.5" stroke-miterlimit="10" d="M1714.5 2282.4h-533.6m-130.2-28.7c-89.2-47.1-145.7-146.2-131.5-254.1l182.9-961.4c15.8-119.9 118-209.6 238.9-209.6h158.2c107.8 0 202.5 71.6 231.9 175.4l295.1 960.1c39 137.9-45.2 275-175.8 309.9" stroke-linecap="round"></path><path fill="#31323D" d="M1228.6 2040.8c-1.7 15.3-3.8 30.4-6 45.6l-3.5 22.7-3.8 22.6c-2.6 15.1-5.4 30.1-8.1 45.2l-8.3 45.1-16.6 90.3c-.8 4.1-2 8.2-3.5 12.1-1.5 3.9-3.3 7.8-5.4 11.4-4.2 7.3-9.6 13.9-16 19.4-12.9 11.1-29 17.6-45.9 18.8l-6.3.2h-6.1l-11.5-.7-22.9-1.3-45.8-2.8h-4.7l-1.8-.3c-2.3-.4-4.5-1-6.7-1.7-4.6-1.6-8.7-4.1-12.3-7.3-3.6-3.3-6.4-7.3-8.3-11.7-1.8-4.3-2.9-8.9-3.1-13.5-.2-4.4.1-8.9 1-13.2l.2-.8v-1.7l.3-1.1c.4-1.2.9-2.4 1.5-3.6 1.1-2.2 2.5-4.3 4.1-6.2 3.1-3.6 6.8-6.6 11-8.8 4-2.1 8.3-3.6 12.7-4.5 2.2-.4 4.4-.8 6.6-.9l2.7-.2 2.1-.3c1.5-.3 2.9-.7 4.3-1.2 1.3-.5 2.6-1.1 3.8-1.9 4.6-3 7.7-8.4 9.4-14.8 1.6-6.8 2.2-13.8 1.8-20.8l-.9-22.9-1.9-45.9c-.6-15.3-1.3-30.6-1.8-45.9v.5c-.6-5-1.3-9.9-2-14.9-.4-2.5-.8-4.9-1.2-7.4s-.9-4.9-1.4-7.3-1-4.9-1.6-7.3l-1.8-7.2c-1.3-4.8-2.7-9.5-4.4-14.2-.8-2.3-1.7-4.6-2.6-6.9s-1.8-4.6-2.9-6.8l-1.5-3.4-1.6-3.3-1.7-3.3-1.8-3.3-1.8-3.2-1.9-3.2-4-6.3c-1.4-2.1-2.8-4.1-4.3-6.2l-2.2-3-2.3-3c-.8-.9-.7-2.3.2-3.2s2.3-.7 3.2.2l5.4 5.6c1.7 1.9 3.4 3.9 5.1 5.9 1.7 2 3.3 4 4.8 6.1l2.3 3.2 2.2 3.2c1.5 2.2 2.9 4.3 4.2 6.6l2 3.4 1.9 3.4c1.3 2.3 2.4 4.6 3.5 7 1.1 2.4 2.2 4.7 3.2 7.2 2 4.8 3.8 9.7 5.4 14.7 1.6 5 3 10 4.2 15 .6 2.5 1.2 5.1 1.7 7.6s1.1 5.1 1.5 7.6c.9 5.1 1.7 10.2 2.4 15.3v.5c.9 15.3 1.6 30.6 2.4 45.8l2.3 45.8 1.1 22.9c.2 4.1.2 8.2-.1 12.3-.3 4.2-.9 8.4-1.9 12.5-.5 2.1-1.2 4.2-2 6.3-.9 2.1-1.9 4.2-3.1 6.2-2.5 4.1-5.8 7.7-9.8 10.4-4 2.6-8.5 4.5-13.2 5.3l-3.5.5-3 .2c-1.6.1-3.1.3-4.7.6-3.1.6-6 1.7-8.8 3.2-2.6 1.4-5 3.3-6.9 5.5-.9 1-1.6 2.1-2.2 3.3-.6 1.2-1 2.4-1.2 3.7-.7 3.2-.9 6.4-.7 9.6.2 3 .8 5.9 2 8.7 1.1 2.6 2.8 5 4.9 6.9 2.1 1.9 4.6 3.4 7.3 4.3 1.4.5 2.9.8 4.4 1.1l1 .2h3.9l45.8 2.7 22.9 1.4 11.5.7h10.5c13.8-.9 27-6.2 37.6-15.2 5.2-4.5 9.6-9.8 13.1-15.7 3.5-6 6-12.4 7.4-19.2l17.4-90.1 8.7-45.1c2.9-15 5.8-30 8.8-45l4.7-22.5 5-22.4c3.4-14.9 7-29.8 11-44.6.2-1.4 1.4-2.3 2.7-2.2s2.4 1.5 2.2 2.9z"></path><path fill="#31323D" d="M1095.2 2319.6h-.5l-1.7.2c-2 .3-4 1-5.8 2-2.6 1.4-4.8 3.2-6.7 5.5-1.1 1.3-2 2.6-2.9 4-.9 1.5-1.7 3-2.4 4.6l-.5 1.2-.5 1.2-.5 1.2-.4 1.3c-.5 1.7-.9 3.4-1.3 5l-.5 2.4c-.2.8-.3 1.6-.4 2.4s-.4 3-.6 4.4-.2 2.6-.3 3.7-.1 2.1-.2 2.9v2.7c.2 3.5-2.4 6.5-5.9 6.7-3.5.2-6.5-2.4-6.7-5.9 0-.5 0-1 .1-1.5 0-.3.1-.5.1-.8l.5-2.7c.2-.9.3-1.9.6-3.1s.5-2.6.9-4.1.8-3.1 1.3-4.8l.8-2.6.9-2.7c.7-1.8 1.4-3.7 2.3-5.5l.6-1.4.7-1.4.7-1.4.8-1.4c1.1-1.8 2.3-3.5 3.6-5.2 1.3-1.6 2.7-3.1 4.2-4.5 2.7-2.5 5.9-4.5 9.4-5.8 2.5-.9 5.1-1.4 7.7-1.5h3.1c1.3.1 2.3 1.3 2.2 2.7-.2 1.4-1.4 2.3-2.7 2.2zm-42.5-4.7h-.6l-1.6.4-2.5.9-.7.3-.8.4-1.6.9-1.7 1.1-1.7 1.3-.9.7-.8.8-1.6 1.7-1.5 2-.7 1-.6 1.1-1.3 2.2-1.1 2.4c-.3.8-.7 1.6-1 2.4l-.8 2.5-.8 2.4-.6 2.5c-.4 1.5-.8 3.1-1 4.7l-.6 4.3c-.2 1.2-.3 2.5-.3 3.7l-.2 2.8-.2 2.5v.4c.2 3.5-2.5 6.4-6 6.6-3.5.2-6.4-2.5-6.6-6 0-.5 0-.9.1-1.4 0-.3.1-.5.1-.8l.5-2.7.6-3.1c.3-1.2.4-2.5.9-4l1.3-4.7c.5-1.8 1.1-3.5 1.8-5.2l1-2.7 1.3-2.7 1.3-2.7c.5-.9 1.1-1.8 1.6-2.7l1.7-2.6 1.9-2.4.9-1.2 1.1-1.1 2.1-2.1 2.2-1.8 1.1-.9 1.2-.7 2.2-1.4 2.2-1.1 2.1-.8 1-.4 1-.3c1.1-.3 2.1-.5 3.2-.7l2.2-.2h.8c1.2-.1 2.3.8 2.4 2 .1 1.2-.8 2.3-2 2.4zm621-289.7l2.2 9.4c1.4 6.1 3.4 15.1 5.8 26.6 1.2 5.7 2.5 12.1 3.9 19l4.4 22.5 4.8 25.6 5 28.4 23.3 135.3c1.1 6.1 2 12.8 3.6 17.8 1.7 5.5 4.1 10.8 7.2 15.7 6.3 10 15.3 18.1 25.9 23.4l4.1 1.9 1.1.4 1 .4 2 .7c2.7.8 5.6 1.4 8.4 1.7l4.3.3h4.6l10-.3 40.1-1.4 39.4-1.2 2.5-.3 1.2-.2.9-.2 1.9-.4 1.9-.6c2.4-.8 4.5-2 6.5-3.5 1.8-1.5 3.3-3.3 4.3-5.4.2-.6.6-1.1.7-1.7l.6-1.8c.4-1.3.6-2.6.8-3.9.2-1.4.3-2.7.4-4.1v-2.1s0-1.4-.1-2.2l-.2-2.2v-.3c0 .2-.2.3-.3.2-.2 0-.3-.2-.2-.3 0-.2.2-.3.3-.2.1 0 .2.1.2.2v-1.6l-.2-.8-.2-.9c-.1-.6-.4-1.3-.6-1.9-1.7-5-4.7-9.3-8.4-11.7-2-1.2-4.1-2-6.4-2.3l-1.8-.2-2.6-.2h-1.2l-1.5-.2-2.9-.5c-3.8-.9-7.5-2.3-10.9-4.2-3.5-2-6.6-4.7-9.1-8-2.4-3.1-4.1-6.7-5.3-10.4-1-3.5-1.7-7.1-1.9-10.7-.1-.9-.1-1.7-.1-2.6v-7.2l.2-9.1.8-35.4.2-8.6v-4.6l.3-4.2.3-4.2c.1-1.4.2-2.7.4-4.2l1-8.4c1.5-10.6 3.6-21.1 6.4-31.5 2.5-9.5 5.6-18.8 9.1-28l2.7-6.4c.9-2.1 1.7-4.2 2.7-6.2l2.8-5.9c.9-1.9 1.8-3.9 2.8-5.7l2.9-5.4 1.4-2.6 1.5-2.5 2.9-4.9c.9-1.6 1.8-3.2 2.8-4.7l5.6-8.7 5.4-7.7 2.6-3.5 2.5-3.2c1.6-2.1 3.1-4.1 4.6-5.8l4.1-4.9 3.5-4 6.6-7.1c.8-.9 2.2-1.1 3.1-.3.9.8 1.1 2.2.3 3.1l-5.6 7.8c-3.6 5.1-8.8 12.6-14.9 22.5l-4.7 7.8-4.8 8.8c-.9 1.5-1.7 3.1-2.5 4.7l-2.5 4.9-1.3 2.5-1.2 2.6-2.5 5.4c-7.4 16.3-13.4 33.2-17.7 50.6l-.9 3.6-.4 1.8-.4 1.8-1.5 7.4-.4 1.9-.3 1.9-.6 3.8-.6 3.9-.3 1.9-.2 1.9-.9 7.8c-.2 1.3-.2 2.7-.3 4.1l-.3 4.2-.3 4.2v12.5l-.5 35.4v15.8s0 1.4.1 2c.2 2.5.7 5.1 1.4 7.5.7 2.2 1.8 4.3 3.2 6.2 2.7 3.6 6.9 5.8 12 6.9l1.8.3.9.2h1.2l2.2.2 3 .3c4.1.6 8.1 2 11.7 4.2 3.5 2.2 6.6 5.1 9 8.5 2.3 3.2 4.1 6.8 5.4 10.5.3.9.6 1.8.8 2.8l.4 1.4.3 1.6v2.9l.2 2.7c.1.9.1 1.8.1 2.8s.1 1.8 0 2.8c-.1 1.9-.2 3.8-.5 5.7-.3 2-.7 3.9-1.2 5.8l-1 2.9c-.3 1-.8 1.9-1.3 2.9-1.9 3.9-4.6 7.3-7.9 10.1-3.3 2.6-6.9 4.7-10.9 6l-2.8.9-3 .7-1.5.3-1.3.2-2.5.3h-5.7l-5 .2-10 .4-20.1.7-40.1 1.3-10 .3h-5.4l-5.6-.4c-3.7-.4-7.4-1.2-11-2.3l-2.7-.9-1.4-.5-1.2-.5-4.9-2.3c-12.9-6.5-23.7-16.4-31.4-28.6-3.8-6-6.7-12.4-8.7-19.2l-.7-2.6-.3-1.3c-.1-.4-.2-.9-.3-1.3l-.5-2.3-.2-1.2v-1.4l-1.5-9.3-22-135.6-4.5-28.5-3.8-25.7-3.2-22.7c-1-7-1.8-13.4-2.5-19.3-1.5-11.6-2.5-20.8-3.2-27.1l-1-9.6c.4-1.1 1.7-1.7 2.8-1.3.4.1.7.4 1 .7z"></path><path fill="#31323D" d="M1783.2 2307.4h3.2c2.7.3 5.4.8 8 1.7 1.8.6 3.5 1.3 5.1 2.1 1.9.9 3.6 2 5.3 3.3 1.8 1.3 3.5 2.9 5 4.5.7.9 1.5 1.7 2.2 2.7l1 1.4 1 1.5c1.2 1.9 2.4 4 3.3 6.1.9 2 1.7 4.1 2.4 6.2.4 1 .6 2 .9 3s.5 2 .7 2.9l.6 2.8.4 2.6c.3 1.7.4 3.2.6 4.6s.3 2.5.3 3.5l.2 3.1c-.2 3.5-3.1 6.2-6.6 6-3-.1-5.4-2.3-5.9-5.2v-1l.2-2.7c.1-.9.1-1.9.1-3.1s.1-2.6 0-4v-2.3l-.2-2.4c-.1-.8-.2-1.7-.3-2.5s-.2-1.8-.4-2.6c-.3-1.8-.8-3.6-1.3-5.3-.6-1.8-1.3-3.5-2.1-5.2l-.6-1.3-.7-1.2c-.4-.8-1-1.6-1.5-2.3-1-1.5-2.2-2.8-3.5-4.1-2.3-2.3-5-4.1-8-5.5-2.1-1-4.3-1.7-6.6-2.2l-1.9-.3h-.7c-1.3.1-2.4-1-2.5-2.3s1-2.4 2.3-2.5zm50.6-3.2h3.2c2.7.3 5.4.8 8 1.7 1.8.6 3.5 1.3 5.1 2.1 1.9.9 3.6 2 5.3 3.3 1.8 1.3 3.5 2.9 5 4.5.7.9 1.5 1.7 2.2 2.7l1 1.4 1 1.5c1.2 1.9 2.4 4 3.3 6.1.9 2 1.7 4.1 2.4 6.2.4 1 .6 2 .9 3s.5 2 .7 2.9l.6 2.8.4 2.6c.3 1.7.4 3.2.6 4.6s.3 2.5.3 3.5l.2 3.1c.5 3.4-2 6.6-5.4 7.1-3.4.5-6.6-2-7.1-5.4-.1-.5-.1-1.1 0-1.6v-.3l.2-2.7c.1-.9.1-1.9.1-3.1s.1-2.6 0-4v-2.3l-.2-2.4c-.1-.8-.2-1.7-.3-2.5s-.2-1.8-.4-2.6c-.3-1.8-.8-3.6-1.3-5.3-.6-1.8-1.3-3.5-2.1-5.2l-.6-1.3-.7-1.2c-.4-.8-1-1.6-1.5-2.3-1-1.5-2.2-2.8-3.5-4.1-2.3-2.3-5-4.1-8-5.5-2.1-1-4.3-1.7-6.6-2.2l-1.9-.3h-.7c-1.3.1-2.4-1-2.5-2.3s1-2.4 2.3-2.5z"></path><path fill="none" stroke="#31323D" stroke-width="12.5" stroke-miterlimit="10" d="M1206.2 862.9c-41.5-34.1-105.9-77.5-130.8-42.6-3.4 4.7-3.7 10.9-.9 16l60.5 108.1m472-90.4c24.5-19.2 89.4-68.2 129.3-66.3 8.3.4 14.7 7.4 14.3 15.6-.1 2.6-.9 5.1-2.2 7.3L1684 914.8M931.3 2117.4c-38.1 9.1-130.4 43.4-184.5 78.3-26.5 17.1-10.1 55.9 23.2 55.3l280.4-5.5" stroke-linecap="round"></path><path fill="#31323D" d="M840.5 2200.1l-.7.2-2 .6-3.1 1-4 1.5-4.5 2.1c-1.6.8-3.2 1.8-4.7 2.8-1.6 1.1-3 2.2-4.4 3.5-1.4 1.3-2.6 2.7-3.7 4.2l-.8 1.1-.7 1.2c-.4.8-.8 1.6-1.1 2.4-.2.4-.3.8-.4 1.2l-.3 1.2c-.2.8-.3 1.6-.4 2.4v3.6c0 .4.1.8.1 1.2 0 .7.1 1.5.3 2.2.2.7.3 1.4.5 2.1.3 1.2.7 2.4 1.2 3.6.4 1 .8 1.9 1.2 2.8l1.2 2.4.2.3c1.3 3.2-.3 6.9-3.5 8.2-2.9 1.2-6.2 0-7.8-2.7l-.3-.7-1.1-3.1c-.4-1-.7-2.2-1.1-3.7-.4-1.6-.8-3.3-1-4.9-.1-.9-.2-1.9-.3-2.9-.1-1.1-.1-2.1-.1-3.2v-1.7l.2-1.7c.1-.6.1-1.2.2-1.7l.4-1.8c.3-1.2.6-2.4 1-3.5.2-.6.4-1.1.7-1.7l.8-1.7c.6-1.1 1.3-2.2 2-3.2l1.1-1.5 1.2-1.4c1.6-1.8 3.4-3.5 5.4-4.9 1.8-1.4 3.8-2.6 5.8-3.6 1.9-1 3.8-1.8 5.7-2.6l5.2-1.8 4.4-1.2 3.5-.7 2.3-.3h.8c1.2-.2 2.4.6 2.6 1.8.2 1.2-.6 2.4-1.8 2.6h-.2zm-47.5 2h-.6l-1.7.5c-2 .7-4 1.5-5.9 2.5-1.2.7-2.4 1.4-3.6 2.2-1.2.9-2.4 1.8-3.5 2.9-1.1 1.1-2.1 2.4-2.9 3.7-.8 1.3-1.5 2.7-2 4.2-.2.7-.4 1.5-.6 2.2-.1.8-.3 1.5-.3 2.3-.1 1.5-.1 3.1.1 4.6.2 1.4.4 2.9.8 4.3s.7 2.7 1.2 3.9l.6 1.7.7 1.5.6 1.3.6 1.1 1.1 2.1v.2c1.2 3.3-.5 6.9-3.7 8.1-2.8 1-5.9 0-7.5-2.5l-.3-.8-.9-2.7-.5-1.4-.5-1.7-.5-1.9c-.2-.7-.3-1.4-.5-2.2s-.6-3.3-.8-5.1c-.2-2-.3-3.9-.2-5.9.1-2.1.3-4.2.8-6.3.2-1.1.6-2.1.9-3.2.4-1.1.8-2.1 1.3-3.1 1-2 2.2-3.9 3.6-5.6 1.4-1.6 2.9-3 4.5-4.3 1.5-1.1 3.1-2.1 4.8-3 1.5-.8 3-1.4 4.6-2 2.3-.9 4.7-1.5 7.1-2l2-.3h.8c1.2-.2 2.4.6 2.6 1.8.2 1.2-.6 2.4-1.8 2.6h-.4v.3z"></path><path fill="none" stroke="#31323D" stroke-width="12.5" stroke-miterlimit="10" d="M2020.7 2120.2c47.5 13.8 136.8 46.1 179.8 75.5 26.1 17.8 10.1 55.9-23.2 55.3l-261.6-5.1" stroke-linecap="round"></path><path fill="#31323D" d="M2107.6 2193.7h.8l2.3.4 3.5.8 4.5 1.4 5.2 2c1.9.8 3.8 1.8 5.6 2.8 2 1.1 3.9 2.4 5.7 3.8 1.9 1.5 3.7 3.2 5.3 5.1l1.2 1.5 1.1 1.6c.7 1.1 1.3 2.2 1.9 3.3.3.6.5 1.2.8 1.7s.5 1.2.7 1.8l.6 1.8.3.9.2.9c.3 1.2.5 2.3.6 3.5.1 1.1.2 2.3.2 3.4 0 2.1-.1 4.1-.4 6.2-.2 1.7-.6 3.4-1 5-.4 1.5-.7 2.8-1.1 3.7l-1.1 3.2c-1.6 3.1-5.3 4.4-8.5 2.8-2.5-1.3-3.9-4.1-3.3-6.9l.3-.7.2-.3 1.2-2.4c.4-.8.7-1.7 1.2-2.8s.8-2.3 1.2-3.7c.4-1.4.6-2.9.8-4.4.1-.8.1-1.6.1-2.4 0-.8 0-1.7-.1-2.5v-1.2l-.2-1.3c-.1-.4-.2-.8-.4-1.3-.1-.4-.2-.9-.4-1.3-.3-.9-.7-1.7-1.1-2.5l-.7-1.2-.8-1.2c-1.1-1.6-2.3-3.1-3.7-4.4-1.4-1.4-2.8-2.6-4.4-3.8-1.5-1.1-3.1-2.1-4.7-3l-4.5-2.3c-2.3-1.1-4.7-2.1-7.1-2.9l-2-.6-.7-.2h-.1c-1.2-.4-1.8-1.6-1.5-2.7.3-1 1.3-1.7 2.3-1.6zm47.5 2h.8l2.1.4c2.4.6 4.8 1.4 7.1 2.4 1.5.7 3 1.4 4.5 2.3 1.6 1 3.2 2.1 4.7 3.3 1.6 1.4 3.1 2.9 4.4 4.5 2.1 2.6 3.7 5.6 4.8 8.8.4 1.1.6 2.2.9 3.2s.4 2.2.6 3.3.3 2.2.2 3.2.1 2.1 0 3.1l-.2 2.9c-.3 1.8-.5 3.6-.8 5.2l-.5 2.3-.6 2-.5 1.8-.5 1.4-.9 2.7c-1.6 3.1-5.3 4.4-8.5 2.8-2.5-1.3-3.9-4.1-3.3-6.9l.3-.7v-.3l1.1-2.2.6-1.2.6-1.4.7-1.6.6-1.7c.5-1.2.8-2.6 1.2-4l.4-2.2c.2-.7.2-1.5.3-2.3s.1-1.5.1-2.3-.1-1.6-.1-2.4-.2-1.6-.3-2.4c-.2-.8-.4-1.5-.6-2.3-.5-1.5-1.2-3-2-4.4-.8-1.4-1.8-2.7-2.9-3.9-1.1-1.2-2.3-2.2-3.5-3.2-1.1-.9-2.4-1.7-3.6-2.4-1.9-1.1-3.9-2.1-5.9-2.9l-1.7-.6-.6-.2h-.1c-1-.6-1.4-2-.8-3 .4-.7 1.1-1.1 1.9-1.1z"></path></g></g><g id="eye"><defs><linearGradient id="eyeColor1" x2="0%" y2="100%"><stop offset="0%" stop-color="#43edac"></stop></linearGradient><linearGradient id="eyeColor2" x2="0%" y2="100%"><stop offset="0%" stop-color="#43edac"></stop></linearGradient></defs><defs><clipPath id="eyeClipPath"><circle cx="1696" cy="1101.3" r="129.7" fill="#fff" stroke="#31323d" stroke-width="10" stroke-miterlimit="10" transform="translate(381.9 2638.3) rotate(-82.5)" stroke-linecap="round"></circle></clipPath><clipPath id="eyeClipPath2"><circle cx="1168.9" cy="1127" r="129.7" fill="#fff" stroke="#31323d" stroke-width="10" stroke-miterlimit="10" transform="translate(-137.7 163) rotate(-7.5)" stroke-linecap="round"></circle></clipPath></defs><circle cx="1696" cy="1101.3" r="129.7" fill="#fff" transform="translate(381.9 2638.3) rotate(-82.5)"></circle><g clip-path="url(#eyeClipPath)"><circle cx="1653.5" cy="1132.4" r="87.6" fill="url(#eyeColor1)" transform="translate(-134.2 226.5) rotate(-7.5)"></circle><circle cx="1657.1" cy="1133.7" r="64.7" fill="#31323d" transform="translate(-134.3 227) rotate(-7.5)"></circle><circle cx="1679.1" cy="1078.3" r="35.2" fill="#fff" transform="translate(-126.9 229.4) rotate(-7.5)"></circle></g><circle cx="1696" cy="1101.3" r="129.7" fill="none" stroke="#31323d" stroke-width="10" stroke-miterlimit="10" transform="translate(381.9 2638.3) rotate(-82.5)" stroke-linecap="round"></circle><path fill="none" stroke="#31323d" stroke-width="30" stroke-miterlimit="10" d="M1828.1 1011.3c-65.3 5.4-115.7-35.5-151.7-66.9" stroke-linecap="round"></path><circle cx="1168.9" cy="1127" r="129.7" fill="#fff" transform="translate(-137.7 163) rotate(-7.5)"></circle><g clip-path="url(#eyeClipPath2)"><circle cx="1211.4" cy="1158.2" r="87.6" fill="url(#eyeColor2)" transform="translate(-141.4 168.8) rotate(-7.5)"></circle><circle cx="1215" cy="1159.4" r="64.7" fill="#31323d" transform="translate(-141.5 169.3) rotate(-7.5)"></circle><circle cx="1237.1" cy="1104" r="35.2" fill="#fff" transform="translate(-134 171.7) rotate(-7.5)"></circle></g><circle cx="1168.9" cy="1127" r="129.7" fill="none" stroke="#31323d" stroke-width="10" stroke-miterlimit="10" transform="translate(-137.7 163) rotate(-7.5)" stroke-linecap="round"></circle><path fill="none" stroke="#31323d" stroke-width="30" stroke-miterlimit="10" d="M1036.8 1037c65.3 5.4 115.7-35.5 151.7-66.9" stroke-linecap="round"></path></g><g id="mouth"><defs><clipPath id="mouthClipPath"><path d="M1340.1 1307.2c36.1 15.8 36.8 146.3 96.1 149.8 64.6 3.8 60.2-141.6 86.1-167.2-46.2-29-84.6-83.2-84.6-83.2-52.9 96.5-97.6 100.6-97.6 100.6z" fill="#31323d" stroke="#31323d" stroke-linecap="round" stroke-linejoin="round" stroke-width="8"></path></clipPath></defs><g><path d="M1340.1 1307.2c36.1 15.8 36.8 146.3 96.1 149.8 64.6 3.8 60.2-141.6 86.1-167.2-46.2-29-84.6-83.2-84.6-83.2-52.9 96.5-97.6 100.6-97.6 100.6z" fill="#31323d"></path><g clip-path="url(#mouthClipPath)"><path d="M1362.7 1440.2s16.6-36.8 72.6-39c57.9-2.3 77.7 47.7 77.7 47.7l-76 18z" fill="#f29cb1"></path><path d="M1437.7 1206.6l-4.7 97.2c-.8 14.9-18.5 22.3-29.6 12.4l-37.4-33.4 26.6-15.8z" fill="#fff" stroke="#31323d" stroke-linecap="round" stroke-miterlimit="10" stroke-width="7"></path><path d="M1447.2 1223.7l1.4 71.7c.4 16.2 21 22.6 30.5 9.6l31.8-43.7" fill="#fff" stroke="#31323d" stroke-linecap="round" stroke-miterlimit="10" stroke-width="7"></path></g><path d="M1340.1 1307.2c36.1 15.8 36.8 146.3 96.1 149.8 64.6 3.8 60.2-141.6 86.1-167.2-46.2-29-84.6-83.2-84.6-83.2-52.9 96.5-97.6 100.6-97.6 100.6z" fill="none" stroke="#31323d" stroke-linecap="round" stroke-linejoin="round" stroke-width="8"></path><path d="M1448.1 1209.4l1.1 1.7 3.5 4.8c3.1 4.2 7.6 10.1 13.3 16.9s12.7 14.6 20.7 22.4a280.7 280.7 0 0 0 26.2 22.9 182.2 182.2 0 0 0 29.5 18.4 125.4 125.4 0 0 0 28.4 9.9 101.4 101.4 0 0 0 12 1.7 78.1 78.1 0 0 0 9.3.3c2.6-.1 4.6-.2 6-.4l2.1-.2h.1a1.7 1.7 0 0 1 1.9 1.5 1.8 1.8 0 0 1-1.4 2l-2.2.3c-1.5.3-3.6.5-6.3.8a94.4 94.4 0 0 1-9.7.3 124 124 0 0 1-12.7-1 130.6 130.6 0 0 1-30.5-8.7 187.1 187.1 0 0 1-31.8-17.4 271.9 271.9 0 0 1-28.7-22.1c-8.7-7.6-16.4-15.2-22.7-21.9s-11.4-12.5-14.9-16.7l-4-4.9-1.4-1.9a7.4 7.4 0 0 1 1.3-10.5 7.7 7.7 0 0 1 10.6 1.3.5.5 0 0 0 .2.4z" fill="#31323d"></path><path d="M1445.4 1204.1l.2.8a6.6 6.6 0 0 1 .1 2.1 8.9 8.9 0 0 1-.6 3c-.4 1.1-1.1 2.2-1.7 3.6a19.6 19.6 0 0 0-1.2 2.1l-1.3 2.3c-.9 1.6-1.9 3.4-3 5.2s-2.2 3.9-3.4 5.9l-4 6.4-4.5 6.8c-1.6 2.4-3.4 4.7-5.1 7.2s-3.7 4.9-5.6 7.4-4.1 5-6.3 7.5l-1.6 1.9-1.7 1.8c-1.1 1.3-2.3 2.5-3.4 3.7l-3.6 3.7-3.8 3.6c-2.6 2.3-5.1 4.8-7.9 6.9l-4.1 3.4-4.3 3.1a140.2 140.2 0 0 1-18.1 10.9 122.9 122.9 0 0 1-19.2 7.5 105.1 105.1 0 0 1-35.7 4.1 93 93 0 0 1-14.2-1.6 104.2 104.2 0 0 1-10.7-2.4l-6.8-2-2.3-.8a1.2 1.2 0 0 1-.8-1.5 1.2 1.2 0 0 1 1.4-.8h.1l2.3.6 6.8 1.4c2.9.4 6.4 1 10.5 1.4a118.9 118.9 0 0 0 13.7.4 92.9 92.9 0 0 0 16.1-1.7 95.6 95.6 0 0 0 17.2-4.6 117.3 117.3 0 0 0 17.3-8.1 132 132 0 0 0 16.2-11l3.8-3.2 3.7-3.3c2.4-2.2 4.7-4.6 7-6.8s2.2-2.4 3.3-3.6 2.3-2.4 3.3-3.6l3-3.7 1.6-1.8 1.4-1.8c3.8-4.9 7.3-9.8 10.5-14.6 1.6-2.4 3.2-4.7 4.6-7l4-6.7 3.6-6.3c1.1-2 2.2-3.8 3.1-5.6l2.6-5.1a22.6 22.6 0 0 0 1.1-2.2c.4-.7.7-1.5 1.1-2.1a20.1 20.1 0 0 1 1.8-3.6 9.2 9.2 0 0 1 2-2.3 9.7 9.7 0 0 1 1.8-1.1l.8-.3a7.3 7.3 0 0 1 8.9 4.5z" fill="#31323d"></path><path d="M1372.7 1184.1a15 15 0 0 1 3.9-15.9c9.1-8.6 28.5-21.2 64.1-20.8s52.3 13 60.1 21.9a14.6 14.6 0 0 1 2.3 16.1 20.7 20.7 0 0 1-18.4 12c-10.1.2-24 3-33 15.3a20 20 0 0 1-1.9 2.2l-.3.3a17.6 17.6 0 0 1-25.3-1.9s-7.1-12.6-33.9-15.1a20.8 20.8 0 0 1-17.5-13.8z" fill="#31323d"></path><path d="M1362.9 1471.8s-4.2 72.6 56.5 76.9c58.8 4.1 72.8-62.7 72.8-62.7s-24.4 27.7-62.3 24.1-67-38.3-67-38.3z" fill="#595959" opacity=".2" style="mix-blend-mode:multiply"></path><path d="M1495.3 1483.3a17.8 17.8 0 0 0-.7 1.7 20.5 20.5 0 0 1-.8 2l-1.4 2.9c-.6 1-1.3 2.1-2 3.4s-1.6 2.4-2.6 3.7a51.7 51.7 0 0 1-7.6 8.2 65.7 65.7 0 0 1-10.7 7.8l-3.2 1.6-3.4 1.6a74.3 74.3 0 0 1-7.1 2.6c-2.5.7-5 1.4-7.6 1.9l-4 .6a27.1 27.1 0 0 1-4 .4 75.2 75.2 0 0 1-16.4-.4 84.4 84.4 0 0 1-15.8-3.7 88.9 88.9 0 0 1-14.3-6.5l-.8-.5-.4-.2-.3-.2h-.2l-1.5-.9-3-2.1a65.3 65.3 0 0 1-5.7-4.3 73.7 73.7 0 0 1-9.3-9.2 64.6 64.6 0 0 1-6.4-8.8 70.6 70.6 0 0 1-4-7.3c-.5-1.1-.8-2-1.2-2.8l-.8-2.2-.6-1.7a2.4 2.4 0 0 1 1.5-3.2 2.6 2.6 0 0 1 2.9.8h.1l1 1.5 3 3.9c1.3 1.6 3 3.5 5 5.6s4.4 4.4 7 6.7 5.8 4.5 9.1 6.7l2.6 1.6 2.6 1.6 2.8 1.5a8 8 0 0 1 1.6.8l1.4.6a91 91 0 0 0 12.4 4.7 83.7 83.7 0 0 0 13.2 2.8 87.6 87.6 0 0 0 13.5.5l3.3-.3 3.3-.3a58.6 58.6 0 0 0 6.3-1.2 60.6 60.6 0 0 0 6.1-1.6l2.8-1 2.8-1.1a67.6 67.6 0 0 0 9.7-5 64.1 64.1 0 0 0 7.7-5.6c2.1-1.8 3.9-3.6 5.4-5.1l1.8-2a17.7 17.7 0 0 0 1.4-1.7l1.2-1.4a2.5 2.5 0 0 1 3.5-.3 2.7 2.7 0 0 1 .8 2.9z" fill="#31323d"></path><path d="M1532.7 1231.1l4-.9 11.5-2.1c9.8-1.7 23.9-3.8 41-5.4a544.5 544.5 0 0 1 58.3-2.4c10.7.1 21.7.6 32.9 1.5s22.5 2.3 33.7 4.2a331.6 331.6 0 0 1 33.2 7.1 327.5 327.5 0 0 1 31.3 10.2 266.8 266.8 0 0 1 27.9 12.9 234.9 234.9 0 0 1 23.3 14.5 203 203 0 0 1 18.2 14.6c1.3 1.1 2.5 2.3 3.6 3.4l3.4 3.2 3 3.1 2.7 2.8c1.7 1.8 3.1 3.5 4.4 5s2.3 2.7 3.1 3.7l2.6 3.2-2.6-3.1-3.3-3.7-4.5-4.8-2.8-2.8-3.1-2.9-3.4-3.1-3.7-3.3a225 225 0 0 0-18.4-14 216 216 0 0 0-23.6-13.7 246.4 246.4 0 0 0-27.9-12 275.5 275.5 0 0 0-31.2-9.2c-10.8-2.6-21.8-4.6-33-6.2s-22.3-2.5-33.3-3.1-22-.8-32.5-.7a523.9 523.9 0 0 0-57.4 4c-16.8 2-30.6 4.5-40.2 6.4l-11.1 2.4-3.9.9a5 5 0 1 1-2.3-9.7z" fill="#31323D"></path><path d="M1705.6 1181.8l-6.6.2-7.6.4-9.9.6-11.7 1.1-12.9 1.5c-4.5.6-9.1 1.1-13.8 1.9l-7.1 1.1-7.1 1.3-7.1 1.3c-2.3.5-4.7.9-7 1.5l-6.9 1.5-6.7 1.5-6.4 1.6-6.2 1.6-11.2 3.2-9.4 2.8-7.2 2.4-6.2 2.1h-.1a5 5 0 0 1-6.3-3.1 5 5 0 0 1 3.1-6.4h.3l6.5-1.7 7.5-1.9 9.7-2.3 11.6-2.4 6.3-1.3 6.7-1.1 6.8-1.2 7.1-1.1 7.1-1 7.3-.9 7.2-.8 7.2-.6c4.7-.5 9.4-.7 14-1.1l13.1-.6 11.7-.3h17.6z" fill="#31323D"></path><path d="M1546.6 1254.2l7.7-1.2 4.4-.3 5.1-.4a101.6 101.6 0 0 1 12.1.3l3.3.2 3.5.4 3.6.5 3.7.7 3.7.7 3.8 1 3.9 1 3.9 1.2 3.9 1.3 3.9 1.5 3.9 1.5 3.9 1.8 2 .8 1.9 1 3.8 1.9c2.6 1.3 5.1 2.8 7.6 4.2q7.5 4.4 14.4 9.3c4.6 3.2 9 6.7 13.1 10.1s8 6.8 11.6 10.2 6.8 6.7 9.8 9.7 5.6 6 7.8 8.6l5.8 6.9c3.1 3.9 4.8 6.2 4.8 6.2s-1.8-2.2-5.1-5.9c-1.7-1.8-3.7-4.1-6.2-6.5s-5.1-5.2-8.2-8.2-6.5-6-10.3-9.1-7.7-6.3-11.9-9.5-8.8-6.2-13.5-9.1-9.5-5.7-14.5-8.4l-7.5-3.6-3.9-1.6-1.9-.9-1.9-.7-3.8-1.4-3.9-1.3-3.8-1.2-3.7-1-3.8-1-3.7-.7a22.9 22.9 0 0 0-3.6-.7l-3.6-.5-3.4-.5-3.4-.2-3.3-.3h-3.1a95.8 95.8 0 0 0-11.1.4l-4.6.5a37.9 37.9 0 0 0-3.8.6l-7.6 1.6a5.2 5.2 0 0 1-6-3.9 5 5 0 0 1 3.9-5.9z" fill="#31323D"></path><path d="M1355.9 1256.2l-15.4-3c-9.9-2-23.8-4.7-40.7-7.5-8.4-1.4-17.6-2.7-27.3-3.9s-19.9-2.4-30.6-3.2-21.6-1.4-32.8-1.6-22.6.1-33.9.8-22.7 2-33.7 3.9c-5.5.9-10.9 2.1-16.3 3.3s-10.6 2.5-15.7 4.1c-20.4 6.1-38.6 14.7-52.8 24.1a160.7 160.7 0 0 0-18.6 14.2l-3.7 3.4c-1.2 1-2.3 2.1-3.4 3.2l-3.1 3.1c-.9 1-1.8 1.9-2.6 2.9a58.4 58.4 0 0 0-4.4 5l-1.8 2-1.4 1.8-2.5 3.2 2.4-3.3 1.4-1.8 1.7-2.1c1.2-1.5 2.6-3.3 4.2-5.1s1.7-2 2.7-3l2.9-3.2 3.4-3.3c1.1-1.1 2.3-2.4 3.6-3.5a167.3 167.3 0 0 1 18.3-14.8 204.5 204.5 0 0 1 52.8-25.8c5.1-1.7 10.4-3.2 15.8-4.6s10.8-2.7 16.4-3.8c11.1-2.2 22.5-3.7 34-4.8s23-1.7 34.3-1.8 22.5.1 33.3.7 21.1 1.3 31 2.3 19.1 2.1 27.6 3.3c17.1 2.3 31.3 4.7 41.2 6.3l15.5 2.6a4.9 4.9 0 0 1 4.1 5.7 5 5 0 0 1-5.8 4.1z" fill="#31323D"></path><path d="M1181.2 1197.5l1.7-.4 5-.8 7.8-1.1 10.1-1a249.9 249.9 0 0 1 25.6-1c4.7.1 9.5.2 14.4.5l7.5.6 7.4.8 7.5 1c2.4.4 4.9.7 7.3 1.2 4.9.8 9.7 1.9 14.3 2.9l6.7 1.7 6.5 1.7 11.6 3.6 9.8 3.5 7.4 2.9 4.7 2 1.7.7a5.1 5.1 0 0 1 2.6 6.6 4.9 4.9 0 0 1-6.6 2.6h-.3l-1.6-.8-4.4-2.2c-1.9-1-4.3-2.1-7-3.3l-9.2-4c-3.4-1.3-7.1-2.8-11.1-4.2l-6.1-2.1-6.5-2c-4.4-1.3-9-2.6-13.7-3.7l-7.1-1.6c-2.4-.6-4.8-1-7.2-1.4l-7.3-1.3-7.3-1c-4.8-.6-9.5-1.1-14.2-1.4-9.2-.7-17.9-.8-25.3-.7l-10.1.5-7.9.6-5 .5z" fill="#31323D"></path><path d="M1343.2 1280l-7.7-1.9-3.7-.6-2.2-.3-1.1-.2h-1.2l-5.3-.4h-7.4l-1.6.2-3.3.3c-2.2.1-4.4.6-6.8.9s-4.7 1-7.1 1.5l-1.8.4-1.9.6-3.7 1.1a33 33 0 0 0-3.7 1.3l-3.8 1.4-7.5 3.2c-4.9 2.4-10 5-14.8 7.9l-3.6 2.2-3.5 2.3c-2.4 1.5-4.6 3.2-6.9 4.8s-4.5 3.3-6.6 5l-6.3 5.1-3 2.6-2.9 2.6c-2 1.7-3.8 3.4-5.6 5.1s-3.4 3.3-5.1 4.9l-4.7 4.8c-2.9 3.1-5.6 6-7.8 8.6s-4.3 4.9-5.9 6.9c-3.1 3.8-4.8 6.2-4.8 6.2s1.5-2.4 4.5-6.5l5.4-7.2c2.2-2.7 4.7-5.8 7.5-9l4.4-5.1 4.9-5.3c1.7-1.8 3.4-3.6 5.3-5.4s1.8-1.9 2.8-2.8l2.9-2.7c1.9-1.9 4-3.7 6.1-5.6l6.4-5.4c2.2-1.8 4.4-3.6 6.8-5.3l3.5-2.6 3.6-2.4a138.9 138.9 0 0 1 14.8-9l7.6-3.8 3.9-1.7c1.3-.5 2.6-1.1 3.9-1.5l3.8-1.4 1.9-.7 2-.6c2.5-.7 5-1.5 7.5-2a66.8 66.8 0 0 1 7.3-1.4l3.5-.5 1.7-.3h1.7l6.4-.4h8.5l2.6.3 4.4.5 7.8 1.4a5 5 0 1 1-1.9 9.8z" fill="#31323D"></path></g></g></svg>