<svg xmlns="http://www.w3.org/2000/svg" width="40" height="40"><defs><linearGradient id="a" x1="100%" x2="0%" y1="69.427%" y2="69.427%"><stop offset="0%" stop-color="#FFAEAE"/><stop offset="34.381%" stop-color="#FF85E5"/><stop offset="57.85%" stop-color="#C087FF"/><stop offset="100%" stop-color="#00BDFF"/></linearGradient></defs><g fill="none" fill-rule="evenodd"><ellipse cx="20" cy="37" fill="#AF00A8" opacity=".25" rx="9" ry="1.5"/><path fill="url(#a)" d="M20.005 1.555l15.832 18.54-8.799 10.923H9.413L.962 20.096 16.97 1.546a2 2 0 013.035.009z" transform="rotate(-180 19.106 16.677)"/><path fill="#FFF" d="M28.562 1.946l8.375 10.687-6.5-2.25h-20.5l-7.375 2.25L11 2.321z" opacity=".254"/><path fill="#000" d="M15.25 10.625l4.875 21-10.75-21 2.875-8 15.875.5L9.812 9.687z" opacity=".59" style="mix-blend-mode:soft-light"/><path fill="#FFF" d="M24.375 10.625l-4.875 21 10.75-21-2.875-8-15.875.5L29.937 9.75z" opacity=".6" style="mix-blend-mode:soft-light"/><path fill="#000" d="M5.375 12.375L19.5 31.312 2.688 13.125 12.5 2.062 6.25 11.5z" opacity=".6" style="mix-blend-mode:soft-light"/><path fill="#FFF" d="M28.25 3.125l2.125 7.125L20.25 31.5 37 12.875z" style="mix-blend-mode:overlay"/><path fill="#000" d="M11.315 3.526L9.5 10.125 20 32 3 13.125z" style="mix-blend-mode:overlay"/><g fill="#FFF"><path d="M22.812 10.25l-11.687-4.5-1.375 4.5h7z"/><path d="M10.875 4.125V6.75l-3.406-.281z" style="mix-blend-mode:overlay"/><path d="M27.562 16.875l1.625-3.625-5.062-3.092-5.625.5zM36.125 13l-5.875-2.625-2.5-7.625z"/><path d="M12.438 16l-5.063-4.5-2.75.812L15.438 22.75z" style="mix-blend-mode:overlay"/></g><g stroke="#8E218A"><path stroke-linecap="square" stroke-linejoin="round" stroke-width="1.25" d="M12.15 2.855l-3.025 7.653 10.453 21.25m8.059-28.893l2.941 7.643-10.453 21.25"/><path stroke-linecap="round" stroke-width="1.25" d="M3.26 13.164l5.802-2.906h21.375L36.7 13.32"/><path stroke-linejoin="round" stroke-width="1.5" d="M19.155 32.357L3.61 14.195a2 2 0 01-.007-2.593l7.048-8.324a2 2 0 011.526-.707H27.52a2 2 0 011.516.695l7.171 8.334a2 2 0 01.004 2.605L20.674 32.357a1 1 0 01-1.519 0z"/></g></g></svg>