<svg xmlns="http://www.w3.org/2000/svg" width="25" height="25"><defs><linearGradient id="a" x1="50%" x2="50%" y1="100%" y2="0%"><stop offset="0%" stop-color="#FFFBAB"/><stop offset="100%" stop-color="#FFC455"/></linearGradient></defs><g fill="none" fill-rule="evenodd" transform="translate(-4 -5)"><ellipse cx="16.5" cy="26" fill="#BB4900" opacity=".25" rx="8.5" ry="2"/><path fill="#FFE981" d="M10.433 10.308l6.398-2.678 6.37 2.61 2.61 6.37-2.679 6.397-6.397 2.679-6.37-2.61-2.61-6.37z"/><path fill="url(#a)" d="M10.437 5.46l4.261 1.63 1.765 3.936-1.765 3.935-4.261 1.63-4.261-1.63-1.765-3.935L6.176 7.09z" transform="translate(6.346 5.632)"/><path fill="#FFFA89" d="M16.866 7.903v2.957l4.333 1.696 1.712 4.088h2.957l-2.696-6.262z"/><path fill="#FFC75D" d="M7.995 16.687h2.74l1.696 4.088 4.392 1.783v3.131l-6.35-2.74z"/><path fill="#000" d="M16.5 25.148l-5.051-3.356-2.16-5.16 1.524-6.181-2.932 6.182 2.708 6.446z" style="mix-blend-mode:soft-light"/><path stroke="#FFBD53" stroke-width="2.5" d="M13.428 13.549l-1.43 3.063 1.439 3.17 3.333 1.352 3.439-1.357 1.406-3.121-1.407-3.111-3.38-1.354-3.4 1.358z"/><path fill="#FFF" d="M16.736 8.185l5.455 3.273 2.159 5.159-1.327 6.327 2.736-6.327-3.041-6.182z" style="mix-blend-mode:overlay"/><path fill="#FFFFD3" d="M12.504 12.572l4.325-1.728 4.31 1.728 1.847 4.083-1.846 4.03-1.89-1.872.937-2.158-.812-2.055-2.546-1.1-2.485 1.1z"/><path fill="#FFF" d="M21.895 21.935l-5.06 3.461 6.288-2.37z"/><g stroke="#A13911" stroke-linecap="round"><path stroke-linejoin="round" d="M16.805 10.9l4.317 1.684 1.789 4.065-1.789 4.065-4.317 1.684-4.318-1.684-1.789-4.065 1.789-4.065z"/><path d="M16.816 8.029v2.873m0 11.494v2.873m-4.211-4.494l-2.131 2.131M12.52 12.63l-1.924-2.07m10.489 10.259l2.044 2.13m-1.957-10.393l2.053-2.023"/></g><path stroke="#A13911" stroke-linecap="round" stroke-linejoin="round" d="M16.889 7.858l6.417 2.63 2.658 6.35-2.658 6.349-6.417 2.63-6.418-2.63-2.658-6.35 2.658-6.349z"/><path d="M10.639 13.186c1.49-.605 1.472-.623 2.148-2.074.677 1.385.712 1.439 2.124 2.199-1.367.63-1.385.647-2.148 2.075-.677-1.435-.66-1.435-2.124-2.2z" fill="#FFF"/></g></svg>