<svg xmlns="http://www.w3.org/2000/svg" width="25" height="25"><defs><linearGradient id="a" x1="50%" x2="50%" y1="100%" y2="0%"><stop offset="0%" stop-color="#F2D0FF"/><stop offset="100%" stop-color="#B89EFF"/></linearGradient><linearGradient id="b" x1="50%" x2="50%" y1="0%" y2="96.157%"><stop offset="0%" stop-color="#D992FB"/><stop offset="100%" stop-color="#935BFF"/></linearGradient></defs><g fill="none" fill-rule="evenodd" transform="translate(3 2)"><ellipse cx="9.5" cy="19" fill="#4F00C9" opacity=".25" rx="8.5" ry="2"/><path fill="#C497FF" d="M10.096.819l5.645 2.827a1.5 1.5 0 01.829 1.341v9.601a1.5 1.5 0 01-.855 1.354l-5.645 2.693a1.5 1.5 0 01-1.292 0l-5.645-2.693a1.5 1.5 0 01-.854-1.354v-9.6a1.5 1.5 0 01.828-1.342L8.752.819a1.5 1.5 0 011.344 0z"/><path fill="url(#a)" d="M7.59 3.44l4.43 1.97v7.487l-4.43 1.986-4.428-2.079V5.41z" transform="translate(1.833 .551)"/><path fill="#DCB9FF" d="M9.553.771l6.772 3.406-2.243 1.83-4.529-2.159V.771zm4.529 5.237l2.368-1.739-.125 10.825-2.243-1.646v-7.44z"/><path fill="#AE92FF" d="M2.511 4.455L4.748 6.1l.18 7.418 4.54 2.204v2.837L2.51 15.303z"/><path fill="#8970FF" d="M9.136 18.247L4.054 14.39 2.77 4.265l-.296 11.137z"/><path fill="url(#b)" d="M2.985 3.856l1.527 1.266 2.896-1.364 2.719 1.364V9.78l1.854 1.623V4.074l-4.573-2.29z" transform="rotate(-180 8.4 8.605)"/><path fill="#FFF" d="M9.777 1.276l5.083 3.857 1.283 10.125.296-11.138z"/><path fill="#EBE2FF" d="M4.843 5.904l1.837 1.53 2.768-1.361 2.855 1.362-.02 4.652 1.621 1.34.117-7.354-4.573-2.29z"/><g stroke="#542799" stroke-linecap="round"><path stroke-linejoin="round" d="M9.424 3.803L14 6.017v7.392l-4.575 2.213L4.85 13.41V6.017z"/><path d="M9.424.852v2.954m0 11.814v2.954m-4.631-5.01l-2.237 1.793m2.259-9.442L2.493 4.17m11.517 9.14l2.246 1.831m-2.223-9.18l2.116-1.791"/></g><path stroke="#542799" stroke-linecap="round" stroke-linejoin="round" d="M10.084.806l5.646 2.768a1.5 1.5 0 01.84 1.346v9.586a1.5 1.5 0 01-.84 1.346l-5.646 2.768a1.5 1.5 0 01-1.32 0l-5.646-2.768a1.5 1.5 0 01-.84-1.346V4.92a1.5 1.5 0 01.84-1.346L8.764.806a1.5 1.5 0 011.32 0z"/><path d="M2.444 6.662c1.612-.703 1.593-.722 2.316-2.316.743 1.48.782 1.537 2.317 2.316-1.478.726-1.497.745-2.316 2.317-.743-1.534-.724-1.534-2.317-2.317z" fill="#FFF"/></g></svg>